<svg xmlns="http://www.w3.org/2000/svg" width="565" height="320"><defs><linearGradient id="grd1" gradientUnits="userSpaceOnUse" x1="908" y1="485.411" x2="12857.992" y2="10435.365"><stop offset="0" stop-color="#26ff59"/><stop offset="100" stop-color="#00cf8a"/></linearGradient><linearGradient id="grd2" gradientUnits="userSpaceOnUse" x1="282" y1="1112.6" x2="7082" y2="1112.6"><stop offset="0" stop-color="#26ff5a"/><stop offset="100" stop-color="#00f1ac"/></linearGradient><linearGradient id="grd3" gradientUnits="userSpaceOnUse" x1="4957" y1="9197.4" x2="324" y2="9197.4"><stop offset="0" stop-color="#fff" stop-opacity=".8"/><stop offset="96" stop-color="#fff" stop-opacity=".04"/><stop offset="100" stop-color="#fff" stop-opacity="0"/></linearGradient><linearGradient id="grd4" gradientUnits="userSpaceOnUse" x1="723.502" y1="12222.799" x2="4956.498" y2="2056.801"><stop offset="0" stop-color="#fff" stop-opacity=".6"/><stop offset="90" stop-color="#fff" stop-opacity=".06"/><stop offset="100" stop-color="#fff" stop-opacity="0"/></linearGradient><linearGradient id="grd5" gradientUnits="userSpaceOnUse" x1="1259023.2" y1="803261.993" x2="1209733.2" y2="894127.113"><stop offset="0" stop-color="#fff" stop-opacity=".6"/><stop offset="90" stop-color="#fff" stop-opacity=".06"/><stop offset="100" stop-color="#fff" stop-opacity="0"/></linearGradient><linearGradient id="grd6" gradientUnits="userSpaceOnUse" x1="775565.1" y1="52036.666" x2="726845.1" y2="71054.559"><stop offset="0" stop-color="#fff" stop-opacity=".6"/><stop offset="90" stop-color="#fff" stop-opacity=".06"/><stop offset="100" stop-color="#fff" stop-opacity="0"/></linearGradient><linearGradient id="grd7" gradientUnits="userSpaceOnUse" x1="646485.5" y1="275505.335" x2="628485.5" y2="304920.207"><stop offset="0" stop-color="#fff" stop-opacity=".6"/><stop offset="90" stop-color="#fff" stop-opacity=".06"/><stop offset="100" stop-color="#fff" stop-opacity="0"/></linearGradient><linearGradient id="grd8" gradientUnits="userSpaceOnUse" x1="290000" y1="8310.149" x2="266000" y2="11024.2"><stop offset="0" stop-color="#fff" stop-opacity=".6"/><stop offset="90" stop-color="#fff" stop-opacity=".06"/><stop offset="100" stop-color="#fff" stop-opacity="0"/></linearGradient><linearGradient id="grd9" gradientUnits="userSpaceOnUse" x1="4503110.185" y1="236402.8" x2="4503110.185" y2="438802.8"><stop offset="0" stop-color="#fff" stop-opacity=".6"/><stop offset="90" stop-color="#fff" stop-opacity=".06"/><stop offset="100" stop-color="#fff" stop-opacity="0"/></linearGradient><radialGradient id="grd10" gradientUnits="userSpaceOnUse" cx="5188.4" cy="4889.65" r="2567"><stop offset="0" stop-color="#fff" stop-opacity=".1"/><stop offset="100" stop-color="#fff" stop-opacity="0"/></radialGradient><radialGradient id="grd11" gradientUnits="userSpaceOnUse" cx="-1592162" cy="9353349.3" r="657120"><stop offset="0" stop-color="#fff" stop-opacity=".1"/><stop offset="100" stop-color="#fff" stop-opacity="0"/></radialGradient></defs><style>.shp5{opacity:.502;fill:#fff}.shp6{opacity:.031;fill:#000}.shp8{fill:#fff}.shp9{fill:#d5e0e5}.shp11{fill:#cc7a52}.shp12{opacity:.2;fill:#000}.shp13{opacity:.251;fill:#fff}.shp15{fill:#2e4d5c}.shp17{opacity:.502;fill:#f2f4ff}.shp20{fill:#4af778}.shp23{opacity:.149;fill:#000}</style><g id="Page-1"><g id="health-potion"><g id="background"><g id="color"><path id="Shape" d="M430 188c16 0 29 27.3 29 61s-13 61-29 61a15.05 15.05 0 01-12.9-7.3c-1.7-2.8-4.2-4.7-7.1-4.7-2 .06-3.89.88-5.3 2.3-6.7 6.5-15.9 9.7-25.2 9.7H109c-2.21 0-4-1.79-4-4v-8c0-2.21 1.79-4 4-4h272c5.67-.1 11.06-2.52 14.9-6.7 3-3.2 8.2-5.3 14.1-5.3 1.24 0 2.48.1 3.7.3a20.2 20.2 0 018 3c2.3 1.44 4.04 3.63 4.9 6.2a3.54 3.54 0 003.4 2.5c7.2 0 13-20.2 13-45s-5.8-45-13-45a3.54 3.54 0 00-3.4 2.5c-.89 2.56-2.62 4.74-4.9 6.2-2.41 1.58-5.15 2.6-8 3-1.22.2-2.46.3-3.7.3-5.9 0-11.1-2.1-14.1-5.3-3.84-4.18-9.23-6.6-14.9-6.7H109c-2.21 0-4-1.79-4-4v-8c0-2.21 1.79-4 4-4h270.5c9.3 0 18.6 3.2 25.2 9.7a7.334 7.334 0 005.3 2.3c2.9 0 5.5-1.8 7.1-4.7 2.7-4.55 7.61-7.32 12.9-7.3z" fill="#f2eeeb"/><path id="Shape" d="M430 204c7.2 0 13 20.1 13 45s-5.8 45-13 45a3.54 3.54 0 01-3.4-2.5c-.89-2.56-2.62-4.74-4.9-6.2 3.2-8.2 5.3-21.4 5.3-36.3 0-14.9-2.1-28.1-5.3-36.3 2.3-1.44 4.04-3.63 4.9-6.2a3.446 3.446 0 013.4-2.5z" fill="#f4f8f9"/><path id="Shape" d="M421.6 212.7c3.2 8.2 5.3 21.4 5.3 36.3 0 14.9-2.1 28.1-5.3 36.3-2.41-1.58-5.15-2.6-8-3 1.34-4.34 2.31-8.79 2.9-13.3.3-2.2.6-4.6.8-7 .4-4.1.6-8.5.6-13 0-13.2-1.6-25.1-4.3-33.3 2.86-.38 5.59-1.41 8-3z" fill="#f7f3ed"/><path id="Shape" fill-rule="evenodd" d="M121 227.8V204h260c5.67.1 11.06 2.52 14.9 6.7 3 3.2 8.2 5.3 14.1 5.3 1.24 0 2.48-.1 3.7-.3 2.6 8.2 4.3 20.1 4.3 33.3 0 4.5-.2 8.9-.6 13-.2 2.4-.5 4.8-.8 7a82.79 82.79 0 01-2.9 13.3c-1.22-.2-2.46-.3-3.7-.3-5.9 0-11.1 2.1-14.1 5.3-3.84 4.18-9.23 6.6-14.9 6.7H121v-12.2c0-3.31 2.69-6 6-6-3.31 0-6-2.69-6-6v-30c0-3.31 2.69-6 6-6-3.31 0-6-2.69-6-6zm255.3-1.8h16s-16 0-16-1v-2h-34v2c0 1-16 1-16 1h16v46l17-17 17 17v-46z" fill="#fffdfa"/><path id="Shape" d="M368.3 264l-9-9-17 17v-49h34v49l-8-8z" fill="#ffe2df"/></g><g id="shadows"><path id="Shape" class="shp5" d="M379.4 188c8.46-.12 16.7 2.71 23.3 8v2.1a38.295 38.295 0 00-17.3-4H113c-1.1 0-2 .9-2 2v8h-2c-2.21 0-4-1.79-4-4v-8c0-2.21 1.79-4 4-4h270.4v-.1zM444.3 196.2a15.955 15.955 0 00-9.4-3.2c-2.59.01-5.13.67-7.4 1.9a13.878 13.878 0 00-5.4 5.4c-1.7 2.8-4.2 4.7-7.1 4.7-2-.06-3.89-.88-5.3-2.3-1-.9-2-1.8-3-2.6v-1.5c.73.29 1.51.42 2.3.4 2.9 0 5.5-1.8 7.1-4.7 2.62-4.59 7.52-7.38 12.8-7.3 5.7 0 11 3.4 15.4 9.2z"/><path id="Shape" class="shp6" d="M380.9 204c4.9.05 9.62 1.86 13.3 5.1v2.3c-2.32-.92-4.8-1.4-7.3-1.4H121v-6h259.9zM423.5 219.3c-2.73 1.1-5.65 1.68-8.6 1.7-5.9 0-11.1-2.1-14.1-5.3-1.23-1.29-2.6-2.43-4.1-3.4v-.9c7.28 4.73 16.64 4.8 24 .2l2.8 7.7z"/><path id="Shape" class="shp5" d="M425.2 290.4A21.934 21.934 0 00415 288c-5.9 0-11.1 2.1-14.1 5.3-1.95 2.03-4.25 3.7-6.8 4.9-2.53 1.2-5.3 1.81-8.1 1.8H115c-2.21 0-4 1.79-4 4v6h-2c-2.21 0-4-1.79-4-4v-8c0-2.21 1.79-4 4-4h271c2.8.02 5.57-.59 8.1-1.8a21.3 21.3 0 006.8-4.9c3-3.2 8.2-5.3 14.1-5.3 7.6 0 14 3.5 16.2 8.4zM448 254c0 24.8-5.8 45-13 45a3.641 3.641 0 01-3.4-2.6c-.43-1.29-1.11-2.48-2-3.5 6.9-1.2 12.3-20.9 12.3-44.9 0-16.6-2.6-31.2-6.5-39 7 1 12.6 20.7 12.6 45z"/><path id="Shape" class="shp6" d="M426.6 291.4c-.09-.35-.22-.69-.4-1 1.66.89 3.15 2.08 4.4 3.5-.2 0-.5.1-.7.1-1.55-.04-2.9-1.1-3.3-2.6zM436.5 210h-.5v-.9c.13.32.3.62.5.9z"/><path id="Shape" class="shp5" d="M376.3 223v6h-24c-2.21 0-4 1.79-4 4v33l-6 6v-49h34z"/><path id="Shape" class="shp6" d="M358.3 255l5 5-13.6 13.6c-.57.56-1.42.73-2.16.42-.74-.3-1.23-1.02-1.24-1.82V267l12-12zM381.3 228v44.2c-.01.8-.5 1.52-1.24 1.82-.74.31-1.59.14-2.16-.42l-1.6-1.6v-44h5z"/><path id="Shape" class="shp5" d="M124 233.7l-3 6V210h8v23.7h-5z"/><path id="Rectangle-path" class="shp5" d="M121 239.7h8v54.8h-8v-54.8z"/><path id="Shape" d="M422.1 284.2l3.4 4.9 2.9 4.9 7.6-4.9 6.3-22.9.7-29.7-5.4-23.8-8-9.4-6.1 7.9L427 252l-4.9 32.2z" opacity=".051" fill="#000"/><path id="Shape" class="shp8" d="M167.6 239.7H121l3-6h49.7c-.05 3.33-2.77 6-6.1 6zM161.6 281.7H121l3-6h43.7c-.05 3.33-2.77 6-6.1 6z"/></g><g id="lines"><path id="Shape" class="shp9" d="M379.4 312H109c-3.31 0-6-2.69-6-6v-8c0-3.31 2.69-6 6-6h272c1.1 0 2 .9 2 2s-.9 2-2 2H109c-1.1 0-2 .9-2 2v8c0 1.1.9 2 2 2h270.5c1.1 0 2 .9 2 2a2.093 2.093 0 01-2.1 2zM121 271.8c-1.1 0-2-.9-2-2v-30c0-1.1.9-2 2-2s2 .9 2 2v30c0 1.1-.9 2-2 2z"/><path id="Shape" class="shp9" d="M121 296c-1.1 0-2-.9-2-2v-12.2c0-1.1.9-2 2-2s2 .9 2 2V294c0 1.1-.9 2-2 2zM121 229.8c-1.1 0-2-.9-2-2V204c0-1.1.9-2 2-2s2 .9 2 2v23.8c0 1.1-.9 2-2 2zM430 312c-1.1 0-2-.9-2-2s.9-2 2-2c14.6 0 27-27 27-59s-12.4-59-27-59c-1.1 0-2-.9-2-2s.9-2 2-2c17.4 0 31 27.7 31 63s-13.7 63-31 63z"/><path id="Shape" class="shp9" d="M430 296c-1.1 0-2-.9-2-2s.9-2 2-2c4.6 0 11-16.4 11-43s-6.4-43-11-43c-1.1 0-2-.9-2-2s.9-2 2-2c4.5 0 8.3 5.1 11.1 14.6 2.5 8.7 3.9 20.2 3.9 32.4s-1.4 23.7-3.9 32.4c-2.8 9.5-6.6 14.6-11.1 14.6z"/><path id="Shape" class="shp9" d="M410 218c-6.2 0-12-2.2-15.6-5.9a18.632 18.632 0 00-13.5-6.1H109c-3.31 0-6-2.69-6-6v-8c0-3.31 2.69-6 6-6h270.5c10.4 0 19.9 3.6 26.6 10.3a5.683 5.683 0 003.9 1.7c2.1 0 4-1.3 5.4-3.7 3.06-5.15 8.61-8.3 14.6-8.3 1.1 0 2 .9 2 2s-.9 2-2 2c-4.56-.04-8.8 2.36-11.1 6.3-2.1 3.6-5.3 5.7-8.9 5.7a9.344 9.344 0 01-6.7-2.9c-6-5.9-14.5-9.1-23.8-9.1H109c-1.1 0-2 .9-2 2v8c0 1.1.9 2 2 2h272c6.24.07 12.17 2.71 16.4 7.3 2.8 2.9 7.5 4.7 12.7 4.7 7.1 0 13.3-3.4 14.7-8a5.547 5.547 0 015.3-4c1.1 0 2 .9 2 2s-.9 2-2 2c-.68.02-1.28.46-1.5 1.1-2.1 6.4-9.7 10.9-18.6 10.9zM430 296a5.547 5.547 0 01-5.3-4c-1.4-4.7-7.6-8-14.7-8-5.1 0-9.9 1.8-12.7 4.7a22.642 22.642 0 01-16.4 7.3c-1.1 0-2-.9-2-2s.9-2 2-2c5.15-.08 10.04-2.29 13.5-6.1 3.5-3.7 9.4-5.9 15.6-5.9 9 0 16.6 4.5 18.5 10.9.18.67.81 1.13 1.5 1.1 1.1 0 2 .9 2 2s-.9 2-2 2zM430 312c-5.99 0-11.54-3.15-14.6-8.3-1.4-2.3-3.3-3.7-5.4-3.7-1.48.02-2.88.63-3.9 1.7-6.8 6.6-16.2 10.3-26.6 10.3-1.1 0-2-.9-2-2s.9-2 2-2c9.4 0 17.8-3.2 23.8-9.1a9.525 9.525 0 016.7-2.9c3.5 0 6.8 2.1 8.9 5.7A12.83 12.83 0 00430 308c1.1 0 2 .9 2 2s-.9 2-2 2z"/><path id="Shape" fill-rule="evenodd" class="shp9" d="M376.3 274c-.53-.01-1.03-.22-1.4-.6l-15.6-15.6-15.6 15.6c-.57.56-1.42.73-2.16.42-.74-.3-1.23-1.02-1.24-1.82v-49c0-1.1.9-2 2-2h34c1.1 0 2 .9 2 2v49c-.01.78-.48 1.49-1.2 1.8-.23.17-.52.24-.8.2zm-17-21c.53.01 1.03.22 1.4.6l13.6 13.6V225h-30v42.2l13.6-13.6c.37-.38.87-.59 1.4-.6z"/><path id="Shape" class="shp9" d="M392.3 228h-16c-1.1 0-2-.9-2-2v-1c0-1.1.9-2 2-2 .43-.01.86.13 1.2.4 1.7.4 8.8.6 14.8.6 1.1 0 2 .9 2 2s-.9 2-2 2zM342.3 228h-16c-1.1 0-2-.9-2-2s.9-2 2-2c4.94.05 9.88-.15 14.8-.6.35-.25.77-.39 1.2-.4 1.1 0 2 .9 2 2v1c0 .53-.21 1.04-.59 1.41-.37.38-.88.59-1.41.59zM369.3 266a.94.94 0 01-.73-.27.94.94 0 01-.27-.73v-13c0-.55.45-1 1-1s1 .45 1 1v13c0 .55-.45 1-1 1zM127 235.8c-4.42 0-8-3.58-8-8 0-1.1.9-2 2-2s2 .9 2 2c0 2.21 1.79 4 4 4 1.1 0 2 .9 2 2s-.9 2-2 2z"/><path id="Shape" class="shp9" d="M121 241.8c-1.1 0-2-.9-2-2 0-4.42 3.58-8 8-8h43.7c1.1 0 2 .9 2 2s-.9 2-2 2H127c-2.21 0-4 1.79-4 4 0 1.1-.9 2-2 2zM187.8 235.8h-9.7c-1.1 0-2-.9-2-2s.9-2 2-2h9.7c1.1 0 2 .9 2 2s-.9 2-2 2zM127 277.8c-4.42 0-8-3.58-8-8 0-1.1.9-2 2-2s2 .9 2 2c0 2.21 1.79 4 4 4 1.1 0 2 .9 2 2s-.9 2-2 2z"/><path id="Shape" class="shp9" d="M121 283.8c-1.1 0-2-.9-2-2 0-4.42 3.58-8 8-8h29.7c1.1 0 2 .9 2 2s-.9 2-2 2H127c-2.21 0-4 1.79-4 4 0 1.1-.9 2-2 2zM416.6 271h-17.9c-1.1 0-2-.9-2-2s.9-2 2-2h17.9c1.1 0 2 .9 2 2s-.9 2-2 2zM417.2 262h-10.5c-1.1 0-2-.9-2-2s.9-2 2-2h10.5c1.1 0 2 .9 2 2s-.9 2-2 2zM421.6 287.3c-.24.02-.48-.02-.7-.1a2.004 2.004 0 01-1.1-2.6c3.2-8.2 5.2-21.5 5.2-35.6 0-14.1-1.9-27.3-5.2-35.6-.32-.67-.24-1.46.2-2.06a1.998 1.998 0 013.5.56c3.5 8.8 5.4 22.3 5.4 37s-2 28.2-5.4 37c-.26.83-1.03 1.4-1.9 1.4z"/><path id="Shape" class="shp9" d="M413.7 284.3c-.21.02-.41-.02-.6-.1a1.992 1.992 0 01-1.3-2.5c2.6-8.3 4.2-20.2 4.2-32.7 0-12.5-1.5-24.4-4.2-32.7-.17-.5-.13-1.06.11-1.53.25-.47.68-.82 1.19-.97 1.05-.33 2.17.25 2.5 1.3 2.8 8.7 4.4 21.1 4.4 33.9 0 12.8-1.6 25.2-4.4 33.9-.26.83-1.03 1.4-1.9 1.4z"/></g></g><g id="bung"><g id="color-2"><path id="Shape" fill-rule="evenodd" d="M317 23.7l-6.6 46A12 12 0 01298.5 80h-33.2a12 12 0 01-11.9-10.3l-6.6-46c-.48-3.44.56-6.93 2.84-9.55 2.28-2.63 5.58-4.14 9.06-4.15h35.1c-.17.65-.24 1.33-.2 2 0 4.42 3.58 8 8 8s8-3.58 8-8c.05-.36.05-.74 0-1.1 5.11 2.06 8.17 7.34 7.4 12.8zm-18 42.1c0-2.21-1.79-4-4-4s-4 1.79-4 4 1.79 4 4 4 4-1.79 4-4zm-13.2-39.5c0-2.76-2.24-5-5-5s-5 2.24-5 5 2.24 5 5 5 5-2.24 5-5zm-11.8 16c0-2.21-1.79-4-4-4s-4 1.79-4 4 1.79 4 4 4 4-1.79 4-4z" fill="#e68a5c"/><path id="Oval" class="shp11" d="M295 69.8c-2.21 0-4-1.79-4-4s1.79-4 4-4 4 1.79 4 4-1.79 4-4 4z"/><path id="Shape" class="shp11" d="M280.8 21.3c2.76 0 5 2.24 5 5s-2.24 5-5 5-5-2.24-5-5a5.08 5.08 0 015-5z"/><path id="Oval" class="shp11" d="M270 46.3c-2.21 0-4-1.79-4-4s1.79-4 4-4 4 1.79 4 4-1.79 4-4 4z"/></g><g id="shadows"><path id="Shape" class="shp12" d="M272.3 41c-.4-.2-.85-.31-1.3-.3-.69-.01-1.36.27-1.84.76-.49.48-.77 1.15-.76 1.84-.01.45.1.9.3 1.3a2.65 2.65 0 01-1.3-2.3c-.01-.69.27-1.36.76-1.84.48-.49 1.15-.77 1.84-.76.95-.05 1.85.46 2.3 1.3zM283.8 24.3a3.617 3.617 0 00-4.54.46 3.617 3.617 0 00-.46 4.54 3.406 3.406 0 01-1.6-3c0-.96.38-1.87 1.05-2.55a3.617 3.617 0 015.55.55zM313.2 49l-4.5 25.3-7.4 6.5h-40.2l-7.6-6.6-3-25.2h8L270 60.4 281.4 49h31.8z"/><path id="Shape" class="shp13" d="M296 17h-16v3c-3.17.42-5.55 3.1-5.6 6.3A6.367 6.367 0 00278 32c-.42-.2-.82-.43-1.2-.7.28.38.62.72 1 1l-.1.1a7.784 7.784 0 01-8.49 1.71 7.785 7.785 0 01-4.81-7.21V17h-1.2c-2.31.01-4.5 1.01-6.02 2.76a7.987 7.987 0 00-1.88 6.34l3.3 22.9h-8L247 23.7c-.48-3.44.56-6.93 2.84-9.55 2.28-2.63 5.58-4.14 9.06-4.15h34.6l.6 4.1L296 17z"/><path id="Shape" class="shp12" d="M297.3 64.5c-.4-.2-.85-.31-1.3-.3-.69-.01-1.36.27-1.84.76-.49.48-.77 1.15-.76 1.84-.01.45.1.9.3 1.3a2.65 2.65 0 01-1.3-2.3c-.01-.69.27-1.36.76-1.84.48-.49 1.15-.77 1.84-.76.95-.05 1.85.46 2.3 1.3z"/><path id="Shape" d="M295.4 48c14.1 0 18-21.6 18.6-28.9 2.6 14.1-.6 28.4-.6 28.4l-18 .5z" opacity=".102" fill="#000"/><path id="Shape" class="shp13" d="M297.9 22.2c6.1 4.2 14.2-.8 15.3-5.4 1.1-4.6-3.5-5.2-3.5-5.2l-11.8 10.6z"/></g><g id="lines-2"><path id="Shape" fill-rule="evenodd" class="shp15" d="M320.1 24.1l-6.6 46c-1.04 7.38-7.35 12.87-14.8 12.9h-33.2c-7.45-.05-13.74-5.53-14.8-12.9l-6.6-46c-.59-4.28.69-8.62 3.5-11.9 2.82-3.31 6.95-5.22 11.3-5.2h28.7a9.926 9.926 0 019.4 6.6v.1c.5 1.3 1.4 2.9 3 3a4.811 4.811 0 003.9-3c1.7-3.5 4.2-4.3 5.6-4.5 3-.4 5.7 1.4 7.2 3.2 2.68 3.27 3.91 7.5 3.4 11.7zm-8.2-7.8c-.5-.7-1.5-1.1-1.8-1.1-.3 0-.6.5-.9 1.1a10.663 10.663 0 01-9.6 6.4c-3.8-.1-6.8-2.7-8.4-6.9v-.1a4.093 4.093 0 00-3.8-2.7h-28.7a8.918 8.918 0 00-6.8 3.1 9.02 9.02 0 00-2.1 7.2l6.6 46c.65 4.42 4.43 7.7 8.9 7.7h33.2c4.47 0 8.25-3.28 8.9-7.7l6.6-46c.44-2.53-.33-5.13-2.1-7z"/><path id="Shape" fill-rule="evenodd" class="shp15" d="M287.3 26.3c0 1.72-.68 3.38-1.9 4.6a6.51 6.51 0 01-4.6 1.9 6.5 6.5 0 116.5-6.5zm-6.5 3.5c.93.01 1.82-.36 2.48-1.02.66-.66 1.03-1.55 1.02-2.48 0-1.93-1.57-3.5-3.5-3.5s-3.5 1.57-3.5 3.5 1.57 3.5 3.5 3.5zM270 36.8c3.03.03 5.47 2.47 5.5 5.5 0 3.04-2.46 5.5-5.5 5.5s-5.5-2.46-5.5-5.5 2.46-5.5 5.5-5.5zm0 8c.66.01 1.3-.26 1.77-.73s.74-1.11.73-1.77a2.5 2.5 0 00-5 0 2.5 2.5 0 002.5 2.5zM295 60.3c3.03.03 5.47 2.47 5.5 5.5 0 3.04-2.46 5.5-5.5 5.5s-5.5-2.46-5.5-5.5 2.46-5.5 5.5-5.5zm0 8c.66.01 1.3-.26 1.77-.73s.74-1.11.73-1.77a2.5 2.5 0 00-5 0 2.5 2.5 0 002.5 2.5z"/><path id="Shape" class="shp15" d="M261.1 23c-1.1 0-2 .9-2 2s.9 2 2 2 2-.9 2-2-.9-2-2-2zM295.4 40.4c1.1 0 2-.9 2-2s-.9-2-2-2-2 .9-2 2 .9 2 2 2zM286.8 54.4c-1.1 0-2 .9-2 2s.9 2 2 2 2-.9 2-2-.9-2-2-2zM303.6 30.3c-1.1 0-2 .9-2 2s.9 2 2 2 2-.9 2-2-.9-2-2-2z"/></g></g><g id="bottle"><g id="color-3"><path id="Shape" fill-rule="evenodd" d="M350 200.7V288c.02 5.84-2.3 11.44-6.43 15.57A21.915 21.915 0 01328 310h-92c-12.15 0-22-9.85-22-22v-83.1c4.5-5.3 23.9-9.5 35-9.1 11.3.4 22.2 4.2 33 7.9s21.6 7.3 32.9 7.3c17.8.1 35.1-3.5 35.1-10.3zm-24 47.2c-3.31 0-6 2.69-6 6s2.69 6 6 6 6-2.69 6-6-2.69-6-6-6zm-56.9 5c0-2.21-1.79-4-4-4s-4 1.79-4 4 1.79 4 4 4 4-1.79 4-4zm-17-25.8c-3.31 0-6 2.69-6 6s2.69 6 6 6 6-2.69 6-6-2.69-6-6-6z" fill="url(#grd1)"/><path id="Shape" fill-rule="evenodd" class="shp17" d="M350 200.7c0-4.6-10.4-8-24.1-8-20 0-27.5 6.2-43.9 11.1-10.8-3.7-21.7-7.6-33-7.9-11.1-.4-30.5 3.8-35 9.1v-59c0-22.09 17.91-40 40-40h56c22.08.03 39.97 17.92 40 40v54.7zM254 167c-2.76 0-5 2.24-5 5s2.24 5 5 5 5-2.24 5-5-2.24-5-5-5zm-15.8-13.7c-1.93 0-3.5 1.57-3.5 3.5s1.57 3.5 3.5 3.5c.93.01 1.82-.36 2.48-1.02.66-.66 1.03-1.55 1.02-2.48 0-1.93-1.57-3.5-3.5-3.5z"/><path id="Shape" d="M325.9 192.6c13.7 0 24.1 3.4 24.1 8 0 6.8-17.2 10.4-35.1 10.4-11.3 0-22.1-3.6-32.9-7.3 16.3-4.8 23.8-11.1 43.9-11.1z" fill="url(#grd2)"/><path id="Oval" d="M326 259.9c-3.32 0-6-2.68-6-6s2.68-6 6-6 6 2.68 6 6-2.68 6-6 6z" fill="#4df4a0"/><path id="Shape" class="shp17" d="M326 61v22c0 5.52-4.48 10-10 10h-68c-5.52 0-10-4.48-10-10V61c0-6.63 5.37-12 12-12h8.1L270 60.9 281.9 49H314c6.63 0 12 5.37 12 12zM314 94v12h-64V94h64z"/><path id="Oval" class="shp20" d="M265.1 256.9c-2.21 0-4-1.79-4-4s1.79-4 4-4 4 1.79 4 4-1.79 4-4 4zM254 177c-2.76 0-5-2.24-5-5s2.24-5 5-5 5 2.24 5 5-2.24 5-5 5z"/><path id="Shape" class="shp20" d="M252.1 227.1c3.31 0 6 2.69 6 6s-2.69 6-6 6-6-2.69-6-6 2.69-6 6-6zM238.2 153.3c1.93 0 3.5 1.57 3.5 3.5s-1.57 3.5-3.5 3.5-3.5-1.57-3.5-3.5a3.543 3.543 0 013.5-3.5z"/></g><g id="shadows-2"><path id="Shape" d="M214 275c7.3 27.3 139.3 27 137.8-74.7-3.8 54-2.4 93-2.4 93l-9.5 13.2L326 310h-98l-14.7-16.7.7-18.3z" opacity=".059" fill="#000"/><path id="Shape" d="M318.9 299h-11.5c-6.85 0-12.4-5.55-12.4-12.4V129c.01-6.4 5.2-11.59 11.6-11.6h12.3c13.2 0 23.9 10.7 23.9 23.9v133.8a23.903 23.903 0 01-23.9 23.9z" opacity=".349" fill="url(#grd3)"/><path id="Shape" class="shp13" d="M292.3 210.2c23.2 10.8 48 5.8 56.7.9-1-5.1 0-6.2 0-6.2-18.2 6.3-37.65 8.12-56.7 5.3z"/><path id="Shape" class="shp23" d="M285.8 202.5c36.9-19.8 65.9-2.2 65.9-2.2-22.2 13.9-53.6 17-65.9 2.2z"/><path id="Shape" class="shp13" d="M215.5 210.2c25.5-14.6 51.2-8 70.2-2.2-36.2-23-72.4-3.1-72.4-3.1l2.2 5.3z"/><path id="Shape" class="shp5" d="M242.5 88.7c9.5 4.3 23.2-7 45.5 1.5-27.7 5.1-40.4 5.3-45.5-1.5zM323.6 63.1c-2.7 23.5-6.1 27.9-31.3 27.9 21.6 3 31.3 0 31.3 0l5-13.3-5-14.6z"/><path id="Oval" class="shp5" d="M316.8 147.1c-4.81 0-8.7-3.89-8.7-8.7 0-4.81 3.89-8.7 8.7-8.7 4.81 0 8.7 3.89 8.7 8.7 0 4.81-3.89 8.7-8.7 8.7z"/><path id="Shape" d="M250 276.8c-6.24.01-12.22-2.47-16.63-6.87a23.498 23.498 0 01-6.87-16.63v-106a23.498 23.498 0 016.87-16.63c4.41-4.4 10.39-6.88 16.63-6.87 6.24-.01 12.22 2.47 16.63 6.87 4.4 4.41 6.88 10.39 6.87 16.63v106c-.02 12.97-10.53 23.48-23.5 23.5z" opacity=".949" fill="url(#grd4)"/><path id="Shape" d="M267.9 82.5c-4.22.01-8.27-1.67-11.25-4.65A15.867 15.867 0 01252 66.6V48h6l12 10 13.8-10v18.6c.01 4.22-1.67 8.27-4.65 11.25a15.867 15.867 0 01-11.25 4.65z" opacity=".851" fill="url(#grd5)"/><path id="Shape" d="M316.8 240.9a8.72 8.72 0 01-8.7-8.7v-67.5a8.72 8.72 0 018.7-8.7c4.8.01 8.69 3.9 8.7 8.7v67.5a8.72 8.72 0 01-8.7 8.7z" opacity=".851" fill="url(#grd6)"/><path id="Shape" d="M308 72.2a7.555 7.555 0 01-7.5-7.5V49h15v15.7a7.608 7.608 0 01-7.5 7.5z" opacity=".851" fill="url(#grd7)"/><path id="Shape" d="M335 275c-1.66 0-3-1.34-3-3V156.3c0-1.66 1.34-3 3-3s3 1.34 3 3V272c0 1.66-1.34 3-3 3z" opacity=".851" fill="url(#grd8)"/><path id="Shape" d="M258.8 73.9a4.238 4.238 0 01-4.2-4.2V63a4.238 4.238 0 014.2-4.2c2.31.02 4.18 1.89 4.2 4.2v6.7a4.103 4.103 0 01-4.2 4.2z" opacity=".749" fill="#fff"/><path id="Oval" class="shp5" d="M306.1 69c-1.77 0-3.2-1.43-3.2-3.2 0-1.77 1.43-3.2 3.2-3.2 1.77 0 3.2 1.43 3.2 3.2 0 1.77-1.43 3.2-3.2 3.2z"/><path id="Rectangle-path" class="shp23" d="M250.5 93.9h63.4v12.3h-63.4V93.9z"/><path id="Rectangle-path" class="shp13" d="M261 93.9h22.9v10.8H261V93.9z"/><path id="Shape" class="shp23" d="M238.5 308c23-5.8 68.5-6.2 91.2 1.2-52.5.8-91.2-1.2-91.2-1.2z"/><path id="Shape" d="M326.5 254.8h-89.1c-6.51.01-11.79 5.29-11.8 11.8v11.2c0 11.6 9.4 21 21 21h70.6c11.6 0 21-9.4 21-21v-11.2c.03-3.12-1.18-6.13-3.38-8.35-2.2-2.21-5.2-3.46-8.32-3.45z" opacity=".349" fill="url(#grd9)"/><path id="Shape" class="shp5" d="M241 208.2c-5.35-.01-9.69-4.35-9.7-9.7v-48.2c.01-5.35 4.35-9.69 9.7-9.7 5.35.01 9.69 4.35 9.7 9.7v48.2a9.774 9.774 0 01-9.7 9.7zM230.4 293.3c-2.15 0-3.9-1.75-3.9-3.9v-6.5c0-2.15 1.75-3.9 3.9-3.9s3.9 1.75 3.9 3.9v6.5c0 2.15-1.75 3.9-3.9 3.9z"/><path id="Oval" class="shp5" d="M325.2 255.2a2.5 2.5 0 010-5 2.5 2.5 0 010 5zM251.2 234.8a2.5 2.5 0 010-5 2.5 2.5 0 010 5zM264.6 253.5c-.83 0-1.5-.67-1.5-1.5s.67-1.5 1.5-1.5 1.5.67 1.5 1.5-.67 1.5-1.5 1.5zM253.2 173.4a2.5 2.5 0 010-5 2.5 2.5 0 010 5z"/></g><g id="lines-3"><path id="Shape" fill-rule="evenodd" class="shp15" d="M492 310c0 1.66-1.34 3-3 3H85c-1.66 0-3-1.34-3-3s1.34-3 3-3h134.8a24.844 24.844 0 01-8.8-19V146c.05-21.02 15.26-38.94 36-42.4V96c-6.75-.52-11.97-6.13-12-12.9v-22c0-8.28 6.72-15 15-15h8.1c.79 0 1.55.32 2.1.9l9.8 9.8 9.8-9.8c.53-.59 1.3-.92 2.1-.9H314c8.28 0 15 6.72 15 15v22c-.03 6.77-5.25 12.38-12 12.9v7.6c20.76 3.42 35.99 21.36 36 42.4v142c.01 7.32-3.21 14.27-8.8 19H489c1.66 0 3 1.34 3 3zM254 109c-20.43 0-37 16.57-37 37v53.3c8.5-4.2 23.2-6.7 32.1-6.4 11.4.4 22.3 4.2 32.9 7.8 4.4-1.4 8.2-2.8 11.8-4.2 9-3.5 17.5-6.8 32.1-6.8 10 0 16.8 1.5 21.1 3.6V146c0-20.43-16.57-37-37-37h-56zm71.9 86.7c-13.4 0-21.1 3-29.9 6.4-1.5.5-3 1.1-4.6 1.7 7.8 2.4 15.5 4.3 23.5 4.3 21.4 0 32.1-4.7 32.1-7.4 0-1.2-6.6-5.1-21.1-5zM217 288c0 10.49 8.51 19 19 19h92c10.49 0 19-8.51 19-19v-79.3c-9.5 5.1-27.5 5.4-32.1 5.4-12.1 0-23.6-4-34.8-7.8-10.6-3.7-20.6-7.2-31.2-7.5-10.6-.3-27.2 3.6-31.9 7.4V288zm24-205a6.9 6.9 0 002 4.93 6.905 6.905 0 004.9 2.07h68c3.87 0 7-3.13 7-7V61a9 9 0 00-7.5-8.9v8.6c0 .83-.67 1.5-1.5 1.5s-1.5-.67-1.5-1.5V52h-3v6.7c0 .83-.67 1.5-1.5 1.5s-1.5-.67-1.5-1.5V52H283l-10.1 10.1v6.4c0 1.66-1.34 3-3 3s-3-1.34-3-3v-6.4L256.8 52H250a9 9 0 00-9 9v22zm70 20v-6h-58v6h58z"/><path id="Shape" class="shp15" d="M501 307c-1.66 0-3 1.34-3 3s1.34 3 3 3 3-1.34 3-3-1.34-3-3-3zM73 307H63c-1.66 0-3 1.34-3 3s1.34 3 3 3h10c1.66 0 3-1.34 3-3s-1.34-3-3-3z"/><path id="Shape" fill-rule="evenodd" class="shp15" d="M252.1 240.7a7.555 7.555 0 01-7.5-7.5c0-4.14 3.36-7.5 7.5-7.5 4.14 0 7.5 3.36 7.5 7.5 0 4.14-3.36 7.5-7.5 7.5zm0-12c-1.2-.01-2.34.47-3.19 1.31-.84.85-1.32 1.99-1.31 3.19 0 2.49 2.01 4.5 4.5 4.5s4.5-2.01 4.5-4.5-2.01-4.5-4.5-4.5zM326 261.4a7.555 7.555 0 01-7.5-7.5c0-4.14 3.36-7.5 7.5-7.5 4.14 0 7.5 3.36 7.5 7.5 0 4.14-3.36 7.5-7.5 7.5zm0-12c-1.2-.01-2.34.47-3.19 1.31-.84.85-1.32 1.99-1.31 3.19 0 2.49 2.01 4.5 4.5 4.5s4.5-2.01 4.5-4.5-2.01-4.5-4.5-4.5zM265.1 258.4a5.42 5.42 0 01-3.89-1.61 5.42 5.42 0 01-1.61-3.89c0-3.04 2.46-5.5 5.5-5.5s5.5 2.46 5.5 5.5-2.46 5.5-5.5 5.5zm0-8c-.66-.01-1.3.26-1.77.73s-.74 1.11-.73 1.77a2.5 2.5 0 005 0 2.5 2.5 0 00-2.5-2.5zM233.2 156.8c0-2.76 2.24-5 5-5s5 2.24 5 5-2.24 5-5 5-5-2.24-5-5zm3 0c0 1.1.9 2 2 2s2-.9 2-2-.9-2-2-2-2 .9-2 2zM249.4 176.6a6.51 6.51 0 01-1.9-4.6 6.5 6.5 0 116.5 6.5 6.51 6.51 0 01-4.6-1.9zm4.6-8.1c-.93-.01-1.82.36-2.48 1.02-.66.66-1.03 1.55-1.02 2.48 0 1.93 1.57 3.5 3.5 3.5s3.5-1.57 3.5-3.5-1.57-3.5-3.5-3.5z"/><path id="Shape" class="shp15" d="M247.9 284.7c-1.66 0-3 1.34-3 3s1.34 3 3 3 3-1.34 3-3-1.34-3-3-3zM295.8 270.2c-1.66 0-3 1.34-3 3s1.34 3 3 3 3-1.34 3-3-1.34-3-3-3zM294.5 226.8c1.66 0 3-1.34 3-3s-1.34-3-3-3-3 1.34-3 3 1.34 3 3 3zM330 177c1.66 0 3-1.34 3-3s-1.34-3-3-3-3 1.34-3 3 1.34 3 3 3zM226 237.8c.82-.02 1.48-.68 1.5-1.5V231c0-.83-.67-1.5-1.5-1.5s-1.5.67-1.5 1.5v5.3c-.02.4.13.8.41 1.09.29.28.69.43 1.09.41zM226 276.5c.82-.02 1.48-.68 1.5-1.5v-32.9c0-.83-.67-1.5-1.5-1.5s-1.5.67-1.5 1.5V275a1.471 1.471 0 001.5 1.5zM279.7 149.4c.82-.02 1.48-.68 1.5-1.5v-28.1c0-.83-.67-1.5-1.5-1.5s-1.5.67-1.5 1.5v28.1a1.471 1.471 0 001.5 1.5zM285.7 155.8c.82-.02 1.48-.68 1.5-1.5v-28.1c0-.83-.67-1.5-1.5-1.5s-1.5.67-1.5 1.5v28.1c.02.82.68 1.48 1.5 1.5zM317.1 178.8c.82-.02 1.48-.68 1.5-1.5v-20.1c0-.83-.67-1.5-1.5-1.5s-1.5.67-1.5 1.5v20.1a1.471 1.471 0 001.5 1.5zM317.1 153.4c.82-.02 1.48-.68 1.5-1.5v-3.4c0-.83-.67-1.5-1.5-1.5s-1.5.67-1.5 1.5v3.4c-.02.4.13.8.41 1.09.29.28.69.43 1.09.41z"/></g><g id="lights"><path id="Oval" d="M256 110.3c-27.65 0-50-22.35-50-50s22.35-50 50-50 50 22.35 50 50-22.35 50-50 50z" fill="url(#grd10)"/><path id="Oval" d="M238 229.3c-44.24 0-80-35.76-80-80s35.76-80 80-80 80 35.76 80 80-35.76 80-80 80z" fill="url(#grd11)"/></g></g></g></g></svg>