<svg width="469" height="313" xmlns="http://www.w3.org/2000/svg"><defs><linearGradient x1="55.251%" y1="-83.049%" x2="47.01%" y2="100.812%" id="a"><stop stop-color="#FF5983" offset="0%"/><stop stop-color="#A736F7" offset="100%"/></linearGradient><linearGradient x1="0%" y1="0%" x2="102%" y2="101%" id="b"><stop stop-color="#9D45D2" offset="0%"/><stop stop-color="#CB44C7" offset="100%"/></linearGradient><linearGradient x1="-.024%" y1="50.01%" x2="100%" y2="50.01%" id="c"><stop stop-color="#FFF" stop-opacity=".8" offset="0%"/><stop stop-color="#B0B0B0" stop-opacity=".25" offset="88%"/><stop stop-color="#FFF" stop-opacity="0" offset="100%"/></linearGradient><linearGradient x1="45316%" y1="36761%" x2="45577%" y2="36761%" id="d"><stop stop-color="#FFF" stop-opacity=".8" offset="0%"/><stop stop-color="#B0B0B0" stop-opacity=".25" offset="88%"/><stop stop-color="#FFF" stop-opacity="0" offset="100%"/></linearGradient><linearGradient x1="0%" y1="50.019%" x2="100%" y2="50.019%" id="e"><stop stop-color="#FFF" stop-opacity=".8" offset="0%"/><stop stop-color="#959595" stop-opacity=".33" offset="86%"/><stop stop-color="#FFF" stop-opacity="0" offset="100%"/></linearGradient><linearGradient x1="3495.712%" y1="30998%" x2="3009.61%" y2="24577%" id="f"><stop stop-color="#FFF" stop-opacity=".8" offset="0%"/><stop stop-color="#959595" stop-opacity=".33" offset="86%"/><stop stop-color="#FFF" stop-opacity="0" offset="100%"/></linearGradient><linearGradient x1="49.748%" y1="-231.257%" x2="50.238%" y2="346.939%" id="h"><stop stop-color="#FFF" stop-opacity=".8" offset="0%"/><stop stop-color="#FFF" stop-opacity=".74" offset="12%"/><stop stop-color="#FFF" stop-opacity=".57" offset="35%"/><stop stop-color="#FFF" stop-opacity=".3" offset="67%"/><stop stop-color="#FFF" stop-opacity="0" offset="100%"/></linearGradient><linearGradient x1="140.581%" y1="45.106%" x2="-41.805%" y2="54.863%" id="i"><stop stop-color="#FFF" stop-opacity=".8" offset="0%"/><stop stop-color="#DADADA" stop-opacity=".12" offset="93%"/><stop stop-color="#FFF" stop-opacity="0" offset="100%"/></linearGradient><linearGradient x1="1293.975%" y1="19130%" x2="1278.393%" y2="19996%" id="j"><stop stop-color="#FFF" stop-opacity=".6" offset="0%"/><stop stop-color="#FFF" stop-opacity=".59" offset="21%"/><stop stop-color="#FFF" stop-opacity=".55" offset="37%"/><stop stop-color="#FFF" stop-opacity=".48" offset="51%"/><stop stop-color="#FFF" stop-opacity=".39" offset="65%"/><stop stop-color="#FFF" stop-opacity=".28" offset="78%"/><stop stop-color="#FFF" stop-opacity=".13" offset="90%"/><stop stop-color="#FFF" stop-opacity="0" offset="100%"/></linearGradient><linearGradient x1="32752%" y1="38433%" x2="41039%" y2="38433%" id="k"><stop stop-color="#FFF" stop-opacity=".6" offset="0%"/><stop stop-color="#FFF" stop-opacity=".59" offset="21%"/><stop stop-color="#FFF" stop-opacity=".55" offset="37%"/><stop stop-color="#FFF" stop-opacity=".48" offset="51%"/><stop stop-color="#FFF" stop-opacity=".39" offset="65%"/><stop stop-color="#FFF" stop-opacity=".28" offset="78%"/><stop stop-color="#FFF" stop-opacity=".13" offset="90%"/><stop stop-color="#FFF" stop-opacity="0" offset="100%"/></linearGradient><linearGradient x1="34138%" y1="39267%" x2="37783%" y2="39267%" id="l"><stop stop-color="#FFF" stop-opacity=".6" offset="0%"/><stop stop-color="#FFF" stop-opacity=".59" offset="21%"/><stop stop-color="#FFF" stop-opacity=".55" offset="37%"/><stop stop-color="#FFF" stop-opacity=".48" offset="51%"/><stop stop-color="#FFF" stop-opacity=".39" offset="65%"/><stop stop-color="#FFF" stop-opacity=".28" offset="78%"/><stop stop-color="#FFF" stop-opacity=".13" offset="90%"/><stop stop-color="#FFF" stop-opacity="0" offset="100%"/></linearGradient><linearGradient x1="38423%" y1="16334%" x2="40501%" y2="16334%" id="m"><stop stop-color="#FFF" stop-opacity=".6" offset="0%"/><stop stop-color="#FFF" stop-opacity=".59" offset="21%"/><stop stop-color="#FFF" stop-opacity=".55" offset="37%"/><stop stop-color="#FFF" stop-opacity=".48" offset="51%"/><stop stop-color="#FFF" stop-opacity=".39" offset="65%"/><stop stop-color="#FFF" stop-opacity=".28" offset="78%"/><stop stop-color="#FFF" stop-opacity=".13" offset="90%"/><stop stop-color="#FFF" stop-opacity="0" offset="100%"/></linearGradient><linearGradient x1="36322%" y1="30407%" x2="43083%" y2="30407%" id="n"><stop stop-color="#FFF" stop-opacity=".6" offset="0%"/><stop stop-color="#FFF" stop-opacity=".59" offset="21%"/><stop stop-color="#FFF" stop-opacity=".55" offset="37%"/><stop stop-color="#FFF" stop-opacity=".48" offset="51%"/><stop stop-color="#FFF" stop-opacity=".39" offset="65%"/><stop stop-color="#FFF" stop-opacity=".28" offset="78%"/><stop stop-color="#FFF" stop-opacity=".13" offset="90%"/><stop stop-color="#FFF" stop-opacity="0" offset="100%"/></linearGradient><linearGradient x1="20343%" y1="5141.565%" x2="27248%" y2="4286.393%" id="o"><stop stop-color="#FFF" stop-opacity=".6" offset="0%"/><stop stop-color="#FFF" stop-opacity=".59" offset="21%"/><stop stop-color="#FFF" stop-opacity=".55" offset="37%"/><stop stop-color="#FFF" stop-opacity=".48" offset="51%"/><stop stop-color="#FFF" stop-opacity=".39" offset="65%"/><stop stop-color="#FFF" stop-opacity=".28" offset="78%"/><stop stop-color="#FFF" stop-opacity=".13" offset="90%"/><stop stop-color="#FFF" stop-opacity="0" offset="100%"/></linearGradient><linearGradient x1="25719%" y1="26568%" x2="28825%" y2="26568%" id="q"><stop stop-color="#FFF" stop-opacity=".6" offset="0%"/><stop stop-color="#FFF" stop-opacity=".59" offset="21%"/><stop stop-color="#FFF" stop-opacity=".55" offset="37%"/><stop stop-color="#FFF" stop-opacity=".48" offset="51%"/><stop stop-color="#FFF" stop-opacity=".39" offset="65%"/><stop stop-color="#FFF" stop-opacity=".28" offset="78%"/><stop stop-color="#FFF" stop-opacity=".13" offset="90%"/><stop stop-color="#FFF" stop-opacity="0" offset="100%"/></linearGradient><linearGradient x1="18633%" y1="17566%" x2="16667%" y2="17566%" id="r"><stop stop-color="#FFF" stop-opacity=".6" offset="0%"/><stop stop-color="#FFF" stop-opacity=".59" offset="21%"/><stop stop-color="#FFF" stop-opacity=".55" offset="37%"/><stop stop-color="#FFF" stop-opacity=".48" offset="51%"/><stop stop-color="#FFF" stop-opacity=".39" offset="65%"/><stop stop-color="#FFF" stop-opacity=".28" offset="78%"/><stop stop-color="#FFF" stop-opacity=".13" offset="90%"/><stop stop-color="#FFF" stop-opacity="0" offset="100%"/></linearGradient><linearGradient x1="20919%" y1="9299.02%" x2="26458%" y2="8193.411%" id="s"><stop stop-color="#FFF" stop-opacity=".6" offset="0%"/><stop stop-color="#FFF" stop-opacity=".59" offset="21%"/><stop stop-color="#FFF" stop-opacity=".55" offset="37%"/><stop stop-color="#FFF" stop-opacity=".48" offset="51%"/><stop stop-color="#FFF" stop-opacity=".39" offset="65%"/><stop stop-color="#FFF" stop-opacity=".28" offset="78%"/><stop stop-color="#FFF" stop-opacity=".13" offset="90%"/><stop stop-color="#FFF" stop-opacity="0" offset="100%"/></linearGradient><linearGradient x1="42674%" y1="38408%" x2="46938%" y2="38408%" id="t"><stop stop-color="#FFF" stop-opacity=".6" offset="0%"/><stop stop-color="#FFF" stop-opacity=".59" offset="21%"/><stop stop-color="#FFF" stop-opacity=".55" offset="37%"/><stop stop-color="#FFF" stop-opacity=".48" offset="51%"/><stop stop-color="#FFF" stop-opacity=".39" offset="65%"/><stop stop-color="#FFF" stop-opacity=".28" offset="78%"/><stop stop-color="#FFF" stop-opacity=".13" offset="90%"/><stop stop-color="#FFF" stop-opacity="0" offset="100%"/></linearGradient><linearGradient x1="25512%" y1="12831%" x2="30900%" y2="12831%" id="v"><stop stop-color="#FFF" stop-opacity=".6" offset="0%"/><stop stop-color="#FFF" stop-opacity=".59" offset="21%"/><stop stop-color="#FFF" stop-opacity=".55" offset="37%"/><stop stop-color="#FFF" stop-opacity=".48" offset="51%"/><stop stop-color="#FFF" stop-opacity=".39" offset="65%"/><stop stop-color="#FFF" stop-opacity=".28" offset="78%"/><stop stop-color="#FFF" stop-opacity=".13" offset="90%"/><stop stop-color="#FFF" stop-opacity="0" offset="100%"/></linearGradient><linearGradient x1="31858%" y1="35316.622%" x2="49525%" y2="52127.795%" id="z"><stop stop-color="#FFF" stop-opacity=".6" offset="0%"/><stop stop-color="#FFF" stop-opacity=".59" offset="21%"/><stop stop-color="#FFF" stop-opacity=".55" offset="37%"/><stop stop-color="#FFF" stop-opacity=".48" offset="51%"/><stop stop-color="#FFF" stop-opacity=".39" offset="65%"/><stop stop-color="#FFF" stop-opacity=".28" offset="78%"/><stop stop-color="#FFF" stop-opacity=".13" offset="90%"/><stop stop-color="#FFF" stop-opacity="0" offset="100%"/></linearGradient><radialGradient cx="100%" cy="100.108%" fx="100%" fy="100.108%" r="35.714%" gradientTransform="matrix(.14179 0 0 1 .858 0)" id="g"><stop stop-color="#FFF" stop-opacity=".1" offset="0%"/><stop stop-color="#FFF" stop-opacity=".08" offset="39%"/><stop stop-color="#FFF" stop-opacity=".04" offset="80%"/><stop stop-color="#FFF" stop-opacity="0" offset="100%"/></radialGradient><radialGradient cx="19696.25%" cy="14008.5%" fx="19696.25%" fy="14008.5%" r="3354%" id="p"><stop stop-color="#FFF" stop-opacity=".1" offset="0%"/><stop stop-color="#FFF" stop-opacity=".08" offset="39%"/><stop stop-color="#FFF" stop-opacity=".04" offset="80%"/><stop stop-color="#FFF" stop-opacity="0" offset="100%"/></radialGradient><radialGradient cx="20045.3%" cy="5116.5%" fx="20045.3%" fy="5116.5%" r="2567%" id="u"><stop stop-color="#FFF" stop-opacity=".1" offset="0%"/><stop stop-color="#FFF" stop-opacity=".08" offset="39%"/><stop stop-color="#FFF" stop-opacity=".04" offset="80%"/><stop stop-color="#FFF" stop-opacity="0" offset="100%"/></radialGradient><radialGradient cx="50%" cy="50%" fx="50%" fy="50%" r="50%" id="w"><stop stop-color="#FFF" stop-opacity=".6" offset="0%"/><stop stop-color="#FFF" stop-opacity="0" offset="100%"/></radialGradient><radialGradient cx="20176%" cy="15362%" fx="20176%" fy="15362%" r="1052%" id="x"><stop stop-color="#FFF" stop-opacity=".6" offset="0%"/><stop stop-color="#FFF" stop-opacity="0" offset="100%"/></radialGradient><radialGradient cx="20725%" cy="5322%" fx="20725%" fy="5322%" r="1052%" id="y"><stop stop-color="#FFF" stop-opacity=".6" offset="0%"/><stop stop-color="#FFF" stop-opacity="0" offset="100%"/></radialGradient></defs><g fill-rule="nonzero" fill="none"><g transform="translate(24 106)"><path d="M415.56 30.56c5.829 5.833 5.829 15.287 0 21.12L381.34 85.9H339.1l55.34-55.34c5.833-5.829 15.287-5.829 21.12 0z" fill="#F9F7F2"/><path d="M367.56 186.88v8.24a7.8 7.8 0 01-7.81 7.81h-72.61a7.81 7.81 0 01-7.81-7.81v-8.24h88.23z" fill="#F2EFEC"/><path d="M335.72 1.79c3.11 2.51 2.1 8.95-2.28 14.38-4.38 5.43-10.44 7.79-13.56 5.28-3.12-2.51-2.1-8.95 2.28-14.38 4.38-5.43 10.44-7.82 13.56-5.28zM325.25 43.55c2.66 1 3.36 5.64 1.55 10.28-1.81 4.64-5.43 7.56-8.09 6.53-2.66-1.03-3.37-5.64-1.56-10.28s5.43-7.57 8.1-6.53zM301.84 18.43c.54 4.95-1.34 9.21-4.18 9.52-2.84.31-5.58-3.46-6.12-8.41s1.35-9.22 4.19-9.52c2.84-.3 5.58 3.46 6.11 8.41zM284.17 61.79a28.4 28.4 0 0110.2 24.11h-7.8c-4.01-11.28-2.4-24.11-2.4-24.11z" fill="#F2FFED"/><path d="M282.08 31.58a3.8 3.8 0 11-3.79 3.79 3.79 3.79 0 013.79-3.79zM271.63 44.97a3.8 3.8 0 11.02 7.6 3.8 3.8 0 01-.02-7.6zM271 66.27a3.8 3.8 0 110 7.6 3.8 3.8 0 010-7.6z" fill="#FFFDE9"/><path d="M255.1 53.66c-1 8.89-1.26 23.63 6.75 32.24H250c-4.69-10.69-.39-24.6 3.06-32.79a1.07 1.07 0 012.04.55z" fill="#F2FFED"/><path d="M176.64 190.97c.001 6.415-5.136 11.65-11.55 11.77-18.14.34-46.18-.6-66.09-14.19a53.7 53.7 0 01-7.68-6.33l11.85-14.86a58.2 58.2 0 0022.37 10.9c10.12 2.57 22.51 3.26 37.74 1.06a12.08 12.08 0 011.68-.12c6.47.039 11.691 5.3 11.68 11.77z" fill="#FFFBF3"/><path d="M157.32 135.06c4.535 4.534 4.601 11.864.15 16.48-7.9 8.23-18.94 18.85-31.93 26.72a58.2 58.2 0 01-22.37-10.9l.81-1c11.47-4.75 23.6-14 35.65-30.07a11.58 11.58 0 019.36-4.67 11.72 11.72 0 018.33 3.44z" fill="#FFFBF3"/><path d="M104 166.35l-.81 1-11.85 14.86-3.51 4.4c-1.55 1.94-5 1.47-7-.95l-4.56-5.56-1.58-1.92-.15-.53c1.74-2 3.54-4.18 5.36-6.39 2.38-2.88 4.78-5.88 7.12-8.86 1.18-1.51 2.35-3 3.48-4.5 1.36-1.78 2.68-3.54 3.94-5.24l9.09 4.53c2.8 1.4 4 4.7 2.5 6.64l-2.03 2.52z" fill="#FFFBF3"/><path d="M68.21 184.68a10.86 10.86 0 01-9.08 2.81 10.7 10.7 0 01-5.31-2.37 10.58 10.58 0 01-2.21-2.48l-18.81-29-11.16-17.24a17.4 17.4 0 0120.56-25.81l21.8 7.9a5.7 5.7 0 1010 3.8 1 1 0 000-.18l20.1 7.33a10.89 10.89 0 016.64 13.62.79.79 0 01-1.41.22c-1.17-1.67-4-4.23-10.21-4a1.43 1.43 0 00-.74 2.62c2.9 1.9 6.42 5.18 6.66 10l-.56.76c-1.26 1.7-2.58 3.46-3.94 5.24-1.13 1.49-2.3 3-3.48 4.5l-.08-.06a5.69 5.69 0 00-4.31-1.94 5.77 5.77 0 00-2.77 10.83c-1.82 2.21-3.62 4.36-5.36 6.39a2.09 2.09 0 01-.14.17 285.82 285.82 0 01-5.5 6.22c-.24.247-.47.47-.69.67zm8-40.43a3.8 3.8 0 10-3.79 3.8 3.79 3.79 0 003.8-3.8h-.01zm-13.85 23.11a5.71 5.71 0 10-5.7 5.7 5.7 5.7 0 005.71-5.7h-.01zm-13.59-21.2a3.8 3.8 0 10-3.8 3.8 3.8 3.8 0 003.81-3.8h-.01zm-3.8-19.2a5.7 5.7 0 10-5.7 5.71 5.7 5.7 0 005.73-5.71h-.03z" fill="#FAECEB"/><path d="M99 188.55a53.15 53.15 0 01-8.2.66h-.37l.89-6.93a53.7 53.7 0 007.68 6.27z" fill="#FFFBF3"/><path d="M86.88 162.35l.08.06c-2.34 3-4.74 6-7.12 8.86a5.77 5.77 0 012.77-10.83 5.69 5.69 0 014.27 1.91z" fill="#FFF"/><path d="M76.22 180.12l4.56 5.56c2 2.42 5.48 2.89 7 .95l3.51-4.4-.89 6.93-.41 3.18a2.56 2.56 0 01-3.26 2.12l-8.59-2.53a10.24 10.24 0 00-.31-2.24c-.46-1.84-1-3.85-1.6-5.93l-1.6-5.56 1.59 1.92z" fill="#FFFBF3"/><path d="M72.43 140.46a3.8 3.8 0 11-3.8 3.79 3.79 3.79 0 013.8-3.79z" fill="#FFF"/><path d="M74.64 178.2l1.6 5.56c.6 2.08 1.14 4.09 1.6 5.93a10.21 10.21 0 01-9.9 12.72l-42.72-.22a5.7 5.7 0 10-9.94-3.8 5.59 5.59 0 001.43 3.76h-.18a16.2 16.2 0 01-9.46-3.13 16 16 0 01-5.86-8 16.25 16.25 0 015.71-18.07l9.89-7.38A8.234 8.234 0 1030 155.71l2.82-2.11 18.81 29a10.58 10.58 0 002.21 2.48 5.7 5.7 0 106.37 5.66 5.62 5.62 0 00-1.06-3.29 10.86 10.86 0 009.08-2.81c.22-.2.43-.41.63-.63 1.72-1.88 3.56-4 5.5-6.22l.29.36-.01.05zm-33.48 1.92a3.79 3.79 0 10-7.58 0 3.79 3.79 0 007.58 0zm-25.77 2a4.48 4.48 0 10-1.298 3.154 4.48 4.48 0 001.298-3.194v.04z" fill="#FAECEB"/><path d="M74.63 178.19l-.29-.36c.05-.054.096-.11.14-.17l.15.53z" fill="#F0E3FF"/><path d="M73.9 122.11a1 1 0 010 .18 5.7 5.7 0 11-10-3.8l10 3.62z" fill="#FFF"/><ellipse fill="#FFF" cx="56.67" cy="167.36" rx="5.71" ry="5.7"/><path d="M59.13 187.49a5.62 5.62 0 011.06 3.29 5.71 5.71 0 11-6.37-5.66 10.7 10.7 0 005.31 2.37zM45 142.37a3.8 3.8 0 11.02 7.6 3.8 3.8 0 01-.02-7.6z" fill="#FFF"/><circle fill="#FFF" cx="39.28" cy="126.96" r="5.7"/><path d="M37.37 176.32a3.8 3.8 0 11-3.79 3.8 3.79 3.79 0 013.79-3.8zM30 155.71a8.22 8.22 0 11-13.17 9.81L30 155.71zM26.69 198.38a5.66 5.66 0 01-1.47 3.8h-8.51a5.59 5.59 0 01-1.43-3.76 5.71 5.71 0 0111.41 0v-.04zM10.91 177.61a4.48 4.48 0 110 8.96 4.48 4.48 0 010-8.96z" fill="#FFF"/><path d="M367.57 186.88h-88.24v.13a93.12 93.12 0 01-49-82v-1.25c.131-9.879 8.18-17.816 18.06-17.81h150.13c9.848-.034 17.896 7.853 18.06 17.7v3.64a93.37 93.37 0 01-49.01 79.59z" fill="#F2EFEC"/></g><g transform="translate(25 106)"><path d="M103.88 167.36l7.5 6 13.72 4.61 30.66-24.33c-5.75 6.81-31.12 17.64-35.93 2.6l-15.95 11.12z" fill="#D5E0E5" opacity=".2"/><path d="M147.29 151.15c-5.84 5.84-13.94 7.22-18.08 3.08a7.77 7.77 0 01-1.93-3.21 7.93 7.93 0 01-.28-1.23l14.27-16.45 8.07-1.16c.36.258.694.55 1 .87a7.76 7.76 0 011.91 3.17c1.46 4.38-.38 10.35-4.96 14.93z" fill="#FFF" opacity=".8"/><path d="M109.24 171.62a10.48 10.48 0 005.28 15.73c11.86 4.11 30.37 8.43 47 3.32l8.16 11.74H128.5l-14.5-5.93-18.55-9.79-4.65-5 11.39-14.29 7.05 4.22z" fill="#D5E0E5" opacity=".2"/><path d="M24 113.63c-4.5 5.61 0 13.33 0 13.33l16.57 26.29a25.23 25.23 0 0039.17 4.44l.32-.32a18 18 0 004.87-14.9l-.26-2 6.12 4.4 2.61 7.81-28 33.36-7.3 1.46-7.1-2.82-33.15-53.07 1.3-11.28 4.85-6.7z" fill="#D5E0E5" opacity=".25"/><path d="M17.18 187.54l4-4.41A18.94 18.94 0 0023 160.19L4.1 174.53l.42.51A9 9 0 1016 188.88a9 9 0 001.18-1.34z" fill="#FFF" opacity=".42"/><path d="M26.9 157.25l11.64 19.41a12 12 0 01-2.84 15.63 19.66 19.66 0 01-10.17 4.24c-7.72.79-16-.64-24.93-4.48l9.3 10.36h57l8.28-4.22 1.93-6.26L72 178.19l-8.67 8.84-8.62-.64-4.21-3.36-19.68-29.44-3.92 2.76v.9zM96.71 154.32l-.87 1.55a5.3 5.3 0 001.77 7.06l4.56 2.91-2.67 3.46-12.56-6.8-4.56 4.86 1.55 1.41a13.72 13.72 0 013.52 15.29c-.46 1.14-1 2.28-1.57 3.43l4.9-4.82 6.78 5.58-8.93 1.61-1.69 4.7-9.79-2.63-3.51-13.73 8.74-11.28 10.49-14.25 3.84 1.65z" fill="#D5E0E5" opacity=".25"/><path d="M118.78 176.52a8.43 8.43 0 006 10.21c5.92 1.55 15.4 2.74 29 .83a6 6 0 004.87-7.78l-19.79.66-20.08-3.92z" fill="#FFF" opacity=".8"/><path d="M96.63 130.61l-7.2-2.62.19.19-12.27-4.21.15-.29c.08-.17.14-.28.19-.36v-.08l-18.61-6.5-13.76-5.18-12.75-2.06-5.68 2.73V113.89a26.58 26.58 0 0041.95 20.06 16.73 16.73 0 0115-2.45l6.62 2.2a6.17 6.17 0 014.25 6.7v.06l4.86 2.6.45-4.7-3.39-7.75z" fill="#FFF" opacity=".42"/><circle fill="#FFF" opacity=".8" cx="401.23" cy="34.79" r="9.06"/><rect fill="#FFF" opacity=".8" transform="rotate(-45 377.984 57.695)" x="359.824" y="49.435" width="36.32" height="16.52" rx="8.26"/><path d="M413.68 30.14a27.46 27.46 0 01-1.88 11.65 16.06 16.06 0 01-3.54 5.17l-22.59 22.33a34.6 34.6 0 01-24.32 10h-17l-6.09 6.09 41.69.55 34.6-34.61 3.9-8.55-.29-5-4.48-7.63z" fill="#D5E0E5" opacity=".25"/><path d="M410.54 93.98a7.49 7.49 0 00-7.49-7.49H240.49a7.49 7.49 0 00-7.49 7.49h10.73c7.331.022 13.265 5.969 13.27 13.3v20.29a21.62 21.62 0 0021.62 21.62c11.94 0 21.62-9.68 21.62-21.62v-20.29c0-7.35 5.96-13.31 13.31-13.31l96.99.01z" fill="#FFF" opacity=".35"/><path fill="#D5E0E5" opacity=".35" d="M278.33 187.01h88.23v8.16h-88.23z"/><path d="M412 93.15c-1.26 11.27-7.06 21.88-14.64 31.26-19.82 24.52-50 38.31-81.54 38.31h-66.45l12.91 13.34 16 11h88.23l15.29-10.49 14.83-15.5 12-20.94 4.75-18.89 2.14-14V99.9L412 93.15z" fill="#D5E0E5" opacity=".25"/><path d="M318.88 21.42S331.63 8.53 333.25.76l3.19 4.3-2.07 4.95-3.89 10-8.16 2.74-3.44-1.33zM290.45 21.86s7.25 1.48 8.78-8.7l1.61 5.27-1 7-2.67 2.58-4-1.78-2.72-4.37zM323.57 42.43s-3.15 14.95-5.86 19.35l4.74-2.89 4-7.24v-5.43l-2.88-3.79zM252.5 54.13s-5.18 25 1.41 31.77l6.46-.55-2.8-4.09-3.68-13-1.39-14.13zM284 61.79s6.07 17.14 6.45 24.11h2.92l-.27-6.64-3.61-10.06-5.49-7.41z" fill="#D5E0E5" opacity=".35"/></g><g fill="#D8E1E5"><path d="M422.52 189.9h-12.35L441 159.09a16.953 16.953 0 00-24-23.95l-54.75 54.76h-20.33a50.37 50.37 0 007.49-7.72 20.48 20.48 0 003.48.31c7.61 0 11-4.74 11.14-5a2 2 0 10-3.28-2.29c-.12.17-2.64 3.52-8.62 3.23a74.06 74.06 0 004.6-7.78A21.59 21.59 0 00372.85 158a2 2 0 00-3.74-1.42 17.74 17.74 0 01-10.11 9.36 106.26 106.26 0 005.32-15.3 92.428 92.428 0 001.9-7.29 9.85 9.85 0 008.51-6.47 2.002 2.002 0 00-3.72-1.48 5.87 5.87 0 01-4 3.78 82 82 0 001-9 2.003 2.003 0 00-4-.22 81.82 81.82 0 01-3 17.67 3.67 3.67 0 01-.73-.59c-.94-1-2-3.09-1.93-7.66a2 2 0 00-4 0c-.12 4.89 1 8.48 3.2 10.68a7.43 7.43 0 002.35 1.58c-4.55 15.86-11 25.39-15.77 30.66a34.87 34.87 0 01-9.32 7.7h-7.07a53.41 53.41 0 004.39-14.6h.69c5.38 0 9.13-3.77 11-6.78 3.34 0 7-3.15 8.86-8 2.24-5.76 1.06-11.41-2.7-12.87-3.76-1.46-8.44 1.91-10.68 7.66-1.8 4.64-1.38 9.2.81 11.57-1.16 1.76-3.63 4.52-7.5 4.4.25-3.22.24-6.23.23-9.1 0-10.35-.08-19.3 12.31-32a7.63 7.63 0 001.83.24c3.83 0 8.44-2.54 12-7a20.23 20.23 0 004.36-9.22c.55-3.45-.3-6.28-2.39-8-2.09-1.72-5-1.91-8.29-.64a20.24 20.24 0 00-8.06 6.13c-4.68 5.81-5.8 12.58-2.92 16.2-7.69 8.08-10.8 14.9-12 21.33-4.52-3-5.77-10.61-6.1-13.87a7.2 7.2 0 003.32-3.71 15 15 0 001-7.52c-.66-6.14-4.33-10.62-8.32-10.19-2.09.22-3.9 1.75-5 4.2a15 15 0 00-1 7.52c.53 4.91 3 8.74 6 9.86.38 4 2.07 14.55 9.53 17.94-.25 2.91-.24 5.77-.23 8.68 0 8.08.06 16.44-5.49 27.66h-2.89a30.28 30.28 0 00-5.28-17.42c2.75-10.59-2.65-23-4.77-27.24a5.87 5.87 0 10-3.54 1.87 58 58 0 013.34 8.49 20.07 20.07 0 01-8.78-1.26 5.8 5.8 0 10-1.12 3.86 23.53 23.53 0 008.34 1.46c.81 0 1.67 0 2.56-.13a30.17 30.17 0 01.63 8.86 21.41 21.41 0 00-2.47-2.22 2 2 0 00-3.16 1.37 63.38 63.38 0 001.66 22.36h-9.21a23 23 0 01-1.71-8.39 5.79 5.79 0 10-4 0 27.7 27.7 0 001.44 8.41h-7.63c-7-8.25-6.61-22.25-5.71-30a3.07 3.07 0 00-5.88-1.55c-3.72 8.83-7.21 21.16-4 31.62-10.453.66-18.652 9.228-18.85 19.7v1.3a95.09 95.09 0 0049 83.23v6.94c.006 5.416 4.394 9.804 9.81 9.81h72.61c5.416-.006 9.804-4.394 9.81-9.81v-7.07a95.54 95.54 0 0049-80.75v-3.72c-.207-10.939-9.13-19.701-20.07-19.71zM343 156.79c1.4-3.59 3.76-5.46 5.1-5.46.14-.002.279.021.41.07 1.21.47 2 3.7.42 7.69-1.11 2.84-2.81 4.59-4.14 5.2a33.67 33.67 0 002.35-6 1 1 0 10-1.94-.48 32.57 32.57 0 01-2.43 6.06c-.77-1.19-.99-3.89.23-7.08zm-24.8-37c.48-1.08 1.13-1.77 1.74-1.83h.1c1.3 0 3.36 2.5 3.81 6.64a11.17 11.17 0 01-.67 5.48 4.82 4.82 0 01-.68 1.14 38.19 38.19 0 00-1.36-8.06 1 1 0 10-1.91.58 36.8 36.8 0 011.3 7.91c-1.22-.75-2.63-3-3-6.37a11.17 11.17 0 01.67-5.49zm29.51-5.54a16.43 16.43 0 016.42-5 7 7 0 012.48-.53 2.9 2.9 0 011.85.56c.91.74 1.26 2.27 1 4.22a16.44 16.44 0 01-3.53 7.34c-2.92 3.63-6.38 5.47-8.75 5.54a47.24 47.24 0 007.4-10.65 1 1 0 00-1.82-.83c-1.6 3.5-4.52 7.27-7.67 10.83-1.86-1.61-1.23-6.64 2.62-11.43v-.05zm-52.08 42.26a1.79 1.79 0 111.79-1.79 1.8 1.8 0 01-1.79 1.83v-.04zm8.66-15.18a1.79 1.79 0 112.71 1.56l-.15.07-.1.07a1.79 1.79 0 01-2.49-1.65l.03-.05zM295 174.27a1.79 1.79 0 11-1.79 1.79 1.8 1.8 0 011.79-1.79zm124.84-36.3c5.05-5.05 13.24-5.05 18.29 0 5.05 5.05 5.05 13.24 0 18.29l-33.64 33.64h-36.56l51.91-51.93zm-110 34.24a26.62 26.62 0 016.55 17.69H312a56.28 56.28 0 01-2.12-17.69h-.04zm-33.28-6.16c-.4 11.61 2.16 19.08 5.21 23.85h-6.46c-2.7-7.56-.99-16.77 1.29-23.85h-.04zm113 135.07a5.82 5.82 0 01-5.81 5.81h-72.61a5.82 5.82 0 01-5.81-5.81v-1.16H316a1 1 0 100-2h-10.67v-3.08h74.18v3.36a1 1 0 102 0v-3.36h2.63v6a1 1 0 102 0v-6h3.42v6.24zm49-87.93a89.74 89.74 0 01-3.38 22.29h-13.46a1 1 0 100 2h12.88a91.3 91.3 0 01-8.72 19.67h-26.25a1 1 0 100 2h25a98.376 98.376 0 01-2.38 3.59h-12.16a1 1 0 100 2h10.75A92 92 0 01391 290.88h-87.38a91.1 91.1 0 01-47.32-79.93v-1.22c.018-.95.122-1.898.31-2.83h27.66a1 1 0 100-2h-27.14a16.14 16.14 0 0115.24-11h13.14c.25.05.51.05.76 0h24.06c.083.005.167.005.25 0a2 2 0 00.37 0h13.26c.197.05.403.05.6 0h97.7a16.09 16.09 0 0112.2 5.63h-9.45a1 1 0 100 2h10.91a15.73 15.73 0 012.41 8.11c.02 1.15.01 2.26-.02 3.55zM197.88 286.54a13.64 13.64 0 00-10.88-3.2c-11.967 1.727-22.72 1.727-32.26 0 11.78-7.88 21.59-17.52 28.18-24.38 5.17-5.413 5.095-13.959-.17-19.28a13.73 13.73 0 00-20.7 1.43c-9.19 12.29-19.06 21.28-29.39 26.83a6.09 6.09 0 00-.14-1.39 7.7 7.7 0 00-4.13-5.11l-7.44-3.71c-.28-4.75-3.2-8.16-6.07-10.39 4.09.24 6 2 6.74 3.11a2.79 2.79 0 004.95-.75c2.183-6.616-1.304-13.766-7.86-16.12l-51.8-18.89A19.4 19.4 0 0044 243.45l10.14 15.66-24.38 18.19a18.21 18.21 0 00-6.42 20.29 17.94 17.94 0 006.58 9 18.16 18.16 0 0010.63 3.51l51.41.27H92a12.16 12.16 0 0012-9.87l6.26 1.84a4.55 4.55 0 005.8-3.79l.18-1.41a55.76 55.76 0 006.32-.54c18 12 42.06 14.16 61.1 14.16 1.89 0 3.74 0 5.53-.05a13.78 13.78 0 008.75-24.2l-.06.03zm-32.64-43.06a9.58 9.58 0 017.75-3.87 9.69 9.69 0 016.92 2.87 9.81 9.81 0 01.12 13.68c-7.06 7.35-17.88 18-30.79 25.93a56.74 56.74 0 01-18.68-8.68c12.31-5.62 23.97-15.62 34.68-29.94v.01zm-36.64 23.91a1.43 1.43 0 01-.18 1.2l-18.16 22.79a1.44 1.44 0 01-1.14.45 3.79 3.79 0 01-2.76-1.42l-5.39-6.55 1.41-1.66 4.26 5.07a1 1 0 101.53-1.29l-4.49-5.34 1.37-1.65 6.18 6.67a1.001 1.001 0 101.47-1.36l-6.37-6.88 1.76-2.16 3.23 2.74a1 1 0 001.29-1.52l-3.27-2.78c1.007-1.26 2.007-2.52 3-3.78l2.47 1.55a1.002 1.002 0 101.06-1.7l-2.3-1.44 2-2.59 7.68 4.53a1 1 0 001-1.72l-7.48-4.41 2.2-2.93 7.59 3.79a3.78 3.78 0 012.04 2.39zm-26.8 4.79a4.78 4.78 0 014.77-4.77 4.73 4.73 0 012.19.56c-1.93 2.45-3.89 4.89-5.84 7.27a4.76 4.76 0 01-1.12-3.06zm-14-45.61l8.81 3.21a4.69 4.69 0 11-8.81-3.21zm-39.63-3.26a15.39 15.39 0 0117.31-4.88L86 225.88a6.7 6.7 0 1012.58 4.59l18.78 6.85a8.87 8.87 0 015.85 9c-1.89-1.61-5.07-3.18-10.22-3a3.44 3.44 0 00-1.76 6.29c2.37 1.56 5.21 4.13 5.7 7.74l-.1.14c-1.27 1.72-2.61 3.5-4 5.3-.9 1.18-1.817 2.367-2.75 3.56a6.76 6.76 0 00-8.44 10.44c-1.58 1.91-3.14 3.77-4.66 5.54l-.06.07-.1.11c-2 2.37-3.83 4.39-5.46 6.18-.18.2-.37.38-.57.55a8.9 8.9 0 01-13.49-1.72l-30-46.28a15.39 15.39 0 01.9-17.94l-.03.01zm35 73.47a4.71 4.71 0 11-6.75-4.22 12.76 12.76 0 006.56 2.92c.133.424.204.865.21 1.31l-.02-.01zM54.8 266.89a7.2 7.2 0 01-11.8 5.52l11.24-8.38c.385.9.583 1.87.58 2.85l-.02.01zm-5.51 39.3h-8.68a4.7 4.7 0 119.05-1.76 4.62 4.62 0 01-.35 1.75l-.02.01zm49.12-2.92a8.11 8.11 0 01-6.44 3.14l-40.52-.21a6.63 6.63 0 00.25-1.81 6.7 6.7 0 10-13.19 1.59 14.13 14.13 0 01-6.26-2.58 14 14 0 01-5.13-7 14.22 14.22 0 015-15.84l9.21-6.87a9.21 9.21 0 0014.52-10.9l.43-.32 17.65 27.25c.304.474.638.929 1 1.36a6.74 6.74 0 1010.12 4.52 12.8 12.8 0 008.49-3.46l.09-.09c.22-.21.44-.42.65-.64 1.02-1.113 2.11-2.33 3.27-3.65l.74 2.56c.57 2 1.1 3.94 1.58 5.88a8.15 8.15 0 01-1.44 7.07h-.02zm13.36-4.8a.52.52 0 01-.46.07l-7.31-2.16c-.06-.39-.13-.78-.23-1.17-.19-.77-.4-1.56-.61-2.34l.07.08a7.71 7.71 0 005.85 2.89 5.53 5.53 0 003.32-1.07l-.43 3.32a.55.55 0 01-.18.38h-.02zm4.91-5.3l.11-.86.93.79-1.04.07zm72.35 13.57c-19.29.37-45.83-.82-64.77-13.72l-.24-.17a53.16 53.16 0 01-6-4.81l9.49-11.91a60.64 60.64 0 0021.45 10h.17c11.12 2.8 24 3.18 38.42 1.09a9.65 9.65 0 017.69 2.27 9.78 9.78 0 01-6.2 17.17l-.01.08z"/><path d="M87.37 273.36a6.7 6.7 0 10-6.7 6.7 6.71 6.71 0 006.7-6.7zm-11.41 0a4.7 4.7 0 114.7 4.7 4.71 4.71 0 01-4.66-4.7h-.04zM70 232.96a6.7 6.7 0 10-6.7 6.7 6.71 6.71 0 006.7-6.7zm-6.7 4.7a4.7 4.7 0 114.7-4.7 4.71 4.71 0 01-4.72 4.71l.02-.01zM96.43 255.04a4.79 4.79 0 10-4.79-4.79 4.8 4.8 0 004.79 4.79zm0-7.59a2.79 2.79 0 11-2.79 2.79 2.8 2.8 0 012.79-2.78v-.01zM34.91 282.6a5.48 5.48 0 100 10.96 5.48 5.48 0 000-10.96zm0 9a3.48 3.48 0 113.48-3.48 3.48 3.48 0 01-3.48 3.44v.04zM69 247.37a4.79 4.79 0 104.79 4.79 4.8 4.8 0 00-4.79-4.79zm0 7.59a2.79 2.79 0 112.79-2.79 2.8 2.8 0 01-2.79 2.79zM61.37 281.32a4.79 4.79 0 104.79 4.79 4.8 4.8 0 00-4.79-4.79zm0 7.59a2.79 2.79 0 112.79-2.79 2.8 2.8 0 01-2.79 2.79zM404.8 206.52h-76.23a1 1 0 100 2h76.23a1 1 0 100-2zM391.2 214.6a1 1 0 100-2h-24.87a1 1 0 100 2h24.87zM286.28 262.54a1 1 0 001 1h38.39a1 1 0 100-2h-38.39a1 1 0 00-1 1zM336.09 267.72h-49.4a1 1 0 100 2h49.39a1 1 0 100-2h.01zM349.51 267.72h-4.83a1 1 0 100 2h4.83a1 1 0 100-2zM421.68 217.79h-4.83a1 1 0 100 2h4.83a1 1 0 100-2zM375 241.45h-42.13a1 1 0 100 2H375a1 1 0 100-2zM366.69 247.05h-17.18a1 1 0 100 2h17.18a1 1 0 100-2zM286.69 224.7h26.84a1 1 0 100-2h-26.84a1 1 0 100 2zM396.93 278.36h-17.8a1 1 0 100 2h17.81a1 1 0 100-2h-.01zM278.73 210.27h-16.64a1 1 0 100 2h16.64a1 1 0 100-2zM334.48 281.41h-20.94a1 1 0 100 2h20.94a1 1 0 100-2zM346.61 155.79a1 1 0 00.71.3 1 1 0 00.7-.3 1 1 0 000-1.41 1 1 0 00-.32-.22 1 1 0 00-1.09.22 1 1 0 00-.3.71 1 1 0 00.3.7zM398.79 169.39l15-15a1 1 0 00-1.41-1.41l-15 15a1 1 0 101.41 1.41zM417.17 160.67a1 1 0 00.71-.29l13.12-13.1a1 1 0 00-1.41-1.41l-13.09 13.09a1 1 0 00.71 1.71h-.04zM413.65 162.19a1 1 0 00.07.38c.054.122.129.233.22.33a.93.93 0 00.33.21 1 1 0 001.08-.21 1 1 0 00.22-.33 1 1 0 00.08-.38 1 1 0 00-.3-.71l-.15-.12a.6.6 0 00-.17-.09 1 1 0 00-.76 0 1 1 0 00-.33.21 1 1 0 00-.29.71zM408.33 179.33a1 1 0 00-1.41-1.41l-8.63 8.63a1 1 0 101.41 1.41l8.63-8.63zM388.39 179.48l-5.07 5.07a1 1 0 101.41 1.41l5.07-5.07a1 1 0 00-1.41-1.41zM426.61 161.1a1 1 0 101.41 1.41l4.52-4.52a1 1 0 00-1.41-1.41l-4.52 4.52z"/></g><g><g transform="translate(213 3)"><path d="M21 0A20.16 20.16 0 00.86 21.09l2.53 54.53c.438 9.402 8.188 16.8 17.6 16.8s17.162-7.398 17.6-16.8l2.53-54.53A20.16 20.16 0 0021 0z" fill="#E38D71"/><circle fill="#000" opacity=".1" cx="13.03" cy="23.32" r="3.83"/><circle fill="#000" opacity=".1" cx="28.58" cy="56.76" r="3.27"/></g><path d="M222.2 42.56l-.86-16.12a15 15 0 0115-15.83h13.42l-9-6.44h-12.13l-9.1 5-4.64 7.62 1.4 25.81 5.91-.04z" fill="#FFF" opacity=".25"/><path d="M254.16 19.03h-10c-7.909 0-14.32 6.411-14.32 14.32v9.21l2.47 30.88s-1.06 9.13-15.58 8l4.33 8.37 5.77 4.6 9.82.85 10.11-3.21 3.61-7.74 1.75-17.18.95-24.55h1.08l.01-23.55zM223.52 29.22l4.95-5.86-3.41-.87-2.03 1.45z" fill="#000" opacity=".1"/><path fill="#000" opacity=".1" d="M237.9 58.17l4.16-1.5 1.57 1.19-4.29 4.29z"/><g fill="#463D73"><path d="M250.75 7.17a23.16 23.16 0 00-39.88 17.07l2.53 54.55c.486 11.024 9.565 19.712 20.6 19.712 11.035 0 20.114-8.688 20.6-19.712l2.53-54.53a23 23 0 00-6.38-17.09zm-2.14 71.32c-.354 7.809-6.788 13.958-14.605 13.958s-14.251-6.15-14.605-13.958l-2.53-54.53a17.16 17.16 0 1134.28 0l-2.54 54.53z"/><path d="M226 20.99a5.33 5.33 0 105.33 5.33 5.34 5.34 0 00-5.33-5.33zm0 7.67a2.33 2.33 0 112.33-2.33 2.34 2.34 0 01-2.33 2.33zM241.58 54.99a4.77 4.77 0 104.77 4.77 4.78 4.78 0 00-4.77-4.77zm0 6.54a1.77 1.77 0 111.77-1.77 1.77 1.77 0 01-1.77 1.78v-.01zM243.35 21.67a2.32 2.32 0 104.64 0 2.32 2.32 0 00-4.64 0zm3 0a.68.68 0 11-1.36 0 .68.68 0 011.36 0zM226.44 70.3a2.32 2.32 0 100 4.64 2.32 2.32 0 000-4.64zm0 3a.68.68 0 110-1.36.68.68 0 010 1.36zM241.17 34.79a1.91 1.91 0 100-3.82 1.91 1.91 0 000 3.82zm0-3a1.09 1.09 0 110 2.18 1.09 1.09 0 010-2.18zM226.44 56.28a1.91 1.91 0 100-3.82 1.91 1.91 0 000 3.82zm0-3a1.09 1.09 0 110 2.18 1.09 1.09 0 010-2.18zM237.89 67.67a1.91 1.91 0 100 3.82 1.91 1.91 0 000-3.82zm0 3a1.09 1.09 0 110-2.18 1.09 1.09 0 010 2.18zM237.08 84.93a1.91 1.91 0 10.021 3.82 1.91 1.91 0 00-.021-3.82zm0 3a1.09 1.09 0 110-2.18 1.09 1.09 0 010 2.18zM233.59 11.66a1.91 1.91 0 100 3.82 1.91 1.91 0 000-3.82zm0 3a1.09 1.09 0 110-2.18 1.09 1.09 0 010 2.18z"/></g></g><g><g transform="translate(161 42)"><path d="M138 89.79a71.48 71.48 0 014.9 12.87c-4.11-14-35.25-17.5-57.39 19.27h-85A72.2 72.2 0 018 89.79a42.65 42.65 0 0138.24-23.64h53.48A42.65 42.65 0 01138 89.79zM109.78 6.93v25.1a6.38 6.38 0 01-6.38 6.38H42.6a6.38 6.38 0 01-6.38-6.38V6.93A6.38 6.38 0 0142.6.56h60.8a6.38 6.38 0 016.38 6.37z" fill="#F2F4FF" opacity=".5"/><path fill="#F2F4FF" opacity=".5" d="M46.26 38.41h53.48v27.7H46.26z"/><path d="M7.49 153.88c2.66-20.06 40.79-24 65.27-15.11-21.46 24.76-47.19 37.86-61.11 25.74a12.33 12.33 0 01-4.1-7.18 11.38 11.38 0 01-.06-3.45z" fill="url(#a)"/><path d="M7.49 153.88a11.38 11.38 0 00.06 3.45l-.32.06-6.71-35.5h85a154.85 154.85 0 01-12.76 16.9c-24.48-8.9-62.61-5-65.27 15.09z" fill="#F2F4FF" opacity=".5"/><path d="M142.88 102.62c-4.11-14-35.25-17.5-57.39 19.27a154.85 154.85 0 01-12.73 16.9c-21.46 24.76-47.19 37.86-61.11 25.74a12.33 12.33 0 01-4.1-7.18l-.32.06 17.93 94.91a17.81 17.81 0 0017.5 14.5h60.68c8.56 0 15.91-6.09 17.5-14.5l24.64-130.43a72 72 0 00-2.6-19.27z" fill="url(#b)"/><circle fill="#FFF" opacity=".2" cx="69.65" cy="178.42" r="6.31"/><circle fill="#FFF" opacity=".2" cx="114.92" cy="197.05" r="5.14"/><circle fill="#FFF" opacity=".2" cx="36.16" cy="237.22" r="4.39"/></g><g transform="translate(161 42)"><path d="M46.26 38.41v13.85h27.47c7.65 0 13.85 6.2 13.85 13.85h12.16v-27.7H46.26z" fill="#000" opacity=".12"/><path d="M92.08 66.36h8.46v-28h-8.46a49.47 49.47 0 010 28z" fill="#F2F4FF" opacity=".35"/><path d="M54.9 39.46h-8.46v27.95h8.46a49.47 49.47 0 010-27.95z" fill="#F2F4FF" opacity=".21"/><path d="M100.54 38.26H109V1.86h-8.46a83.21 83.21 0 010 36.4zM45.26 38.26H36.8V1.86h8.46a83.21 83.21 0 000 36.4z" fill="#F2F4FF" opacity=".15"/><path d="M52.78 74.35c25.69-3.32 63.12-4.37 73.38 1.6l-5.91-6.61-19.71-3h-58.9l-13.18 3.62-12.4 8.6-7.39 9.91-5.12 12.61-3 20.79L23.8 249.7l5.29 10.77 7.1 5.09 16.69 1.36a41.42 41.42 0 01-6.3-1.33A22.44 22.44 0 0131 247.24L13.62 127.86a49.78 49.78 0 01.3-16.57c.227-1.167.483-2.333.77-3.5 4.46-18 14.14-30.34 38.09-33.44z" fill="url(#c)" opacity=".1"/><path d="M126.16 75.95l2.6 2.91a5 5 0 00-2.6-2.91z" fill="url(#d)" opacity=".1"/><path d="M36.8 11.96c2.53 17.83 62.94 21.73 72.2 2.53v20.59l-4.23 3.17H38l-1.2-26.29z" fill="url(#e)" opacity=".12"/><path fill="url(#f)" opacity=".1" d="M20.39 229.68h32.45l43.47-9.45 34.33-21.45-9.93 52.42-5.39 9.29-9.39 4.63L33 263.88l-5.13-6.65z"/><path d="M40.55 266.79c0-12.36 65.38-12.36 65.38 0H40.55z" fill="url(#g)"/><path d="M25 252.3h96.4v-4.37c-35.91 0-75.4 1.31-98.36-4.94L25 252.3z" fill="url(#h)" opacity=".2"/><circle fill="#FFF" opacity=".1" cx="67.26" cy="178.42" r="4.16"/><circle fill="#FFF" opacity=".15" cx="35.81" cy="235.62" r="2.79"/><circle fill="#FFF" opacity=".15" cx="112.13" cy="197.2" r="2.79"/><path d="M126.23 121.54c-1 41.57-14.17 85.55-33.53 130.76l-1.89 14.49h18.32l6.78-7.09 8.49-16.72 21.14-121.09-19.31-.35z" fill="url(#i)" opacity=".03"/><rect fill="url(#j)" opacity=".8" transform="rotate(180 62.325 57.55)" x="55.28" y="54.59" width="14.09" height="5.92" rx="2.96"/><path d="M83.39 121.54c-59.06 0-67.89-34.68-36.39-55.18l-18.54 3.62-12.4 8.6-8.83 13.46-4.9 13.82-1.81 16 82.87-.32z" fill="url(#k)" opacity=".24"/><path d="M24.34 85.86s-10.25 16.13-10 33.07h36.44s-28.92 4.01-26.44-33.07z" fill="url(#l)" opacity=".39"/><path d="M88.77 35.46v2.8H107l2.53-3.93-2.86-22.69c.02 16.57-5.82 22.4-17.9 23.82z" fill="url(#m)" opacity=".43"/><path d="M103.83 3.46H56.21l.79-.1V.56H38.75l-2.53 3.93 2.86 22.69c0-5.63.67-10 2-13.41a9.19 9.19 0 0111.68-5.09c17.42 6.38 36.18 4.39 51.07-5.22z" fill="url(#n)" opacity=".88"/><path d="M50.67.56c0 8.88 44.5 8.88 44.5 0h-44.5z" fill="#000" opacity=".12"/></g><g fill="#463D73"><path d="M466 305.79h-24.43a3 3 0 000 6H466a3 3 0 000-6zM429.37 305.79H279a20.75 20.75 0 005.83-10.94l24.64-130.41v-.17a3 3 0 000-.38 74.73 74.73 0 00-7.81-33.47 45.31 45.31 0 00-37.92-25.21v-21.8h.66a9.39 9.39 0 009.38-9.37v-25.1a9.39 9.39 0 00-9.37-9.37H203.6a9.39 9.39 0 00-9.37 9.38v25.1a9.39 9.39 0 009.38 9.38h.66v21.8a45.31 45.31 0 00-37.92 25.21 74.73 74.73 0 00-7.81 33.47 3 3 0 000 .38v.17l24.64 130.41a20.75 20.75 0 005.82 10.92H14.15a3 3 0 000 6h415.22a3 3 0 000-6zm-150.3-13h-16.26a1.5 1.5 0 000 3h15.52a14.81 14.81 0 01-13.9 10h-9.21l14.41-138.9h33.22l-23.78 125.9zm-54.73 0h-6.87l-8.95-86.24c9.12-5.42 18.63-13.57 27.52-23.83a158.66 158.66 0 0012-15.84h15.56l-14.41 138.91h-30.38l-1-10h6.56a1.5 1.5 0 000-3h-.03zm-18.66-113.53h1a80.33 80.33 0 0121.76 3 110 110 0 01-20.62 17.77l-2.14-20.77zm-3.54 24a39.44 39.44 0 01-15 4.73c-5 .35-9.23-.92-12.52-3.79a9 9 0 01-3.15-8c.58-4.37 3.29-8 8-10.93 5.15-3.12 12.3-5.06 20.18-5.78l2.49 23.77zm2.26-36.41h36.41c-2.55 3.62-5.22 7.09-8 10.38a85.37 85.37 0 00-27.74-3.92l-.67-6.46zm96.6-21.49a69 69 0 012.43 15.53H252c12.91-18.77 27.9-24.28 38.06-23 5.54.74 9.71 3.59 10.94 7.47zM200.22 74.03v-25.1a3.38 3.38 0 013.38-3.37h60.8a3.38 3.38 0 013.38 3.38v25.1a3.38 3.38 0 01-3.37 3.38H203.6a3.38 3.38 0 01-3.38-3.39zm57.52 9.38v21.7h-47.48v-21.7h47.48zm-86 49.67a39.39 39.39 0 0135.55-22h41.21a31.35 31.35 0 018.33 9.11 1.5 1.5 0 002.57-1.55 34 34 0 00-6.18-7.56h3.25a27.41 27.41 0 013.88 4.34 1.5 1.5 0 002.4-1.8c-.73-1-1.4-1.8-2.05-2.54h.06a39.39 39.39 0 0135.55 22l.13.28a24.11 24.11 0 00-5.6-1.4c-12.57-1.62-31.14 5.19-46 28.93h-63.6c0-1.25 0-2.47.1-3.63a1.502 1.502 0 10-3-.17c-.07 1.23-.1 2.5-.11 3.8h-3c.15-5.75.84-10 3.1-14.38a1.5 1.5 0 00-2.66-1.38c-2.72 5.26-3.33 10.33-3.45 15.76h-7.67a68.62 68.62 0 017.16-27.81h.03zm26.66 33.81l.7 6.79c-8.81.81-16.86 3-22.68 6.54a25 25 0 00-7.46 6.72l-3.79-20 33.23-.05zm-24.96 43.9a22.32 22.32 0 0012.05 3.29c.667 0 1.357-.023 2.07-.07a43.21 43.21 0 0015.24-4.39l8.63 83.17h-22.5l-15.49-82zm16.23 85h22.07l1 10h-9.21a14.81 14.81 0 01-13.86-10z"/><path d="M230.35 294.29a1.5 1.5 0 001.5 1.5h13.25a1.5 1.5 0 000-3h-13.25a1.5 1.5 0 00-1.5 1.5zM238.47 220.42a7.81 7.81 0 10-7.81 7.82 7.82 7.82 0 007.81-7.82zm-12.63 0a4.81 4.81 0 114.82 4.82 4.82 4.82 0 01-4.82-4.82zM269.28 239.05a6.65 6.65 0 1013.3.02 6.65 6.65 0 00-13.3-.02zm6.64-3.64a3.65 3.65 0 11.02 7.3 3.65 3.65 0 01-.02-7.3zM197.16 285.11a5.89 5.89 0 10-5.89-5.89 5.9 5.9 0 005.89 5.89zm0-8.78a2.89 2.89 0 110 5.78 2.89 2.89 0 010-5.78zM278 204.5c.165.109.339.202.52.28.182.072.37.128.56.17a2.9 2.9 0 001.17 0 3.71 3.71 0 00.56-.17 3.32 3.32 0 00.52-.28 3 3 0 001.27-3.08 2.23 2.23 0 00-.17-.56 2.45 2.45 0 00-.27-.51 3.47 3.47 0 00-.37-.46 3 3 0 00-3.79-.37 2.79 2.79 0 00-.83.83 3.22 3.22 0 00-.28.51 3 3 0 00-.23 1.15 3 3 0 00.88 2.12c.14.14.294.263.46.37zM289.38 148.79a2.48 2.48 0 00-.27-.51 2.78 2.78 0 00-.38-.46 2.75 2.75 0 00-.45-.37 3.32 3.32 0 00-.52-.28 3 3 0 00-3.27.65 2.73 2.73 0 00-.37.46 3.11 3.11 0 00-.28.51 3.38 3.38 0 00-.17.57 2.86 2.86 0 000 1.17 3.6 3.6 0 00.17.56c.077.181.171.356.28.52a3 3 0 003.64 1.1 3.72 3.72 0 00.52-.27 2.75 2.75 0 00.45-.38 2.67 2.67 0 00.38-.45 3.19 3.19 0 00.27-.52 2.27 2.27 0 00.17-.56 2.94 2.94 0 000-1.17 2.21 2.21 0 00-.17-.57zM196.15 250.79a3.24 3.24 0 00.65.98 3 3 0 004.62-.46c.11-.162.2-.337.27-.52.08-.18.14-.368.18-.56a3.88 3.88 0 00.06-.58 3 3 0 00-.88-2.13 3.4 3.4 0 00-.46-.37 2.6 2.6 0 00-.52-.27 2.79 2.79 0 00-.56-.18 3.07 3.07 0 00-2.71.82 3 3 0 00-.87 2.13 2.83 2.83 0 000 .58c.058.192.132.38.22.56zM4.67 306.3a3 3 0 00-3.34 0 3.18 3.18 0 00-.45.37 2.33 2.33 0 00-.37.46 3.24 3.24 0 00-.28.52 2.79 2.79 0 00-.17.56 2.9 2.9 0 000 1.17c.037.192.094.38.17.56.077.182.17.356.28.52.103.165.228.317.37.45.138.14.289.267.45.38.164.108.338.198.52.27.18.08.368.14.56.18a4 4 0 00.59.06 3 3 0 002.12-.89 3 3 0 00.88-2.12 3 3 0 00-.88-2.13 3.24 3.24 0 00-.45-.36zM247.34 188.79c.072.182.163.356.27.52.113.161.24.312.38.45a3 3 0 002.12.88 3 3 0 002.12-.88 3.93 3.93 0 00.37-.45c.107-.166.2-.34.28-.52a3 3 0 000-2.3 3.27 3.27 0 00-.65-.97 2.69 2.69 0 00-.46-.37 2.87 2.87 0 00-.52-.28 3.6 3.6 0 00-.56-.17 2.88 2.88 0 00-1.17 0 3.59 3.59 0 00-.56.17 3.22 3.22 0 00-1 .65 3.34 3.34 0 00-.37.46c-.11.159-.2.33-.27.51-.08.18-.14.368-.18.56a3.46 3.46 0 000 1.18c.047.193.114.38.2.56zM178.89 193.9c-.11.163-.2.337-.27.52a2.23 2.23 0 00-.17.56 2.89 2.89 0 000 1.17c.032.193.089.382.17.56a2.84 2.84 0 00.65.98c.136.14.287.264.45.37.162.11.337.2.52.27.18.08.368.14.56.18.196.015.394.015.59 0a3.06 3.06 0 002.12-.87c.14-.14.263-.294.37-.46a3.2 3.2 0 00.28-.52 3.68 3.68 0 00.17-.56 2.84 2.84 0 000-1.17 3.7 3.7 0 00-.17-.56 3.25 3.25 0 00-.65-.98 3.32 3.32 0 00-.46-.37 2.87 2.87 0 00-.52-.28 3.6 3.6 0 00-.56-.17 2.88 2.88 0 00-1.17 0 3.56 3.56 0 00-.56.17 3 3 0 00-1 .65 2.88 2.88 0 00-.35.51zM236.49 267.43a3.16 3.16 0 00-1.08.44 3.2 3.2 0 00-.46.38 3.83 3.83 0 00-.37.45 2.86 2.86 0 00-.27.52 2.26 2.26 0 00-.17.56 3 3 0 00.81 2.71c.29.276.63.497 1 .65.182.072.369.129.56.17a3 3 0 003.59-2.94 2.94 2.94 0 00-.1-.58 3.57 3.57 0 00-.17-.56 3.72 3.72 0 00-.28-.52 3 3 0 00-3.06-1.28z"/></g><g transform="translate(131 1)"><path fill="url(#o)" opacity=".43" d="M80.08 230.52l51.19-51.18-3.12 29.7-45.51 45.52z"/><circle fill="url(#p)" cx="66.16" cy="139.07" r="65.35"/><path fill="url(#q)" opacity=".22" d="M127.57 273.13l29.68-29.68-2.57 13.97-28.49 28.48z"/><path fill="url(#r)" opacity=".43" d="M35.67 174.52l8.69-8.69h10.97l-17.65 17.65z"/><path fill="url(#s)" opacity=".43" d="M83.75 265.98l42.91-42.92-1.57 15.97-39.99 39.99z"/><path d="M172.38 159.88c.12-13.91-7.45-48.53-42.64-50 31.33 5.13 40.37 40 41.43 50h1.21z" fill="url(#t)" opacity=".8"/><circle fill="url(#u)" cx="69.64" cy="50.22" r="50"/><ellipse fill="url(#v)" opacity=".4" cx="151.06" cy="127.31" rx="26.94" ry="25.19"/><g opacity=".85" transform="translate(51 121)"><path fill="#FFF" d="M20.8 14.12l-5.06-1.27-1.41-8.43-1.4 8.44-5.06 1.26 5.06 1.26 1.4 8.44 1.41-8.43z"/><circle fill="url(#w)" cx="14.33" cy="14.12" r="14.01"/></g><g opacity=".85" transform="translate(60 142)"><path fill="#FFF" d="M15.62 10.62l-3.8-.95-1.06-6.33v-.01L9.71 9.67l-3.8.95 3.8.95 1.05 6.33 1.06-6.33z"/><circle fill="url(#x)" cx="10.76" cy="10.62" r="10.52"/></g><g opacity=".85" transform="translate(65 41)"><path fill="#FFF" d="M6.39 11.23v-.01zM16.1 11.23l.01-.01-3.8-.95-1.06-6.33-1.06 6.33-3.8.95 3.8.95 1.06 6.34 1.05-6.34z"/><circle fill="url(#y)" cx="11.25" cy="11.22" r="10.52"/></g><path d="M176.05 163.09H30.52v6.48h25.4c.86.36 1.7.74 2.47 1.13a10 10 0 015.44 7.85l19 132.32H86l-15.5-141.3h50.61c.7.31 1.38.62 2 .94a6.75 6.75 0 013.64 6.75l-8.35 133.77 2.71-.13 11.42-110.88-5.21 59.1c1.31-16.2 10.85-64 15.66-81.48a8.6 8.6 0 017-6.21c5.23-.82 10.51-1.42 15.83-1.85h10.28l-.04-6.49z" fill="url(#z)" opacity=".6"/></g><path d="M308.79 161.98a3 3 0 00-2.31-1.09h-145a3 3 0 00-2.95 3.56l24.64 130.41c1.87 9.836 10.478 16.948 20.49 16.93h60.68c9.997-.007 18.577-7.119 20.44-16.94l24.64-130.41a3 3 0 00-.63-2.46zM189.11 293.74l-24-126.85h33.22l14.45 138.9h-9.12a14.81 14.81 0 01-14.55-12.05zm29.7 12.05l-14.41-138.9h59.2l-14.41 138.9h-30.38zm60.08-12.06a14.81 14.81 0 01-14.55 12.06h-9.12l14.41-138.9h33.22l-23.96 126.84z" fill="#463D73"/></g></g></svg>