<svg xmlns="http://www.w3.org/2000/svg" viewBox="0 0 456 288" width="158" height="100"><defs><linearGradient id="grd1" gradientUnits="userSpaceOnUse" x1="121.835" y1="2912.55" x2="12002.122" y2="2912.55"><stop offset="0" stop-color="#4de1ff"/><stop offset="100" stop-color="#0090f0"/></linearGradient><linearGradient id="grd2" gradientUnits="userSpaceOnUse" x1="1393.801" y1="535.837" x2="22593.797" y2="14035.667"><stop offset="0" stop-color="#4de1ff"/><stop offset="100" stop-color="#0078f0"/></linearGradient><linearGradient id="grd3" gradientUnits="userSpaceOnUse" x1="172.05" y1="654.989" x2="10364.05" y2="654.989"><stop offset="0" stop-color="#fff" stop-opacity=".8"/><stop offset="15" stop-color="#fff" stop-opacity=".79"/><stop offset="30" stop-color="#fff" stop-opacity=".74"/><stop offset="43" stop-color="#fff" stop-opacity=".67"/><stop offset="56" stop-color="#fff" stop-opacity=".57"/><stop offset="70" stop-color="#fff" stop-opacity=".43"/><stop offset="82" stop-color="#fff" stop-opacity=".27"/><stop offset="95" stop-color="#fff" stop-opacity=".08"/><stop offset="100" stop-color="#fff" stop-opacity="0"/></linearGradient><linearGradient id="grd4" gradientUnits="userSpaceOnUse" x1="133.05" y1="6837.89" x2="19458.05" y2="6837.89"><stop offset="0" stop-color="#fff" stop-opacity="0"/><stop offset="15" stop-color="#878787" stop-opacity=".38"/><stop offset="100" stop-color="#fff" stop-opacity=".8"/></linearGradient><linearGradient id="grd5" gradientUnits="userSpaceOnUse" x1="1860264.6" y1="367673.51" x2="3127915.41" y2="367673.51"><stop offset="0" stop-color="#fff" stop-opacity="0"/><stop offset="15" stop-color="#878787" stop-opacity=".38"/><stop offset="100" stop-color="#fff" stop-opacity=".8"/></linearGradient><linearGradient id="grd6" gradientUnits="userSpaceOnUse" x1="8167.88" y1="91.4" x2="8167.88" y2="18043.4"><stop offset="0" stop-color="#fff" stop-opacity=".8"/><stop offset="100" stop-color="#fff" stop-opacity="0"/></linearGradient><linearGradient id="grd7" gradientUnits="userSpaceOnUse" x1="142.05" y1="1315.59" x2="15980.05" y2="1315.59"><stop offset="0" stop-color="#fff" stop-opacity=".8"/><stop offset="12" stop-color="#fff" stop-opacity=".74"/><stop offset="35" stop-color="#fff" stop-opacity=".57"/><stop offset="67" stop-color="#fff" stop-opacity=".3"/><stop offset="100" stop-color="#fff" stop-opacity="0"/></linearGradient><linearGradient id="grd8" gradientUnits="userSpaceOnUse" x1="965782.29" y1="714120.23" x2="1015310.79" y2="714120.23"><stop offset="0" stop-color="#fff" stop-opacity=".8"/><stop offset="12" stop-color="#fff" stop-opacity=".74"/><stop offset="35" stop-color="#fff" stop-opacity=".57"/><stop offset="67" stop-color="#fff" stop-opacity=".3"/><stop offset="100" stop-color="#fff" stop-opacity="0"/></linearGradient><linearGradient id="grd9" gradientUnits="userSpaceOnUse" x1="236.38" y1="405.19" x2="827.38" y2="405.19"><stop offset="0" stop-color="#fff" stop-opacity=".6"/><stop offset="41" stop-color="#fff" stop-opacity=".59"/><stop offset="56" stop-color="#fff" stop-opacity=".57"/><stop offset="67" stop-color="#fff" stop-opacity=".52"/><stop offset="75" stop-color="#fff" stop-opacity=".45"/><stop offset="83" stop-color="#fff" stop-opacity=".37"/><stop offset="89" stop-color="#fff" stop-opacity=".26"/><stop offset="95" stop-color="#fff" stop-opacity=".14"/><stop offset="100" stop-color="#fff" stop-opacity="0"/></linearGradient><linearGradient id="grd10" gradientUnits="userSpaceOnUse" x1="740944.87" y1="462495.996" x2="776661.46" y2="462495.996"><stop offset="0" stop-color="#fff" stop-opacity=".6"/><stop offset="41" stop-color="#fff" stop-opacity=".59"/><stop offset="56" stop-color="#fff" stop-opacity=".57"/><stop offset="67" stop-color="#fff" stop-opacity=".52"/><stop offset="75" stop-color="#fff" stop-opacity=".45"/><stop offset="83" stop-color="#fff" stop-opacity=".37"/><stop offset="89" stop-color="#fff" stop-opacity=".26"/><stop offset="95" stop-color="#fff" stop-opacity=".14"/><stop offset="100" stop-color="#fff" stop-opacity="0"/></linearGradient><linearGradient id="grd11" gradientUnits="userSpaceOnUse" x1="1533.533" y1="213.772" x2="655.561" y2="1733.714"><stop offset="0" stop-color="#fff" stop-opacity=".8"/><stop offset="11" stop-color="#fff" stop-opacity=".78"/><stop offset="25" stop-color="#fff" stop-opacity=".72"/><stop offset="41" stop-color="#fff" stop-opacity=".61"/><stop offset="58" stop-color="#fff" stop-opacity=".47"/><stop offset="76" stop-color="#fff" stop-opacity=".29"/><stop offset="95" stop-color="#fff" stop-opacity=".07"/><stop offset="100" stop-color="#fff" stop-opacity="0"/></linearGradient><radialGradient id="grd12" gradientUnits="userSpaceOnUse" cx="8071.5" cy="8076.39" r="4107"><stop offset="0" stop-color="#fff" stop-opacity=".1"/><stop offset="39" stop-color="#fff" stop-opacity=".08"/><stop offset="80" stop-color="#fff" stop-opacity=".04"/><stop offset="100" stop-color="#fff" stop-opacity="0"/></radialGradient><radialGradient id="grd13" gradientUnits="userSpaceOnUse" cx="1539.37" cy="1525.51" r="1401"><stop offset="0" stop-color="#fff" stop-opacity=".6"/><stop offset="100" stop-color="#fff" stop-opacity="0"/></radialGradient><radialGradient id="grd14" gradientUnits="userSpaceOnUse" cx="308623.37" cy="80456.78" r="13645.52"><stop offset="0" stop-color="#fff" stop-opacity=".6"/><stop offset="100" stop-color="#fff" stop-opacity="0"/></radialGradient><radialGradient id="grd15" gradientUnits="userSpaceOnUse" cx="201297.09" cy="279455.67" r="11430.72"><stop offset="0" stop-color="#fff" stop-opacity=".6"/><stop offset="100" stop-color="#fff" stop-opacity="0"/></radialGradient><radialGradient id="grd16" gradientUnits="userSpaceOnUse" cx="-988171.6" cy="-235803" r="256700"><stop offset="0" stop-color="#fff" stop-opacity=".1"/><stop offset="39" stop-color="#fff" stop-opacity=".08"/><stop offset="80" stop-color="#fff" stop-opacity=".04"/><stop offset="100" stop-color="#fff" stop-opacity="0"/></radialGradient></defs><style>.shp0{fill:#fcfaf0}.shp3{fill:#f0f7ff}.shp4{opacity:.749;fill:#fff}.shp5{fill:#d5e0e5}.shp6{opacity:.702;fill:#fff}.shp7{fill:#dae5eb}.shp10{opacity:.102;fill:#000}.shp11{opacity:.251;fill:#fff}.shp12{fill:#3c5a78}.shp13{fill:#27b2ff;stroke:#2e4d5c;stroke-linecap:round;stroke-linejoin:round;stroke-width:3}.shp14{opacity:.502;fill:#f2f4ff}.shp15{fill:#0af}.shp21,.shp30{opacity:.149;fill:#000}.shp30{fill:#fff}.shp34{opacity:.502}.shp34,.shp36{fill:#fff}</style><g id="Page-1"><g id="mana-potion"><g id="background"><g id="colors"><path id="Shape" class="shp0" d="M330.39 203.68v6.65l-26.34 36.74H130.73l-10.75-14.81-3 14.81h-16.64a90.47 90.47 0 00-10.91-19.91c-10.71-14.64-25.07-24-40.19-24.85 88.04 5.83 199.47 7.05 281.15 1.37z"/><path id="Shape" class="shp0" d="M76.84 243.03c-1.41-3.45-3.5-6.59-6.14-9.22-4.24-4.25-10-6.63-16-6.61H89.39a90.47 90.47 0 0110.91 19.91h16.64l3-14.81 10.75 14.81h173.36l-10.23 14.24a14.35 14.35 0 00-1.11 14.9c2.45 4.79 7.37 7.8 12.75 7.8H46.62c9.06-.22 17.69-3.94 24.08-10.37 2.87-2.87 5.09-6.32 6.49-10.13a28.223 28.223 0 00-.35-20.52z"/><path id="Shape" class="shp0" d="M46.62 284.01h-.85c-9.35.01-18.33-3.71-24.93-10.33-16.75-16.75-17.26-43.75-1.15-61.12.73-.71 1.49-1.38 2.29-2 9-6.23 18.24-8.74 27.26-8.24 15.12.86 29.48 10.21 40.19 24.85H54.7c-5.97 0-11.7 2.38-15.91 6.61a18.046 18.046 0 000 25.53c2.76 2.77 6.54 4.29 10.45 4.21h27.95c-1.4 3.82-3.61 7.28-6.49 10.16a35.142 35.142 0 01-24.08 10.33z"/><path id="Shape" class="shp0" d="M76.84 243.03c2.69 6.55 2.81 13.88.35 20.52H49.35a14.38 14.38 0 009.86-4.21c4.51-4.52 4.51-11.83 0-16.35l17.63.04z"/><path id="Shape" class="shp0" d="M76.84 243.03H59.21c4.51 4.52 4.51 11.83 0 16.35a14.38 14.38 0 01-9.86 4.21h-.11c-3.91.08-7.69-1.44-10.45-4.21a18.046 18.046 0 010-25.53c4.21-4.23 9.94-6.61 15.91-6.61 6-.02 11.76 2.36 16 6.61 2.64 2.62 4.72 5.74 6.14 9.18z"/><path id="Shape" d="M450.82 27.98c6.14 5.93 1.61 21.48-10.34 40.56l-3.1 4.42-23.17 2 16.35 7.94a282.803 282.803 0 01-22.59 26.31c-29.32 30.32-60 49.71-74.35 47.91 16-29.93 49.92-66.5 72.63-89.29.46-.53.44-1.33-.04-1.85-.48-.51-1.28-.58-1.84-.15-24.5 20.93-60.86 55.36-77.22 87.61-6.67-10.23 7.67-39 33.81-68.85l4.06 9.46s1.64-10.6 2.63-16.85c1.12-1.21 2.27-2.42 3.44-3.63 33.86-35.04 69.55-55.43 79.73-45.59z" fill="#f7f7f7"/><path id="Shape" d="M327.14 153.4c16.36-32.25 52.72-66.68 77.22-87.61.56-.43 1.36-.36 1.84.15.48.52.5 1.32.04 1.85-22.71 22.79-56.63 59.36-72.63 89.29a99.093 99.093 0 00-6.18 13.75h-8.46c2.12-5.14 4.63-10.14 7.2-15.46.31-.69.64-1.31.97-1.97z" fill="#fefff5"/><path id="Shape" class="shp3" d="M371.27 170.85c6 0 10.86 4.86 10.86 10.86 0 6-4.86 10.86-10.86 10.86h-94.54c-6 0-10.86-4.86-10.86-10.86 0-6 4.86-10.86 10.86-10.86h94.54zM366.17 210.36l36.61 50.95a14.35 14.35 0 011.11 14.9c-2.45 4.79-7.37 7.8-12.75 7.8H256.86c-5.38 0-10.3-3.01-12.75-7.8a14.35 14.35 0 011.11-14.9l10.23-14.24 26.38-36.71v-17.79h84.34v17.79z"/></g><g id="shadows"><path id="Shape" class="shp4" d="M84.73 221.33c18.36-2.08 217.42-5.26 240.36-3.6l5.3-7.37v-6.68a2175.9 2175.9 0 01-218.52 1.8l-58.4-2.74 20.07 8 11.19 10.59zM87.2 227.39c-2.79 1-5.58 1.91-7.66 2.86-.73.35-1.29.98-1.54 1.75-.26.77-.19 1.61.18 2.33 8.33 15.92 6.75 27.97-4.73 36.15l5.5-10 .71-10.58-4-9.34-11.51-13.4 23.05.23z"/><g id="Group" opacity=".2"><path id="Shape" class="shp5" d="M99.7 243.13h10.74a5.01 5.01 0 004.69-3.19l3.57-9.05-1.73 16.18h-16.63l-.64-3.94zM120.7 231.56l10.5 10c.93.9 2.18 1.4 3.48 1.4h172.16l-2.79 4.11H130.73l-10.03-15.51zM89.37 227.19l-1.47-2.06-14.36-14.4-15.49-6.25.43-.58-9.13-1.13-11.3 1.13-8.63 2.35c-15.41 18.42-1.53 29.88 6.47 33l4.54-6.87 8.94-5.19h40zM70.7 273.69h221.07l5.77 10.32H58.2l12.5-10.32z"/><path id="Shape" class="shp5" d="M108.12 247.98l3.34 8c.7 1.68 2.35 2.78 4.17 2.78h4.42c2.18 0 4.04-1.56 4.44-3.7l2.45-13.21 12 15.19a4.523 4.523 0 003.54 1.71h152.34l9.23-11.68h-173.8L120 231.87l-3.56 15-8.32 1.11zM39.77 233.32a22.06 22.06 0 00-1.92 4.91c-.39 1.74.04 3.57 1.15 4.96a5.87 5.87 0 004.6 2.18h16.77v-2.24l15.31-.11-3.63-7.78-13-7.63-13.8 1.32-5.48 4.39z"/><path id="Shape" class="shp5" d="M78.74 257.17l-.39-9.19-2.06-6-15.92 1.15 1.77 4.85h5.29c1.66-.04 3.27.6 4.45 1.78.13.14.26.28.37.43 2.45 3.16-.05 7.78-4.05 7.78h-7.83l-4 5.89h17.19l.1-.32h3.53l1.55-6.37z"/></g><path id="Shape" class="shp6" d="M35.7 239.97s-3.37 19.65 19.73 22.08l-6.9 1.49-10.84-4.65-4.82-11.33 2.83-7.59z"/><path id="Shape" class="shp4" d="M15.7 217.54s-14.56 51.58 29.47 66.47l-9.92-1.6-10.32-5.21-11.53-13.33-4.68-13.1-.67-11.79 1.12-11.37 6.53-10.07z"/><g id="Group" opacity=".251"><path id="Shape" class="shp7" d="M354.69 192.56h-72.86v8.9h64c4.92 0 8.9 3.98 8.9 8.9h11.48v-17.8h-11.52zM242.5 270.91h79.3c26.86 0 42.75-30.07 27.62-52.26l-5.65-8.29h22.4l37.79 52.89 1.54 7.67-2.06 6.13-6.94 6-8.18 1-134.61-.37-6.93-3.6-4.28-9.17zM382.12 181.68l-.78-4c-.27.47-.53.92-.8 1.37a14.388 14.388 0 01-12.34 6.84H266.65c0 3.68 2.99 6.67 6.67 6.67h100.57c3.68 0 6.67-2.99 6.67-6.67h-.13l1.69-4.21zM414.2 74.94c-.08.81 3.81 4.74 6.15 7.76a3.994 3.994 0 01-.12 5.06c-23.73 28-47.13 48.23-70.17 59.6a1.461 1.461 0 01-1.88-2.09c5-8 11-16.59 17.78-25.64 2.41-3.21 6.23-5.03 10.24-4.88 1.08.04 2.16.14 3.23.29.43.05.85-.2 1.02-.6.18-.4.07-.86-.26-1.15a18.418 18.418 0 00-4.78-3 .819.819 0 01.13-1.56c4.91-.93 9.88-1.57 14.87-1.91a1.001 1.001 0 00.54-1.77c-1.92-1.39-4.85-2.36-9.14-2.78-.45-.05-.83-.34-1.01-.75-.17-.42-.11-.89.16-1.25 8.43-10.55 17.55-21.52 27-32.7l-22.7 21.75-27.5 31.75-24.16 35.31h7.13l-.17.83 18.15-8.14 26.66-18.84 30.11-29.11 14.14-18.69-15.42-7.49zM450.19 27.44c1.25 13-6.1 28.94-16.21 45.81h4.83l10.58-18.57 4.92-18.19-4.12-9.05z"/></g><path id="Shape" class="shp6" d="M273.32 171.01h55.49c0 3.68-2.99 6.67-6.67 6.67h-55.49c0-3.68 2.99-6.67 6.67-6.67zM380.56 177.68h-27.43c-3.68 0-6.67-2.99-6.67-6.67h27.43c1.77 0 3.47.7 4.72 1.95a6.675 6.675 0 011.95 4.72z"/><path id="Shape" d="M396.32 74.68c-49 50.36-65.39 75.51-72.33 95.13h3.8l13.77-27 31.25-39.13 22.83-25.06.68-3.94z" opacity=".051" fill="#020202"/><path id="Shape" class="shp6" d="M327.14 151.06c6.11-20.39 14.59-39.72 30.61-55.69.77-.74 1.95-.86 2.86-.29 2.21 1.32 3.35.43 4.54-.36 2.55-6.67 5.09-13.67 7.77-16.62.17-.15.42-.2.63-.11.21.09.36.29.37.52.03 1.38.25 2.74.65 4.06.07.21.28.34.49.31.22-.02.39-.19.42-.41.16-1.72.41-3.44.77-5.13a12.85 12.85 0 013.45-6.22c16.35-16.44 32.64-29.31 48.96-36.06.36-.14.76-.09 1.07.15.31.23.47.61.42.99-.12 1.45.05 2.91.51 4.29.12.35.45.58.82.58.37 0 .7-.23.82-.58.51-1.43 1.11-2.82 1.8-4.17 2.4-4.67 6.83-7.96 12-8.89l3.26-.56-8.58-1.39-14.58 5.05-24.25 15.33-26.82 23.52-7.51 7.75-2.22 14.2-4.48-6.81-14.49 18.07-11.38 17.46-6.52 13.63-3 10.54 1.61 6.84z"/><path id="Shape" class="shp6" d="M392.48 75.24c9-8.36 17.78-16 26.14-22.59a.997.997 0 011.35 1.3c-5.45 7.71-10.9 14-16.35 18.5l-11.14 2.79z"/></g><g id="lines"><path id="Shape" class="shp7" d="M122.05 213.25a195.99 195.99 0 0021.15.58c.55 0 1-.45 1-1s-.45-1-1-1c-6.98.19-13.97 0-20.93-.57-.36-.03-.7.14-.91.43-.2.3-.23.68-.08 1 .16.32.47.54.83.57l-.06-.01zM132.75 216.08c-.55-.05-1.04.36-1.09.91-.05.55.36 1.04.91 1.09 2.05.18 4.1.27 6.14.27s4.05-.09 6-.27c.36-.03.67-.25.82-.58a1 1 0 00-1-1.42c-3.92.35-7.86.35-11.78 0zM143.66 241.15c0 .55.45 1 1 1h13.95c.55 0 1-.45 1-1s-.45-1-1-1h-13.95c-.55 0-1 .45-1 1zM80.37 231.55c-.09-.1-.2-.17-.32-.22a.956.956 0 00-.58-.06c-.07.01-.13.03-.19.06-.06.02-.12.05-.17.09-.06.04-.11.08-.15.13a.995.995 0 00-.3.7c0 .13.03.27.08.39s.12.23.22.32a1.027 1.027 0 001.09.22c.24-.11.43-.3.54-.54.05-.12.07-.26.07-.39s-.02-.26-.07-.38c-.06-.12-.13-.23-.22-.32zM161.44 263.26l2.7-2.7c.34-.4.32-.99-.05-1.36-.37-.37-.96-.39-1.36-.05l-5.77 5.77-3.91-3.87c-.4-.34-.99-.32-1.36.05-.37.37-.39.96-.05 1.36l3.87 3.87-3.87 3.87a.98.98 0 00-.32.99c.09.37.37.65.74.74.36.09.75-.03.99-.32l3.87-3.87 3.48 3.48c.4.34.99.32 1.36-.05.37-.37.39-.96.05-1.36l-3.48-3.48 1.72-1.65 8.34 8.34c.4.34.99.32 1.36-.05.37-.37.39-.96.05-1.36l-8.36-8.35z"/><path id="Shape" fill-rule="evenodd" class="shp7" d="M442.07 69.68l-3.11 4.42c-.34.48-.87.79-1.46.84l-15.93 1.36 9.82 4.77a2 2 0 01.89 2.65v.06c-.05.09-.1.18-.16.27a284.047 284.047 0 01-22.75 26.5c-28.17 29.12-57.97 48.63-73.91 48.63h-.73c-1.66 3.14-3.14 6.36-4.46 9.66h41c7.1 0 12.86 5.76 12.86 12.86s-5.76 12.86-12.86 12.86h-3.1v15.12l36.28 50.5a16.3 16.3 0 013.05 10.37c.01.14.01.27 0 .41 0 .25-.05.49-.14.72-1.01 8.19-7.97 14.34-16.22 14.34H45.79c-9.89.03-19.37-3.91-26.34-10.92-17.6-17.48-18.13-45.77-1.2-63.9.83-.82 1.7-1.59 2.62-2.3 8.8-6.15 18.34-9.04 28-8.6.17-.02.33-.02.5 0 74.46 5 159.76 6.37 230.46 4v-9.66h-3.1c-7.1 0-12.86-5.76-12.86-12.86s5.76-12.86 12.86-12.86h41.11c1.63-3.84 3.43-7.57 5.34-11.49l1.38-2.85.53-1.08c-3.61-7.27.68-19.12 5.06-28 6.21-12.58 16.68-27.57 29.5-42.22l.17-.16.13-.11.17-.11.17-.09h.16l.16-.05h.75l.28.06h.1l.27.12h.09c.09.05.18.11.26.18.08.07.15.15.21.23l.06.07c.05.07.09.14.13.22l.07.13 1.32 3.06c.51-3.29 1.11-7.11 1.57-10 .01-.07.03-.13.05-.2v-.18c.03-.08.07-.15.11-.22l.07-.13c.05-.08.11-.16.18-.24l.06-.07c1.14-1.22 2.3-2.44 3.47-3.65 30.8-31.86 70.11-57.6 82.55-45.6 9.18 8.87-2.35 30.79-10.14 43.14zm-38.59 199.23c-.14-2.33-.95-4.57-2.32-6.46l-36-50.12h-13.15l8.87 12.35c.32.45.22 1.08-.23 1.4-.45.32-1.08.22-1.4-.23l-9.71-13.52h-3.1l3.54 4.92a.997.997 0 01-.72 1.58c-.35.04-.7-.12-.91-.41l-4.38-6.09h-3.25c-1.1 0-2-.9-2-2s.9-2 2-2h23.49v-13.79h-4.29v7.7c0 .55-.45 1-1 1s-1-.45-1-1v-7.7h-2.17v4c0 .55-.45 1-1 1s-1-.45-1-1v-4h-69.89v9.52c16.42-.59 31.99-1.38 46.42-2.38 1.1-.08 2.06.76 2.14 1.86a2.01 2.01 0 01-1.86 2.14l-3.08.2c.86.64 1.51 1.51 1.89 2.51a1.894 1.894 0 011.13.12c.12.05.23.11.34.18.11.07.22.16.31.25s.18.19.25.3c.07.11.13.23.18.35.05.12.09.24.11.37.01.13.01.26 0 .39.01.13.01.27 0 .4-.02.13-.06.25-.11.37s-.11.23-.18.34c-.08.11-.16.21-.25.31-.19.18-.41.33-.65.43-.37.15-.77.19-1.16.11a4.99 4.99 0 01-4.63 3.07h-1.39c-2.22 0-4.24 1.29-5.17 3.3l-10.2 22a8.008 8.008 0 01-5.24 4.36h1.34c1.1 0 2 .9 2 2s-.9 2-2 2h-34.93a29.96 29.96 0 01-19.56 9.62l-2.72 3.79a12.286 12.286 0 00-2.32 6.44h39.13c1.1 0 2 .9 2 2s-.9 2-2 2h-38.73c.23.83.55 1.63.94 2.39 2.08 4.16 6.35 6.76 11 6.7h134.25c4.65.06 8.92-2.54 11-6.7.39-.76.71-1.56.94-2.39h-26.79c-1.1 0-2-.9-2-2s.9-2 2-2h27.19l.03.02zm-195.03-59.55c-46.41 0-95.14-1.33-140.77-3.99 14.14 7.18 26.44 21.4 34 39.65h13.66l2.68-13.21a2.003 2.003 0 013.58-.78l10.15 14H254.4l25.4-35.35v-1.45c-22.59.75-46.63 1.13-71.35 1.13zm-187.3 4.56c-15.46 16.55-14.97 42.39 1.1 58.35a33 33 0 0023.46 9.74h.34c8.73-.05 17.08-3.55 23.23-9.74a26.15 26.15 0 004.86-6.72h-25a16.41 16.41 0 01-11.77-4.79c-7.82-7.84-7.82-20.52 0-28.36a24.337 24.337 0 0117.32-7.2H85.4a63.933 63.933 0 00-15.74-14.1l-3.84 3.84a.98.98 0 01-.99.32.996.996 0 01-.74-.74.98.98 0 01.32-.99l3.48-3.48c-.73-.42-1.48-.82-2.23-1.19l-8.32 8.32a.98.98 0 01-.99.32.996.996 0 01-.74-.74.98.98 0 01.32-.99l7.81-7.81c-1.73-.78-3.5-1.45-5.31-2-12.03-3.62-24.28-1.47-35.28 6.22-.32.21-1.71 1.43-2 1.74zm54.58 47.63a26.07 26.07 0 00-.28-16.56H63.1c.33.64.6 1.31.82 2h6.3c.55 0 1 .45 1 1s-.45 1-1 1H64.4c.15.97.2 1.94.15 2.92h2.63c.55 0 1 .45 1 1s-.45 1-1 1h-2.89c-.53 2.59-1.8 4.97-3.67 6.84-.29.28-.59.54-.89.8h16zm-2.06-20.54a26.097 26.097 0 00-4.38-5.8 20.451 20.451 0 00-14.51-6h-.08a20.428 20.428 0 00-14.5 6c-6.26 6.27-6.26 16.43 0 22.7 4.86 4.84 12.73 4.84 17.59 0a9.585 9.585 0 000-13.52 2 2 0 01-.43-2.18 2.01 2.01 0 011.85-1.23l14.46.03zm172.48 41.12a16.377 16.377 0 01-5.51-10.38c-.09-.23-.14-.47-.14-.72a2.67 2.67 0 010-.4 16.3 16.3 0 013.05-10.37l8-11.07H130.27l-.2-.05-.18-.06-.16-.08-.19-.1-.12-.09-.19-.15-.1-.11c-.05-.05-.09-.1-.13-.15l-8.08-11.13-2.1 10.35c-.02.11-.06.22-.1.33v.09c-.04.08-.08.16-.13.24l-.06.09-.17.2-.08.08-.19.16-.1.07-.22.12h-.11l-.28.09h-.07c-.13.01-.26.01-.39 0h-16.64a2 2 0 01-1.86-1.26 93.702 93.702 0 00-5.06-10.67h-4c-.55 0-1-.45-1-1s.45-1 1-1h2.9c-.37-.63-.75-1.26-1.14-1.88h-7.79c-.55 0-1-.45-1-1s.45-1 1-1h6.5c-.42-.7-.94-1.38-1.42-2.06H68.17c1.42.93 2.73 2 3.93 3.19 2.8 2.79 5.02 6.11 6.53 9.76.04.08.07.16.1.25 2.84 6.99 2.96 14.79.32 21.86v.07a29.9 29.9 0 01-6.92 10.72 37.54 37.54 0 01-9.53 6.91h19.1c2.11-1.39 5.29-4.36 6.71-10.24.13-.54.67-.87 1.21-.74.54.13.87.67.74 1.21-.8 3.73-2.7 7.13-5.45 9.77h4.07c1.27-1.62 2.29-3.43 3-5.37a1.007 1.007 0 011.74-.29c.22.29.27.68.12 1.02-.62 1.63-1.43 3.19-2.39 4.64l154.7.15zm56.09-65.03c.17-.36.15-.79-.06-1.13-.21-.34-.58-.55-.98-.55-5.76 0-11.15 2.88-14.34 7.68l-14.63 22h26.36a7.968 7.968 0 01-5.23-4.51c-.98-2.22-.89-4.76.23-6.91l8.62-16.58h.03zm69.03-44.28h-94.54c-4.89 0-8.86 3.97-8.86 8.86 0 4.89 3.97 8.86 8.86 8.86h94.53a8.877 8.877 0 008.86-8.86c-.01-4.89-3.96-8.85-8.85-8.86zm-45.22-3.98c1.62-4.31 3.53-8.51 5.72-12.57.05-.11.1-.21.17-.31 13.89-25.79 40.76-56.31 61.64-78.1-40.27 36.25-57.91 62.36-65.63 78.36l-1.39 2.86c-1.58 3.34-3.16 6.53-4.58 9.74l4.07.02zm112.9-101.48c11.57-18.52 15.63-33.05 10.57-37.94-.2-.18-.41-.36-.64-.51l-7.27 7.27a.98.98 0 01-.99.32.996.996 0 01-.74-.74.98.98 0 01.32-.99l6.8-6.8c-5.75-1.89-16.66 1.65-30.42 10.22v7.33c0 .55-.45 1-1 1s-1-.45-1-1v-6.06c-.95.61-1.91 1.24-2.88 1.91v10c0 .55-.45 1-1 1s-1-.45-1-1v-8.59a258.702 258.702 0 00-37.07 32.18c-1.01 1.05-2.01 2.1-3 3.16-1 6.3-2.53 16.22-2.53 16.22-.14.88-.84 1.57-1.72 1.68h-.25c-.8 0-1.52-.47-1.84-1.21l-2.8-6.52c-21 24.58-33.97 48.62-32.82 60.08 4.8-8.57 11.96-19.3 22.8-32.16v-8.53c0-.55.45-1 1-1s1 .45 1 1v6.13c7-8.14 15.42-17.09 25.57-26.86v-6.44c0-.55.45-1 1-1s1 .45 1 1v4.53a540.8 540.8 0 0110.5-9.73v-3.59c0-.55.45-1 1-1s1 .45 1 1v1.79c3.39-3.03 6.91-6.12 10.62-9.29a3.386 3.386 0 014.79.2 3.398 3.398 0 01-.2 4.8c-4.19 4.2-8.94 9.05-13.94 14.33h8.92c.55 0 1 .45 1 1s-.45 1-1 1h-10.82c-9.21 9.76-19.23 20.92-28.61 32.42h13c.55 0 1 .45 1 1s-.45 1-1 1h-14.66c-1.47 1.82-2.91 3.64-4.34 5.47h3.7c.55 0 1 .45 1 1s-.45 1-1 1h-5.24c-6.88 8.8-13.15 18.06-18.76 27.72 5.14-.37 11.86-2.87 19.52-7.09h-4.27c-.55 0-1-.45-1-1s.45-1 1-1h7.77l1.46-.89h-1.64c-.55 0-1-.45-1-1s.45-1 1-1h4.81c12.91-8.39 27.73-20.73 41.91-35.39 2.41-2.5 4.76-5.02 7.05-7.55h-5.56c-.55 0-1-.45-1-1s.45-1 1-1h7.35c4.31-4.87 8.35-9.75 12.1-14.64l-14.15-6.87a2 2 0 01.7-3.79l22.21-1.92 2.69-3.66z"/><path id="Shape" class="shp7" d="M357.38 268.91c-1.1 0-2 .9-2 2s.9 2 2 2h8.79c1.1 0 2-.9 2-2s-.9-2-2-2h-8.79zM336.3 268.91h-39c-1.1 0-2 .9-2 2s.9 2 2 2h39c1.1 0 2-.9 2-2s-.9-2-2-2zM292.64 270.14c-.05-.12-.11-.23-.18-.34a1.81 1.81 0 00-.25-.3c-.79-.75-2.04-.75-2.83 0-.37.37-.58.88-.58 1.41-.01.13-.01.26 0 .39.02.13.06.25.11.37s.11.24.18.35c.08.11.16.21.25.3a2.006 2.006 0 002.18.44c.24-.1.47-.25.65-.44.1-.09.18-.19.25-.3.08-.11.14-.23.19-.35a2.047 2.047 0 00.11-1.15c-.02-.13-.04-.26-.08-.38zM362.55 228.77c-.22.15-.36.39-.41.65-.04.26.02.53.18.75l2.3 3.2c.32.45.95.55 1.4.23.45-.32.55-.95.23-1.4l-2.3-3.2a1.01 1.01 0 00-.65-.41c-.26-.04-.53.02-.75.18zM323.05 185.48H297.3c-.55 0-1 .45-1 1s.45 1 1 1h25.75c.55 0 1-.45 1-1s-.45-1-1-1zM326.84 185.56c-.25-.1-.52-.1-.77 0-.12.05-.23.12-.32.22-.18.19-.29.44-.29.7 0 .55.45 1 1 1s1-.45 1-1c0-.26-.11-.51-.29-.7-.09-.1-.2-.17-.33-.22zM297.34 183.23h10c.55 0 1-.45 1-1s-.45-1-1-1h-10c-.55 0-1 .45-1 1s.45 1 1 1z"/></g></g><g id="bung"><g id="colors-2"><path id="Shape" d="M241.29 74.68h-40.48c-4.66-.02-8.55-3.58-9-8.22l-5-52.79c-.24-2.54.6-5.07 2.31-6.96a9.078 9.078 0 016.69-2.99h50.52c2.55.01 4.98 1.1 6.69 2.99a9.106 9.106 0 012.31 6.96l-5 52.79c-.45 4.66-4.36 8.22-9.04 8.22z" fill="#e6a15c"/></g><g id="shadows-2"><path id="Shape" class="shp10" d="M243.59 13.68l-.2 2.38c-1.75 20.36-18.79 36-39.23 36H190.4l2.9 19.16 6 3.33 42.49.13 6.63-3.46 2.74-13.54 3.39-44h-10.96z"/><path id="Shape" class="shp11" d="M245.45 4.56h-49.6c-2.41 0-4.73.96-6.43 2.67a9.074 9.074 0 00-2.67 6.43l3.65 32.23c0-10.87.48-20.54 2.09-26.55a7.697 7.697 0 017.45-5.68h1.29v5.58c-.06 4.13 3.15 7.57 7.27 7.81a7.5 7.5 0 007.73-7.5v-5.87h3.58v3.34c0 1.9 1.45 3.49 3.34 3.66.97.05 1.92-.3 2.62-.96.71-.67 1.11-1.6 1.11-2.57v-3.47h27.67c.01-2.42-.95-4.74-2.66-6.45a9.097 9.097 0 00-6.44-2.67z"/></g><g id="lines-2"><path id="Shape" fill-rule="evenodd" class="shp12" d="M258.27 13.91l-5 52.79c-.55 6.21-5.77 10.96-12 10.94h-40.48c-6.23.02-11.45-4.73-12-10.94l-5-52.79c-.32-3.38.79-6.75 3.08-9.27 2.28-2.51 5.52-3.95 8.92-3.96h50.52c3.41.02 6.66 1.47 8.94 4 2.25 2.52 3.35 5.87 3.02 9.23zm-6.08 1.26h-13.31c-.83 0-1.5-.67-1.5-1.5s.67-1.5 1.5-1.5h13.46a6.089 6.089 0 00-6.05-5.45h-50.52c-3.11 0-5.72 2.35-6.05 5.45h6.33c.83 0 1.5.67 1.5 1.5s-.67 1.5-1.5 1.5h-6.15l4.85 51a6.068 6.068 0 006.06 5.51h30.24v-1.75c0-.83.67-1.5 1.5-1.5s1.5.67 1.5 1.5v1.75h3.32v-3.91c0-.83.67-1.5 1.5-1.5s1.5.67 1.5 1.5v3.92h.91c3.14.01 5.77-2.38 6.06-5.51l4.85-51.01z"/><path id="Shape" class="shp12" d="M204.82 20.93c-.08-.18-.17-.35-.28-.52-.1-.17-.23-.32-.37-.45a2.993 2.993 0 00-2.71-.82c-.19.03-.38.09-.56.17-.18.07-.36.16-.52.27-.32.23-.6.51-.83.83-.1.17-.19.34-.27.52-.08.18-.13.37-.17.56a2.88 2.88 0 000 1.17c.04.19.09.38.17.56.07.18.17.36.28.52.1.17.23.32.37.46a3 3 0 004.24 0 3.246 3.246 0 00.65-.98c.07-.18.13-.37.17-.56a2.856 2.856 0 000-1.17c-.04-.19-.1-.38-.17-.56zM241.47 24.36c-.08-.18-.17-.35-.28-.52a3.16 3.16 0 00-.37-.45c-.14-.14-.29-.27-.46-.37-.16-.11-.33-.2-.51-.28-.55-.22-1.16-.28-1.74-.17-.19.04-.38.09-.56.17-.18.08-.35.17-.52.28a3.16 3.16 0 00-.83.82c-.1.17-.19.34-.27.52-.08.18-.14.37-.17.56a2.993 2.993 0 001.27 3.08c.16.11.34.21.52.28.18.08.37.13.56.17a2.996 2.996 0 003.36-4.09zM212.13 44.77c-.19.04-.38.1-.56.17-.18.08-.36.17-.52.28-.16.11-.32.24-.46.37a3.02 3.02 0 00-.88 2.13c0 .79.32 1.56.88 2.12a2.99 2.99 0 004.24-.01 2.99 2.99 0 000-4.24c-.71-.7-1.72-1-2.7-.82zM234.43 13.09c-.03-.09-.08-.18-.13-.26-.06-.08-.12-.16-.19-.23-.6-.56-1.52-.56-2.12 0-.14.14-.25.31-.33.49-.03.09-.06.19-.08.28-.01.1-.01.19 0 .29 0 .2.04.39.11.57a1.582 1.582 0 00.81.82 1.562 1.562 0 001.15 0c.37-.16.66-.45.82-.82.07-.18.11-.37.11-.57.01-.1.01-.19 0-.29-.04-.1-.09-.19-.15-.28zM209.82 68.03c-.28.28-.44.66-.44 1.06 0 .2.04.39.12.57a1.434 1.434 0 00.81.81c.18.08.37.12.57.12a1.499 1.499 0 001.06-2.56c-.6-.56-1.52-.56-2.12 0zM231.22 45.17l-.26-.14-.28-.08c-.19-.04-.4-.04-.59 0l-.28.08-.26.14c-.08.06-.16.12-.23.19-.58.59-.58 1.53 0 2.12.14.14.31.25.49.32a1.435 1.435 0 001.15 0c.18-.07.34-.18.48-.32.29-.28.44-.66.44-1.06s-.16-.78-.44-1.06l-.22-.19zM203.43 42.35a.906.906 0 00-.13-.26 2.11 2.11 0 00-.19-.23 2.11 2.11 0 00-.23-.19l-.26-.14-.28-.08c-.49-.09-1 .06-1.35.41-.07.07-.13.15-.19.23-.05.08-.1.17-.14.26-.03.09-.06.19-.08.28-.01.1-.01.19 0 .29 0 .2.04.39.11.57.08.18.19.35.33.49s.31.25.49.33c.37.15.77.15 1.14 0 .18-.08.35-.19.49-.33s.25-.31.32-.49c.08-.18.12-.37.12-.57.01-.1.01-.19 0-.29-.04-.1-.09-.19-.15-.28zM211.66 14.68a1.499 1.499 0 002.12 0c.14-.14.25-.31.32-.49.08-.18.12-.37.12-.57.01-.1.01-.19 0-.29-.02-.1-.05-.19-.09-.28a.939.939 0 00-.14-.26c-.05-.09-.11-.16-.18-.23-.6-.56-1.52-.56-2.12 0-.07.07-.13.15-.19.23-.05.08-.1.17-.14.26-.04.09-.06.18-.08.28-.01.1-.01.19 0 .29 0 .2.04.39.11.57.06.18.15.34.27.49z"/></g></g><g id="bottle"><g id="colors-3"><path id="Shape" class="shp13" d="M303.85 177.99c4.69 0 8.5 3.81 8.5 8.5 0 4.69-3.81 8.5-8.5 8.5-4.69 0-8.5-3.81-8.5-8.5 0-4.69 3.81-8.5 8.5-8.5zM293.17 218.28c2.78 0 5.3 1.67 6.36 4.24 1.07 2.57.49 5.53-1.48 7.5a6.892 6.892 0 01-7.5 1.5 6.897 6.897 0 01-4.25-6.36c0-3.8 3.07-6.87 6.87-6.88z"/><path id="Shape" class="shp14" d="M262.93 33.59c7.65.2 13.75 6.47 13.75 14.13 0 7.65-6.1 13.92-13.75 14.12h-83.76c-7.65-.2-13.75-6.47-13.75-14.12 0-7.66 6.1-13.93 13.75-14.13h83.76z"/><path id="Oval" class="shp15" d="M265.92 203.88a5.86 5.86 0 01-5.87-5.87 5.86 5.86 0 015.87-5.87 5.86 5.86 0 015.87 5.87 5.86 5.86 0 01-5.87 5.87z"/><path id="Shape" class="shp14" d="M260.05 91.4a103.868 103.868 0 0153.81 45.49c-24.51-7.43-48 7.7-72.07 23.17-25.74-20.22-101.74-46.38-118.17-13.9 10.78-24.91 32-44.77 58.43-54.76h78z"/><path id="Rectangle-path" class="shp14" d="M182.05 61.84h78V91.4h-78V61.84z"/><path id="Oval" class="shp15" d="M218.42 261.76c-3.24 0-5.86-2.62-5.86-5.87s2.62-5.87 5.86-5.87 5.86 2.62 5.86 5.87-2.62 5.87-5.86 5.87z"/><path id="Shape" fill-rule="evenodd" d="M241.79 160.06c-6.85 4.41-13.75 8.84-20.74 12.78-42.5 24-105 17.09-97.43-26.68 16.43-32.48 92.43-6.32 118.17 13.9zm-56.54-12.72a4.53 4.53 0 00-4.95.98 4.543 4.543 0 00-.99 4.95c.71 1.69 2.36 2.8 4.2 2.8 2.5 0 4.53-2.03 4.54-4.53 0-1.84-1.1-3.5-2.8-4.2z" fill="url(#grd1)"/><path id="Shape" d="M183.51 147c1.84 0 3.5 1.1 4.2 2.8a4.53 4.53 0 01-.98 4.95 4.543 4.543 0 01-4.95.99 4.559 4.559 0 01-2.8-4.2c0-2.5 2.03-4.53 4.53-4.54z" fill="#31bbf7"/><path id="Shape" d="M165.05 225.16c4.69 0 8.5 3.81 8.5 8.5 0 4.69-3.81 8.5-8.5 8.5-4.69 0-8.5-3.81-8.5-8.5 0-4.69 3.81-8.5 8.5-8.5z" fill="#52caff"/><path id="Shape" fill-rule="evenodd" d="M221.05 172.84c7-3.94 13.89-8.37 20.74-12.78 24.08-15.47 47.56-30.6 72.07-23.17a94.821 94.821 0 0112.44 47c0 37.47-21.91 70.1-54.28 87.07a27.94 27.94 0 014.84 5 5.055 5.055 0 01.42 5.29 5.053 5.053 0 01-4.53 2.77H169.34c-1.89 0-3.63-1.06-4.5-2.74-.87-1.69-.72-3.71.37-5.26.82-1.1 1.71-2.14 2.68-3.11.69-.71 1.42-1.38 2.19-2-32.37-17-54.28-49.6-54.28-87.07a94.32 94.32 0 017.82-37.68c-7.57 43.77 54.93 50.68 97.43 26.68zm82.8 5.15c-4.69 0-8.5 3.81-8.5 8.5 0 4.69 3.81 8.5 8.5 8.5 4.69 0 8.5-3.81 8.5-8.5 0-4.69-3.81-8.5-8.5-8.5zm-8.04 40.81a6.868 6.868 0 00-7.5 1.48 6.892 6.892 0 00-1.5 7.5 6.897 6.897 0 006.36 4.25c3.8 0 6.87-3.07 6.88-6.87 0-2.78-1.67-5.3-4.24-6.36zm-29.89-26.66c-3.24 0-5.87 2.63-5.87 5.87s2.63 5.87 5.87 5.87 5.87-2.63 5.87-5.87-2.63-5.87-5.87-5.87zm-41.63 63.75c0-3.24-2.63-5.87-5.87-5.87s-5.87 2.63-5.87 5.87 2.63 5.87 5.87 5.87 5.87-2.63 5.87-5.87zm-50.74-22.21c0-4.69-3.81-8.5-8.5-8.5-4.69 0-8.5 3.81-8.5 8.5 0 4.69 3.81 8.5 8.5 8.5 4.69 0 8.5-3.81 8.5-8.5z" fill="url(#grd2)"/></g><g id="shadows-3"><path id="Oval" class="shp4" d="M188.64 49.23c-1.92 0-3.47-1.55-3.47-3.47 0-1.92 1.55-3.47 3.47-3.47 1.92 0 3.47 1.55 3.47 3.47 0 1.92-1.55 3.47-3.47 3.47zM178.12 49.22c-2.7 0-4.88-2.18-4.88-4.88 0-2.7 2.18-4.88 4.88-4.88 2.7 0 4.88 2.18 4.88 4.88 0 2.7-2.18 4.88-4.88 4.88z"/><path id="Shape" d="M208.8 61.84h-15.5v12c0 4.69 3.81 8.5 8.5 8.5 4.69 0 8.5-3.81 8.5-8.5v-12h-1.5z" opacity=".349" fill="#fff"/><path id="Shape" class="shp21" d="M253.46 33.59c.01.13.01.26 0 .39h-64.78c-.01-.13-.01-.26 0-.39h64.78zM132.21 132.42l-7.77 13.11.44-1.55 7.33-11.56zM160 102.9l-21.02 18.82.42-.66 19.76-17.69.84-.47z"/><path id="Shape" d="M267.58 270.91c34.46-18.67 54.51-56.05 50.99-95.09-3.52-39.03-29.93-72.23-67.18-84.43l14.83 2.56 16.72 9.41 19.75 17.69 14.52 22.93 8.53 29.61.56 24.41-7.82 23.52-12.15 20.63-13.9 14.79-15.54 11-9.31 2.97z" opacity=".102" fill="#fff"/><path id="Shape" class="shp21" d="M253.42 33.98c-1.67 9.22-63.07 9.22-64.74 0h64.74z"/><path id="Shape" class="shp11" d="M269.81 35.41l-7.7-1.43h.81l6.89 1.43z"/><path id="Shape" d="M271.34 38.02l-1.52-2.6-7.7-1.43h-8.69c-1.67 9.22-63.07 9.22-64.74 0h-9.54l-6.89 1.43-2.21 3.71c1 .55 2.04 1.02 3.1 1.43 16.65 6.5 58 7.6 82.92 3.28a67.38 67.38 0 0012.8-3.28c1.06-.41 2.1-.88 3.1-1.43l-.63-1.11z" opacity=".502" fill="url(#grd3)"/><path id="Shape" class="shp10" d="M277.05 47.68l-3.31 9.13-8.77 5h-89.8l-6.44-4.61-4.18-9.52 4.92-10.83 7.48-2.91c-2.9 1.42-5.27 3.73-6.78 6.58-1.18 2.2-1.79 4.66-1.78 7.16v.06c0 4.19 5.85 8.51 9.66 8.66 8.88.33 25.93.21 43.17.2h12.47c4.07 0 8-.07 11.69-.15 13.84 0 10.71-12.62 10.71-12.62a67.38 67.38 0 0012.8-3.28c1.06-.41 2.1-.88 3.1-1.43l-.65-1.11-1.52-2.6 5.06 4.78 2.17 7.49z"/><path id="Shape" d="M313.86 136.89c-22.81 113.13-123.81 117.17-180.81 101.17l23.5 25.5 13.5 7.35h102l14.28-7.61 16.5-15.75 15.75-24.75 5.18-17.12 2.54-23.35-2.54-24.65-9.9-20.79z" opacity=".071" fill="url(#grd4)"/><path id="Shape" d="M275.44 275.98l-3.42-5.07H168.3l-3.09 7.31h89.48l2.69 5.79h18.17l2.25-5.79v-2.5l-2.36.26z" opacity=".071" fill="url(#grd5)"/><path id="Shape" class="shp21" d="M138.97 121.73l-6.7 10.58 5.78-9.75.92-.83zM169.77 97.4l-9.76 5.49 2.04-1.83 7.72-3.66z"/><path id="Shape" d="M129.05 150.99c.93-1.51 33.29-52.41 147.94-46.79l-8-5.14-14.75-7.66H190.7l-13.06 2.28-7.81 3.71h-.06l-9.72 5.5-21 18.82-6.7 10.58-.06.11-7.77 13.11-8.08 28.07-.56 24.41 7.82 23.52 12.15 20.63 13.9 14.79 15.54 11 9.31 2.94c-42.75-23.17-62.12-74.13-45.55-119.85v-.03z" opacity=".071" fill="url(#grd6)"/><path id="Shape" class="shp11" d="M194.55 270.92c-6.93 6.93-3.17 13.81-3.17 13.81h-16.16c-5.92-5.92 5.3-13.81 5.3-13.81h14.03z"/><path id="Oval" d="M291.59 249.7c-1.21 0-2.18-.97-2.18-2.18 0-1.21.97-2.18 2.18-2.18 1.21 0 2.18.97 2.18 2.18 0 1.21-.97 2.18-2.18 2.18z" opacity=".31" fill="#fff"/><path id="Shape" d="M300.43 249.59c-38.43 21.33-119.91 21.33-158.38 0l28 21.33h102l28.38-21.33z" opacity=".502" fill="url(#grd7)"/><path id="Shape" d="M277.05 48.39l-1.75-8.58h-4.65l-3.45 1.36c9.09 13.51-5.59 20.07-12.41 20.67h10.13l10.12-4.9 1.41-7.71-.12-.73.72-.11z" opacity=".38" fill="url(#grd8)"/><path id="Shape" class="shp30" d="M252.05 91.4h8V61.84h-8a44.982 44.982 0 010 29.56z"/><path id="Shape" fill-rule="evenodd" class="shp10" d="M260.05 61.84V91.4h-77.66V61.84h77.66zm-28.53 23.35c8.13-.51 7.53-12.8-.66-12.82h-20.6v-.09h-16c-3.57 0-6.46 2.89-6.46 6.46s2.89 6.46 6.46 6.46h37.26v-.01z"/><path id="Oval" class="shp30" d="M302.41 190.64c-2.3 0-4.16-1.86-4.16-4.16s1.86-4.16 4.16-4.16 4.16 1.86 4.16 4.16-1.86 4.16-4.16 4.16z"/><path id="Oval" d="M238.34 115.11c-1.64 0-2.96-1.32-2.96-2.96s1.32-2.96 2.96-2.96 2.96 1.32 2.96 2.96-1.32 2.96-2.96 2.96z" opacity=".6" fill="url(#grd9)"/><path id="Oval" class="shp30" d="M292.1 226.93a2.97 2.97 0 110-5.94 2.97 2.97 0 010 5.94zM217.13 257.81a2.97 2.97 0 110-5.94 2.97 2.97 0 010 5.94zM162.59 237.76a4.52 4.52 0 01-4.53-4.53 4.52 4.52 0 014.53-4.53 4.52 4.52 0 014.53 4.53 4.52 4.52 0 01-4.53 4.53zM264.43 199.72c-1.09 0-1.98-.89-1.98-1.98 0-1.09.89-1.98 1.98-1.98 1.09 0 1.98.89 1.98 1.98 0 1.09-.89 1.98-1.98 1.98zM182.73 151.95c-.66 0-1.2-.54-1.2-1.2 0-.66.54-1.2 1.2-1.2.66 0 1.2.54 1.2 1.2 0 .66-.54 1.2-1.2 1.2z"/><path id="Shape" d="M217.25 112.39l10.14-1.71c1.67-.29 3.34.54 4.11 2.05.49.96.57 2.08.2 3.1a3.916 3.916 0 01-2.14 2.25l-9.46 4c-2.46 1.04-5.3.01-6.51-2.37a5.084 5.084 0 01-.02-4.59 5.073 5.073 0 013.68-2.73z" opacity=".6" fill="url(#grd10)"/><path id="Shape" d="M286.5 253.98c-2.9 2.38-6 4.5-9.28 6.33-1.67.92-3.76.42-4.84-1.15a3.71 3.71 0 01.9-5.11c2.71-1.92 5.26-4.04 7.65-6.34a4.18 4.18 0 013.33-1.13c1.22.13 2.32.79 3.01 1.81 1.23 1.78.9 4.21-.77 5.59z" opacity=".502" fill="url(#grd11)"/></g><g id="lines-3"><path id="Shape" fill-rule="evenodd" class="shp12" d="M401.05 281.03c1.66 0 3 1.34 3 3s-1.34 3-3 3h-388c-1.66 0-3-1.34-3-3s1.34-3 3-3h148.52a7.932 7.932 0 011.27-6.83c.68-.92 1.42-1.8 2.2-2.64-32.31-18.53-52.2-51.77-52.2-87.7a97.45 97.45 0 018.11-39v-.09c2.95-6.77 6.64-13.19 11-19.15a107.128 107.128 0 0147.11-36.26V64.83c-9.46-.03-17.09-7.72-17.06-17.18.03-9.46 7.72-17.09 17.18-17.06h83.75c9.46-.03 17.15 7.6 17.18 17.06.03 9.46-7.6 17.15-17.06 17.18v24.53c18.81 7.4 35.15 19.97 47.12 36.26a98.167 98.167 0 0119.14 58.21c0 35.93-19.9 69.17-52.21 87.71.77.83 1.49 1.7 2.17 2.61a7.933 7.933 0 011.29 6.86h120.49v.02zm-144-192.63V64.84h-72V88.4h72zm-77.87-29.59h83.75c6.01-.18 10.8-5.11 10.8-11.12 0-6.02-4.79-10.95-10.8-11.13h-83.75c-6.14.01-11.12 4.98-11.13 11.12.01 6.14 4.99 11.12 11.13 11.13zm3.45 35.59a101.31 101.31 0 00-45.84 34.82c-.64.88-1.26 1.77-1.87 2.67 2.57-1.14 5.25-2.02 8-2.62 29.39-6.52 77.89 11.67 99 27.19 21.19-13.63 43.02-27.21 65.66-24a87.34 87.34 0 00-2.28-3.27 101.312 101.312 0 00-45.84-34.77h-58.29l-10 10c-.37.4-.94.57-1.47.43a1.48 1.48 0 01-1.08-1.08c-.14-.53.03-1.1.43-1.47l7.87-7.91h-4.51l-13.24 13.24c-.37.4-.94.57-1.47.43a1.48 1.48 0 01-1.08-1.08c-.14-.53.03-1.1.43-1.47l11.13-11.15h-5.55v.04zm-56.13 52.72c-1.98 12.09 1.65 21.5 10.8 27.98 18.37 12.96 54.51 10.83 82.28-4.85 5.67-3.2 11.36-6.78 16.93-10.34-10.17-7.04-25.45-14.18-41.09-19.18-20.29-6.46-38.46-8.46-51.15-5.65-8.55 1.85-14.52 5.9-17.77 12v.04zM272.79 281c.8 0 1.53-.45 1.88-1.17.35-.68.28-1.49-.17-2.1-1.05-1.4-2.24-2.68-3.55-3.83h-30.53c-1.66 0-3-1.34-3-3s1.34-3 3-3h4.33l19.76-19.76c.59-.55 1.51-.53 2.08.04.57.57.59 1.49.04 2.08l-17.64 17.64h4.76l3.93-3.93c.59-.55 1.51-.53 2.08.04.57.57.59 1.49.04 2.08l-1.8 1.8h13.3c32.07-17.07 52-49.26 52-84.07 0-15.53-3.94-30.81-11.46-44.4-22.73-6.25-44.87 8-68.28 23l-.1.07-.09.06c-6.78 4.36-13.84 8.84-20.84 12.84a110.384 110.384 0 01-52.9 14c-14.02 0-26.79-3.11-35.79-9.46a31.394 31.394 0 01-12.58-17.25 91.7 91.7 0 00-2.42 21.13c0 34.81 19.88 66.95 52 84.07h34.33c1.66 0 3 1.34 3 3s-1.34 3-3 3h-34c-.39.34-.78.69-1.17 1.08-.86.86-1.66 1.79-2.39 2.77-.45.6-.51 1.41-.16 2.07a2.11 2.11 0 001.89 1.17l103.45.03z"/><path id="Shape" fill-rule="evenodd" class="shp12" d="M293.18 233.53a8.386 8.386 0 01-8.37-8.37c0-3.39 2.04-6.45 5.17-7.75 3.13-1.3 6.74-.58 9.14 1.81a8.399 8.399 0 011.81 9.14 8.393 8.393 0 01-7.75 5.17zm-5.37-8.37c0 2.18 1.31 4.14 3.32 4.97 2.02.83 4.33.37 5.87-1.17a5.392 5.392 0 001.16-5.87 5.387 5.387 0 00-4.98-3.31 5.38 5.38 0 00-5.37 5.38zM225.79 255.89a7.383 7.383 0 01-7.37 7.37 7.37 7.37 0 117.37-7.37zm-7.37 4.37c2.41 0 4.37-1.96 4.37-4.37s-1.96-4.37-4.37-4.37-4.37 1.96-4.37 4.37 1.96 4.37 4.37 4.37zM265.92 205.37a7.383 7.383 0 01-7.37-7.37 7.37 7.37 0 117.37 7.37zm0-11.69c-2.39 0-4.34 1.93-4.37 4.32 0 2.41 1.96 4.37 4.37 4.37s4.37-1.96 4.37-4.37-1.96-4.37-4.37-4.37v.05zM177.51 151.57c0-3.31 2.69-6 6-6s6 2.69 6 6-2.69 6-6 6-6-2.69-6-6zm6-3.07c-1.66 0-3 1.34-3 3s1.34 3 3 3 3-1.34 3-3-1.34-3-3-3zM175.05 233.68c0 5.52-4.48 10-10 10s-10-4.48-10-10 4.48-10 10-10 10 4.48 10 10zm-3 0c0-3.87-3.13-7-7-7s-7 3.13-7 7 3.13 7 7 7 7-3.13 7-7zM303.85 196.48c-5.52 0-10-4.48-10-10s4.48-10 10-10 10 4.48 10 10-4.48 10-10 10zm0-17c-3.87 0-7 3.13-7 7s3.13 7 7 7 7-3.13 7-7-3.13-7-7-7z"/><path id="Shape" class="shp12" d="M186.12 211.4c-.19.04-.38.09-.56.17-.18.07-.36.16-.52.28-.17.1-.32.23-.46.37-.14.14-.26.29-.37.45-.11.17-.2.34-.28.52-.07.18-.13.37-.17.56-.08.39-.08.79 0 1.18.04.19.1.38.17.56.08.18.17.35.28.52.11.16.24.31.37.45a3 3 0 004.24 0c.14-.14.27-.29.38-.45.11-.16.2-.34.27-.52.08-.18.14-.37.18-.56.01-.2.01-.39 0-.59 0-.9-.4-1.75-1.1-2.32a3.03 3.03 0 00-2.48-.62h.05zM204.72 169.37a2.996 2.996 0 002.12-5.12 3.026 3.026 0 00-2.71-.83c-.19.04-.38.1-.56.18-.18.07-.36.16-.52.27a3.009 3.009 0 00-1.1 3.64 3.007 3.007 0 002.77 1.85v.01zM145.38 154.54a2.88 2.88 0 001.15-.24c.18-.07.36-.16.52-.27.16-.11.31-.23.45-.37a2.818 2.818 0 00.65-.98c.08-.18.13-.37.17-.56a2.856 2.856 0 000-1.17 2.78 2.78 0 00-.17-.56c-.07-.18-.16-.36-.27-.52-.11-.16-.24-.32-.38-.46a3.16 3.16 0 00-.45-.37c-.16-.11-.34-.2-.52-.27-.18-.08-.37-.14-.56-.18-.39-.07-.78-.07-1.17 0-.19.04-.38.1-.56.18-.18.07-.36.16-.52.27-.16.11-.32.23-.46.37a3.241 3.241 0 00-.65.98c-.07.18-.13.37-.17.56a2.997 2.997 0 00.82 2.71c.57.56 1.33.87 2.12.88zM238.11 184.09a2.88 2.88 0 001.17 0c.2-.03.39-.09.57-.17.18-.07.35-.16.51-.27.17-.11.32-.24.46-.38s.26-.29.37-.45c.11-.16.2-.34.28-.52.07-.18.13-.37.17-.56.08-.39.08-.78 0-1.17-.04-.19-.1-.38-.17-.56a3.246 3.246 0 00-.65-.98 3.095 3.095 0 00-4.24 0 2.818 2.818 0 00-.65.98c-.08.18-.14.37-.17.56-.04.19-.06.39-.06.58 0 .8.32 1.56.88 2.12.14.14.29.27.45.38.17.1.34.19.52.27.18.08.37.14.56.17zM268.13 178.91c.17.11.34.2.52.28.18.07.37.13.56.17a2.88 2.88 0 001.18 0c.19-.04.38-.1.56-.17.18-.08.35-.17.51-.28a2.762 2.762 0 00.83-.83c.11-.16.2-.33.28-.51.07-.18.13-.38.17-.57a2.856 2.856 0 000-1.17 2.78 2.78 0 00-.17-.56c-.08-.18-.17-.35-.28-.52a3.16 3.16 0 00-.37-.45 3.095 3.095 0 00-4.24 0c-.14.14-.27.29-.38.45-.1.17-.19.34-.27.52-.08.18-.13.37-.17.56a2.997 2.997 0 001.27 3.08zM5.78 282.86c-.08-.18-.17-.35-.28-.51-.11-.16-.23-.32-.37-.46-.14-.14-.29-.26-.46-.37a2.61 2.61 0 00-.52-.28 2.78 2.78 0 00-.56-.17c-.98-.2-2 .11-2.71.82-.14.14-.26.29-.37.46-.11.16-.2.33-.28.51-.07.18-.13.37-.17.56a2.88 2.88 0 000 1.18c.04.19.1.38.17.56.08.18.17.35.28.52A3.015 3.015 0 003 287.01c.8 0 1.57-.32 2.13-.88.13-.14.26-.29.37-.45.11-.17.2-.34.28-.52.07-.18.13-.37.17-.56a2.88 2.88 0 000-1.18c-.04-.19-.1-.38-.17-.56zM412.67 281.68c-.16-.11-.34-.2-.52-.27a2.78 2.78 0 00-.56-.17c-.39-.08-.78-.08-1.17 0-.19.04-.38.09-.56.17a2.818 2.818 0 00-.98.65c-.56.56-.87 1.33-.87 2.12-.02.19-.02.39 0 .58.04.2.1.39.18.57.07.18.16.35.27.51.11.16.23.32.37.46a2.997 2.997 0 004.62-.46c.11-.16.2-.33.27-.51.08-.18.14-.37.18-.57.03-.19.05-.39.05-.58 0-.8-.32-1.56-.88-2.12a2.4 2.4 0 00-.4-.38zM149.82 198.53a3.246 3.246 0 00-.65-.98 3.116 3.116 0 00-4.24 0 2.818 2.818 0 00-.65.98c-.08.18-.13.37-.17.56a2.856 2.856 0 000 1.17c.04.19.09.38.17.56.07.18.17.36.28.52.1.17.23.32.37.45a2.99 2.99 0 003.26.65 3.007 3.007 0 001.86-2.76c0-.19-.02-.39-.06-.58-.04-.19-.1-.39-.17-.57zM162.28 171.49c.08.18.17.35.28.52a2.997 2.997 0 003.64 1.1c.18-.07.35-.17.51-.28.17-.1.32-.23.46-.37.14-.14.26-.29.37-.45.11-.17.2-.34.28-.52.07-.18.13-.37.17-.56.08-.39.08-.79 0-1.18-.04-.19-.1-.38-.17-.56-.08-.18-.17-.35-.28-.52a3.16 3.16 0 00-.37-.45 3.095 3.095 0 00-4.24 0c-.14.14-.26.29-.37.45-.11.16-.2.34-.28.52-.08.18-.13.37-.17.56-.08.39-.08.79 0 1.18.04.19.09.38.17.56zM262.83 260.51a1.397 1.397 0 00-.54-.23 1.417 1.417 0 00-.86.09c-.18.08-.35.19-.49.32-.07.07-.13.15-.19.23-.05.08-.1.17-.13.26-.04.09-.07.18-.09.28-.01.1-.01.19 0 .29a1.499 1.499 0 001.5 1.5c.83 0 1.5-.67 1.5-1.5a1.502 1.502 0 00-.7-1.24zM236.93 133.88c.4 0 .78-.16 1.06-.44l13.33-13.33c.55-.59.53-1.51-.04-2.08-.57-.57-1.49-.59-2.08-.04l-13.33 13.33c-.43.43-.56 1.07-.32 1.63.23.56.77.93 1.38.93zM248.94 128.74c.59.58 1.53.58 2.12 0l12.18-12.18c.4-.37.57-.94.43-1.47a1.48 1.48 0 00-1.08-1.08c-.53-.14-1.1.03-1.47.43l-12.18 12.18c-.58.59-.58 1.53 0 2.12zM229.38 267.91h-12.25c-1.66 0-3 1.34-3 3s1.34 3 3 3h12.25c1.66 0 3-1.34 3-3s-1.34-3-3-3zM440.05 281.01h-18.12c-1.66 0-3 1.34-3 3s1.34 3 3 3h18.12c1.66 0 3-1.34 3-3s-1.34-3-3-3z"/></g><g id="lights"><path id="Oval" class="shp34" d="M190.91 160.73c-15.71 15.71-35.91 20.9-45.19 11.62-9.28-9.29-4.09-29.49 11.62-45.19 15.7-15.71 35.9-20.91 45.19-11.62 9.28 9.28 4.09 29.48-11.62 45.19z"/><path id="Oval" d="M172.05 230.74c-44.24 0-80-35.76-80-80s35.76-80 80-80 80 35.76 80 80-35.76 80-80 80z" fill="url(#grd12)"/><g id="Group" opacity=".851"><path id="Shape" class="shp36" d="M152.38 148.22v-.01.01zM158.84 138.52l-5.06-1.27-1.4-8.43-1.41 8.43-5.06 1.27 5.06 1.26 1.41 8.43 1.4-8.43 5.06-1.26z"/><path id="Oval" d="M152.38 152.53c-7.75 0-14.01-6.26-14.01-14.01s6.26-14.01 14.01-14.01 14.01 6.26 14.01 14.01-6.26 14.01-14.01 14.01z" fill="url(#grd13)"/></g><g id="Group" opacity=".851"><path id="Shape" class="shp36" d="M190.52 45.68l-2.98-.74-.83-4.97-.83 4.97-2.98.74 2.98.75.83 4.97.83-4.97 2.98-.75z"/><path id="Oval" d="M186.71 53.94a8.25 8.25 0 01-8.26-8.26 8.25 8.25 0 018.26-8.26 8.25 8.25 0 018.26 8.26 8.25 8.25 0 01-8.26 8.26z" fill="url(#grd14)"/></g><g id="Group" opacity=".851"><path id="Shape" class="shp36" d="M136.54 181.71l-2.73-.69-.76-4.54v-.01l-.76 4.55-2.73.69 2.73.68.76 4.55.76-4.55 2.73-.68z"/><path id="Oval" d="M133.05 189.27c-4.18 0-7.56-3.38-7.56-7.56s3.38-7.56 7.56-7.56 7.56 3.38 7.56 7.56-3.38 7.56-7.56 7.56z" fill="url(#grd15)"/></g><path id="Oval" d="M178.4 97c-27.65 0-50-22.35-50-50s22.35-50 50-50 50 22.35 50 50-22.35 50-50 50z" fill="url(#grd16)"/><path id="Oval" class="shp34" d="M137.72 196.33a9.32 9.32 0 01-9.33-9.33 9.32 9.32 0 019.33-9.33 9.32 9.32 0 019.33 9.33 9.32 9.32 0 01-9.33 9.33z"/></g></g></g></g></svg>