<svg width="509" height="302" xmlns="http://www.w3.org/2000/svg"><defs><linearGradient x1="2.484%" y1="9.087%" x2="86.832%" y2="100.169%" id="a"><stop stop-color="#FFF04D" offset="0%"/><stop stop-color="#F55645" offset="100%"/></linearGradient><linearGradient x1="20.946%" y1="0%" x2="81.489%" y2="100%" id="b"><stop stop-color="#FFF04D" offset="0%"/><stop stop-color="#F55645" offset="100%"/></linearGradient><linearGradient x1="0%" y1="50%" x2="100%" y2="50%" id="c"><stop stop-color="#FFF" stop-opacity=".8" offset="0%"/><stop stop-color="#959595" stop-opacity=".33" offset="86%"/><stop stop-color="#FFF" stop-opacity="0" offset="100%"/></linearGradient><linearGradient x1="99.959%" y1="50.094%" x2="0%" y2="50.094%" id="d"><stop stop-color="#FFF" stop-opacity=".6" offset="0%"/><stop stop-color="#FFF" stop-opacity=".59" offset="21%"/><stop stop-color="#FFF" stop-opacity=".55" offset="37%"/><stop stop-color="#FFF" stop-opacity=".48" offset="51%"/><stop stop-color="#FFF" stop-opacity=".39" offset="65%"/><stop stop-color="#FFF" stop-opacity=".28" offset="78%"/><stop stop-color="#FFF" stop-opacity=".13" offset="90%"/><stop stop-color="#FFF" stop-opacity="0" offset="100%"/></linearGradient><linearGradient x1="34833%" y1="31332%" x2="44032%" y2="31332%" id="e"><stop stop-color="#FFF" stop-opacity=".6" offset="0%"/><stop stop-color="#FFF" stop-opacity=".59" offset="21%"/><stop stop-color="#FFF" stop-opacity=".55" offset="37%"/><stop stop-color="#FFF" stop-opacity=".48" offset="51%"/><stop stop-color="#FFF" stop-opacity=".39" offset="65%"/><stop stop-color="#FFF" stop-opacity=".28" offset="78%"/><stop stop-color="#FFF" stop-opacity=".13" offset="90%"/><stop stop-color="#FFF" stop-opacity="0" offset="100%"/></linearGradient><linearGradient x1=".023%" y1="49.993%" x2="100%" y2="49.993%" id="f"><stop stop-color="#FFF" stop-opacity="0" offset="0%"/><stop stop-color="#878787" stop-opacity=".38" offset="15%"/><stop stop-color="#FFF" stop-opacity=".8" offset="100%"/></linearGradient><linearGradient x1="0%" y1="49.954%" x2="100%" y2="49.954%" id="g"><stop stop-color="#FFF" stop-opacity=".8" offset="0%"/><stop stop-color="#FFF" stop-opacity=".58" offset="22%"/><stop stop-color="#FFF" stop-opacity=".33" offset="49%"/><stop stop-color="#FFF" stop-opacity=".15" offset="72%"/><stop stop-color="#FFF" stop-opacity=".04" offset="90%"/><stop stop-color="#FFF" stop-opacity="0" offset="100%"/></linearGradient><linearGradient x1="49.935%" y1="100%" x2="49.935%" y2="0%" id="h"><stop stop-color="#FFF" stop-opacity="0" offset="0%"/><stop stop-color="#FFF" stop-opacity=".8" offset="100%"/></linearGradient><linearGradient x1="41014%" y1="54864%" x2="41014%" y2="53992%" id="i"><stop stop-color="#FFF" stop-opacity="0" offset="0%"/><stop stop-color="#FFF" stop-opacity=".8" offset="100%"/></linearGradient><linearGradient x1="35154%" y1="31390%" x2="36000%" y2="31390%" id="j"><stop stop-color="#FFF" stop-opacity=".6" offset="0%"/><stop stop-color="#FFF" stop-opacity=".59" offset="21%"/><stop stop-color="#FFF" stop-opacity=".55" offset="37%"/><stop stop-color="#FFF" stop-opacity=".48" offset="51%"/><stop stop-color="#FFF" stop-opacity=".39" offset="65%"/><stop stop-color="#FFF" stop-opacity=".28" offset="78%"/><stop stop-color="#FFF" stop-opacity=".13" offset="90%"/><stop stop-color="#FFF" stop-opacity="0" offset="100%"/></linearGradient><linearGradient x1="0%" y1="50.164%" x2="100%" y2="50.164%" id="k"><stop stop-color="#FFF" stop-opacity="0" offset="0%"/><stop stop-color="#E6E6E6" stop-opacity=".08" offset="5%"/><stop stop-color="#FFF" stop-opacity=".8" offset="100%"/></linearGradient><linearGradient x1="30981%" y1="39012%" x2="47329%" y2="39012%" id="l"><stop stop-color="#FFF" stop-opacity="0" offset="0%"/><stop stop-color="#E6E6E6" stop-opacity=".08" offset="5%"/><stop stop-color="#FFF" stop-opacity=".8" offset="100%"/></linearGradient><linearGradient x1="25835%" y1="39782%" x2="33367%" y2="39782%" id="r"><stop stop-color="#FFF" stop-opacity=".6" offset="0%"/><stop stop-color="#FFF" stop-opacity=".59" offset="21%"/><stop stop-color="#FFF" stop-opacity=".55" offset="37%"/><stop stop-color="#FFF" stop-opacity=".48" offset="51%"/><stop stop-color="#FFF" stop-opacity=".39" offset="65%"/><stop stop-color="#FFF" stop-opacity=".28" offset="78%"/><stop stop-color="#FFF" stop-opacity=".13" offset="90%"/><stop stop-color="#FFF" stop-opacity="0" offset="100%"/></linearGradient><linearGradient x1="24484%" y1="31739%" x2="27478%" y2="31739%" id="s"><stop stop-color="#FFF" stop-opacity=".6" offset="0%"/><stop stop-color="#FFF" stop-opacity=".59" offset="21%"/><stop stop-color="#FFF" stop-opacity=".55" offset="37%"/><stop stop-color="#FFF" stop-opacity=".48" offset="51%"/><stop stop-color="#FFF" stop-opacity=".39" offset="65%"/><stop stop-color="#FFF" stop-opacity=".28" offset="78%"/><stop stop-color="#FFF" stop-opacity=".13" offset="90%"/><stop stop-color="#FFF" stop-opacity="0" offset="100%"/></linearGradient><linearGradient x1="45746%" y1="41852%" x2="45746%" y2="52685%" id="t"><stop stop-color="#FFF" stop-opacity=".6" offset="0%"/><stop stop-color="#FFF" stop-opacity=".59" offset="21%"/><stop stop-color="#FFF" stop-opacity=".55" offset="37%"/><stop stop-color="#FFF" stop-opacity=".48" offset="51%"/><stop stop-color="#FFF" stop-opacity=".39" offset="65%"/><stop stop-color="#FFF" stop-opacity=".28" offset="78%"/><stop stop-color="#FFF" stop-opacity=".13" offset="90%"/><stop stop-color="#FFF" stop-opacity="0" offset="100%"/></linearGradient><radialGradient cx="49.834%" cy="50.026%" fx="49.834%" fy="50.026%" r="25.662%" id="m"><stop stop-color="#FFF" stop-opacity=".1" offset="0%"/><stop stop-color="#FFF" stop-opacity=".08" offset="39%"/><stop stop-color="#FFF" stop-opacity=".04" offset="80%"/><stop stop-color="#FFF" stop-opacity="0" offset="100%"/></radialGradient><radialGradient cx="-10409%" cy="-2805%" fx="-10409%" fy="-2805%" r="2567%" id="n"><stop stop-color="#FFF" stop-opacity=".1" offset="0%"/><stop stop-color="#FFF" stop-opacity=".08" offset="39%"/><stop stop-color="#FFF" stop-opacity=".04" offset="80%"/><stop stop-color="#FFF" stop-opacity="0" offset="100%"/></radialGradient><radialGradient cx="50%" cy="50%" fx="50%" fy="50%" r="50%" id="o"><stop stop-color="#FFF" stop-opacity=".6" offset="0%"/><stop stop-color="#FFF" stop-opacity="0" offset="100%"/></radialGradient><radialGradient cx="20669%" cy="19500%" fx="20669%" fy="19500%" r="1052%" id="p"><stop stop-color="#FFF" stop-opacity=".6" offset="0%"/><stop stop-color="#FFF" stop-opacity="0" offset="100%"/></radialGradient><radialGradient cx="22975%" cy="4387%" fx="22975%" fy="4387%" r="1052%" id="q"><stop stop-color="#FFF" stop-opacity=".6" offset="0%"/><stop stop-color="#FFF" stop-opacity="0" offset="100%"/></radialGradient></defs><g fill-rule="nonzero" fill="none"><path d="M464 291.54a6.75 6.75 0 01-6.79 6.64H250.83a6.5 6.5 0 110-13h154.83v6.5l13.5-7 13.5 7v-6.5h24.84a6.49 6.49 0 016.5 6.36z" fill="#F2F8FF"/><path fill="#FFF" d="M452 250.25v34.93h-19.34v-17.46h-27v17.46h-150v-34.93z"/><path d="M424.79 178.33c14.61-.009 27.02 10.693 29.16 25.146 2.14 14.453-6.637 28.291-20.624 32.516-13.987 4.224-28.957-2.44-35.176-15.662a28.91 28.91 0 01-2.75-10.7c0-.62-.07-1.24-.07-1.87.006-16.268 13.192-29.454 29.46-29.46v.03zm19.48 31.74a17.23 17.23 0 00.14-2.28c-.014-9.982-7.52-18.363-17.441-19.471-9.92-1.109-19.092 5.408-21.309 15.141a19.29 19.29 0 00-.49 4.33 19.58 19.58 0 0019.62 19.62c9.955.005 18.332-7.452 19.48-17.34z" fill="#FFF7ED"/><path fill="#FCEBEB" d="M432.66 285.18v6.5l-13.5-7-13.5 7v-23.96h27z"/><path d="M409.35 130.02c7.11 1.91 11.87 7.18 10.64 11.78-1.23 4.6-8 6.79-15.1 4.89a18.75 18.75 0 01-6.83-3.36 13 13 0 01.17 2.1c0 4.87-2.55 8.82-5.7 8.82-3.15 0-5.71-4-5.71-8.82 0-3.35 1.22-6.27 3-7.76l6.31-5.74c2.75-2.46 7.89-3.34 13.22-1.91z" fill="#F2F8FF"/><path d="M402.5 188.57a29.09 29.09 0 00-4.85 7.83 21.43 21.43 0 00-20.47 0h-.05a28.9 28.9 0 00-4.85-7.84 33.35 33.35 0 0130.22.01z" fill="#FFF7ED"/><path d="M396.32 116.99c1.43 5.33.55 10.47-1.91 13.22l-5.74 6.31c-1.49 1.78-4.41 3-7.76 3-4.87 0-8.81-2.56-8.81-5.71s3.94-5.7 8.81-5.7a13 13 0 012.1.17 18.78 18.78 0 01-3.36-6.82c-1.9-7.12.29-13.87 4.89-15.11 4.6-1.24 9.87 3.53 11.78 10.64z" fill="#F2F8FF"/><path d="M395.4 209.66a28.91 28.91 0 002.75 10.7 27.07 27.07 0 00-5.58 12.75 4.78 4.78 0 01-4.69 4.14h-.08a4.74 4.74 0 01-4.7-5.41 36.24 36.24 0 0112.3-22.18zM377.06 196.41a29.13 29.13 0 012.29 11.38c.397 16.098-12.21 29.53-28.301 30.153-16.09.624-29.699-11.793-30.549-27.873-.07-.75-.1-1.51-.1-2.28a28.93 28.93 0 01.82-6.88 29.45 29.45 0 0151-12.34 28.9 28.9 0 014.84 7.84zm-7.56 11.38c0-10.836-8.784-19.62-19.62-19.62s-19.62 8.784-19.62 19.62 8.784 19.62 19.62 19.62 19.62-8.784 19.62-19.62z" fill="#FFF7ED"/><path d="M311.39 200.91h9.86a28.93 28.93 0 00-.82 6.88c0 .77 0 1.53.1 2.28h-34.88c-13.4-.002-24.805 9.76-26.87 23a4.78 4.78 0 01-4.69 4.14h-.08a4.74 4.74 0 01-4.7-5.41c2.681-17.78 17.959-30.928 35.94-30.93l26.14.04z" fill="#FFF7ED"/><path d="M151.2 245.73c2.55 7.15-1.48 13.51-1.48 13.51s-7.13-2.37-9.69-9.53c-2.56-7.16 1.47-13.53 1.47-13.53s7.15 2.39 9.7 9.55zM135.95 276.91a13.6 13.6 0 013.28-.4c.142.802.209 1.616.2 2.43a13.66 13.66 0 01-3 8.78c-4.16 5-10.55 4.72-10.55 4.72s-1.38-6.26 2.79-11.26a13.38 13.38 0 017.28-4.27zM132.5 253.99a13.77 13.77 0 013.63 10.56 12.8 12.8 0 01-14.16-14.26 13.76 13.76 0 0110.53 3.7z" fill="#F5FFE8"/><path d="M129.67 219.26c2.51 5.38-1.05 11.68-6.89 12.75a60.76 60.76 0 01-22.57-.15 55.86 55.86 0 00-9-2.78c.08-.41.18-.81.28-1.21.53-1.65 1-3.3 1.4-4.95A61.46 61.46 0 01105.13 201c3.9-4.46 11.14-4.3 14.48.6.145.213.279.433.4.66a9.38 9.38 0 01-3.52 12.8 9.4 9.4 0 0112.81 3.52c.2.22.26.45.37.68z" fill="#EEFFE6"/><path d="M131.5 105.94c0 4-5 7.23-11.17 7.23-4.25 0-7.94-1.54-9.83-3.8l-7.27-8c-3.13-3.49-4.23-10-2.42-16.76 2.41-9 9.09-15 14.93-13.48 5.84 1.52 8.6 10.13 6.19 19.14a23.83 23.83 0 01-4.26 8.65 16.47 16.47 0 012.66-.21c6.17 0 11.17 3.24 11.17 7.23zM109.05 110.83c2.26 1.89 3.8 5.58 3.8 9.83 0 6.17-3.24 11.17-7.23 11.17s-7.23-5-7.22-11.17c-.002-.89.068-1.78.21-2.66a23.83 23.83 0 01-8.65 4.26c-9 2.41-17.57-.36-19.14-6.19-1.57-5.83 4.47-12.52 13.48-14.93 6.76-1.81 13.27-.71 16.76 2.42l1.28-.9 6.81 6.81-.1 1.36z" fill="#F2F8FF"/><path d="M110.88 280.34a12.32 12.32 0 01-12.45 14.84 12.33 12.33 0 0112.45-14.82v-.02zM97.01 267.67a12.71 12.71 0 01-19.87 1.73 12.7 12.7 0 0119.87-1.73z" fill="#F5FFE8"/><path d="M94.01 192.99a70.18 70.18 0 01-1.1 29.93c-.53 1.62-1 3.26-1.4 4.95-.12.4-.25.79-.38 1.19a69.43 69.43 0 00-7.46-2 70 70 0 01-25-13.95c-5.09-4.45-4.9-12.7.69-16.5.24-.17.49-.32.74-.47 5.134-2.923 11.665-1.132 14.59 4-2.923-5.134-1.132-11.665 4-14.59.25-.14.51-.28.78-.4 6.13-2.87 13.32 1.19 14.54 7.84z" fill="#EEFFE6"/><path d="M91.23 229.08a55.86 55.86 0 019 2.78 69.85 69.85 0 01-9.08-2.37c.01-.14.04-.31.08-.41zM91.5 227.87c.41-1.69.87-3.33 1.4-4.95-.4 1.65-.86 3.26-1.4 4.95zM91.5 227.87c-.1.4-.2.8-.28 1.21h-.1c.14-.42.27-.81.38-1.21z" fill="#FFEBEB"/><path d="M91.13 229.06h.1c0 .13-.07.27-.1.41a69.85 69.85 0 009.08 2.37 48.12 48.12 0 0113.69 8.4 7.35 7.35 0 01-.48 11.56c-.167.12-.34.23-.52.33a7.32 7.32 0 01-3.9 1 7.46 7.46 0 01-6.33-3.78 7.5 7.5 0 01-2.82 10.23l-.54.28a7.37 7.37 0 01-10.19-5.5 48.85 48.85 0 01.31-19c.66-2.05 1.23-4.18 1.7-6.3z" fill="#EEFFE6"/><path d="M91.13 229.06c-.47 2.15-1 4.25-1.7 6.28a59.15 59.15 0 011.7-6.28zM83.67 227.04a69.43 69.43 0 017.46 2 76.27 76.27 0 01-7.46-2z" fill="#FFEBEB"/><path d="M91.13 229.06a59.15 59.15 0 00-1.7 6.28 58.26 58.26 0 01-11.63 20.84c-3.72 4.25-10.61 4.1-13.78-.57a8.94 8.94 0 012.96-12.81 8.94 8.94 0 01-12.19-3.35c-.12-.21-.23-.43-.33-.65-2.39-5.11 1-11.11 6.55-12.13a58.15 58.15 0 0122.64.38 76.27 76.27 0 007.48 2.01z" fill="#EEFFE6"/><path d="M85.99 282.25s-6.89 10.61-19.63 11.71c-12.74 1.1-21.36-8.15-21.36-8.15s6.9-10.61 19.64-11.72c12.74-1.11 21.35 8.16 21.35 8.16z" fill="#F5FFE8"/><path d="M462.1 239.18a6.51 6.51 0 01-4.6 11.1H250.83a6.5 6.5 0 110-13H457.5a6.51 6.51 0 014.6 1.9z" fill="#F2F8FF"/><path fill="#FFF7ED" d="M405.66 203.46l6.59-1.96 6.88-.5 24.04-.09 1.1 4.56v4.6h-27.14l-11.3 2.77z"/><g transform="translate(45 75)"><path d="M387.66 198.92h-14.33a6.5 6.5 0 00-6.5 6.5v8.32l-6.66 2.69.49-23.71 27 .7v5.5z" fill="#FFF" opacity=".35"/><path d="M365.38 212.12l6.1-5.81a5.24 5.24 0 016-.88l9.65 5.34v5.91l-13-6.5-8.75 1.94z" fill="#191919" opacity=".03"/><path d="M282.5 162.25a5.5 5.5 0 01-5.5 5.5h-53.25a5.5 5.5 0 01-5.5-5.5h64.25zM216.33 209.68a5.5 5.5 0 01-5.5 5.5h-10.75v-.47a5 5 0 015-5l11.25-.03zM327.1 162.25a5.5 5.5 0 005.5 5.5h25.06a5.5 5.5 0 005.5-5.5H327.1z" fill="#FFF" opacity=".5"/><path d="M401.75 162.25A7.75 7.75 0 01394 170H199.55l4.71 5.05H412.5l5.81-3.4V165l-4.31-2.75h-12.25zM414 209.7h-9.17v-.6h-17.17v7l-13.5-6.5-12.14 5.5-1.85-5.4v6.75H199.55l4.71 6.05H412.5l5.81-3.41v-6.64z" fill="#191919" opacity=".03"/><path fill="#191919" opacity=".04" d="M210.66 175.5H406.5v7.75H210.66zM206.63 148.45a9.42 9.42 0 007.87-4.27c5.25-8 13.75-12.66 25.75-13.72h35.25v4.57h-39.4l-10.12 3.81-7.75 8.38-5 12.39-3.73 2.64-5.24-2.5V154l2.37-5.55z"/><path d="M352.08 139.62l1.54 6-1.53 1.65-5 12.39-3.78 2.61-5.25-2.5v-5.75l2.36-5.55a9.42 9.42 0 007.88-4.23 28.35 28.35 0 013.78-4.62z" fill="#191919" opacity=".03"/><path d="M400.33 132.79l-.71 2.28h-29.66l-7.87 2.95-.92-4.46a42.1 42.1 0 0112.92-3.06h25.48l.76 2.29z" fill="#191919" opacity=".04"/><path d="M333.58 110.42l.07.23a5.4 5.4 0 005.65 3.74 38.28 38.28 0 0115.82 2.3l2.1-2.82-7.59-3.08-9.47-.84-6.58.47zM278.63 119.44a5.12 5.12 0 006.25-1.37c8.84-10.68 23.13-12.65 33.25-6.38a5.06 5.06 0 006.33-.84l-10.77-6.13-12.17-1.35-8.5 2.47-7.81 4.15-6.58 9.45z" fill="#FFF" opacity=".75"/><path d="M275.43 137.84s3.25 8.8 12.35 4.54l5.16 6 8.64 3.79 11.64-1.57 9.45-7.4 1.83-10.41-3.41-11.05s7.16-1.62 6.46-7.74l4.27 6.89 2.24 7.86.28 9.09-2.24 8.54-6.48 8.38-8.22 4.71-9.25 2.79-12.17-1.37-8.87-3.63-5.73-6.69-3.3-5.52-2.65-7.21z" fill="#191919" opacity=".03"/><path d="M353.71 119.44a5.12 5.12 0 006.25-1.37c8.84-10.68 23.13-12.65 33.25-6.38a5.06 5.06 0 006.33-.84l-10.77-6.13-12.17-1.35-8.5 2.47-7.81 4.15-6.58 9.45z" fill="#FFF" opacity=".75"/><path d="M350.5 137.84s3.25 8.8 12.35 4.54l5.16 6 8.64 3.79 11.64-1.57 9.45-7.4 1.85-10.38-3.41-11.05s7.16-1.62 6.46-7.74l4.27 6.89 2.24 7.86.28 9.09-2.24 8.54-6.48 8.38-8.21 4.67-9.25 2.79-12.17-1.37-8.87-3.63-5.71-6.69-3.3-5.52-2.7-7.2z" fill="#191919" opacity=".03"/><path d="M333.58 111.65l.46.86a5.49 5.49 0 005.54 2.86 24.36 24.36 0 0113.11 2.06l1.61.58-1.73 3.39-9-2.56-11.75 2.06-4.27-6.89 6.03-2.36zM53.43 220.16l12.45-14.82-.62 6.93-3.76 5.17zM80.84 217.44l13.34-15.53-.35 6.19a53.87 53.87 0 01-2.89 5.11c-.56.56-6.23 3.68-6.23 3.68l-3.87.55z" fill="#191919" opacity=".04"/><path d="M71.5 142c7.28 1.15 12.56 2.88 12.28 10.44l1.6-6-3.79-5-4.56-2.44-5.53 3z" fill="#FFF" opacity=".5"/><g opacity=".6" transform="translate(0 112)" fill="#FFF"><circle cx="35.83" cy="7.94" r="7.51"/><path d="M25.05 16.18a7.37 7.37 0 10-13.44 5.52l-.83.34 4.72 6.38 11.61 6.11c-7.05-4.91-.73-11.59-2.06-18.35zM52.13 28.62a45.62 45.62 0 0110.16-9.33 9.87 9.87 0 017.25-1.28 7.52 7.52 0 015.92 5.68l.49-6.21-4.45-6.3h-7l-7.12 5.69-5.25 11.75zM22.5 55.76c-15.33 2-7.94-14 3.65-15.15l-.36-1.88-9.78.93-4.32 2.42-2.77 4.3v5.63l3.4 3.75 5.22 2 4.96-2zM23.44 56.18c-3 5.38-3.23 10.64.25 15.74l-5.56-3.67s-.94-5.75-.87-6.06c.07-.31 2.6-4.71 2.6-4.71l3.58-1.3zM44.69 61.31c4 8.36 8.44 10.19 13.69 2.74l6.44.57c4-3.56 3.5-8.43.92-13.91l4.9 4.76.55 7-3.06 2.94-5.27.56-3.16-.5s-3.31 4.84-3.44 4.92c-.13.08-6.44 3.08-6.44 3.08l-4-2.62-1.9-4.76.77-4.78zM96.51 49.2l8.21 23.04-5.37-3.26-5.12-7.1L92.91 55zM76.98 63.29l14.55 14.72-.58-7.59-3.44-4.3-4.74-2.07zM32.14 82.4l19.3-1.37-3.53-3.17-6.92-1.18-5.86 2.64zM40.24 95.44C27.36 98.8 14.62 98.99.68 97.87l5-5.06 9-4.78 8.65-.67 7.25 2.14 7.13 3.42 2.53 2.52z"/></g><path d="M61.74 159.75l12.39-2.57a34.67 34.67 0 01-12.44-2.92 4 4 0 01-1.77-5.67l-.75-2.06h-.07a4.75 4.75 0 01-5.73-4.27 21.84 21.84 0 01.16-4.46l-3.42 1.72v-9.7a44.397 44.397 0 01-1.21 3.21 7.44 7.44 0 01-12 2.48 43.09 43.09 0 01-3.51-3.86l.55 1.62-2.78 1.22c1 1.86 2.08 3.47 2.79 5.08a4.31 4.31 0 01-4.52 6 30.86 30.86 0 01-6.32-1.66l8 6.52a5.44 5.44 0 011 6 22.91 22.91 0 01-6.74 8.22l1.46 2.58h.1a5.29 5.29 0 016.3 7.07 84.22 84.22 0 01-4.85 10l5.45-4.28 8.25-12.48 1.39 6.78a30.28 30.28 0 011.52-4 4.44 4.44 0 017.47-1l2.72-1.69v-.07a6.33 6.33 0 016.12-7.87l.44.06z" fill="#191919" opacity=".03"/><g opacity=".65" transform="translate(30)" fill="#FFF"><circle cx="8.68" cy="35.83" r="8.03"/><circle cx="28.96" cy="46.33" r="4.02"/><circle cx="46.01" cy="28.18" r="4.02"/><circle cx="34.8" cy="8.74" r="8.03"/><circle cx="313.67" cy="40.7" r="6.39"/><circle cx="302.46" cy="58.82" r="4.14"/><circle cx="317.52" cy="74.32" r="4.14"/><circle cx="335.5" cy="62.67" r="6.39"/></g><path d="M210.66 187.62a7.59 7.59 0 017.59 7.59 8.26 8.26 0 005.27 7.71c13.07 5.07 32 6.47 52.73 6.76l-66.12.44.53-22.5z" fill="#FFF" opacity=".94"/><rect fill="#FFF" opacity=".94" x="315.25" y="195.42" width="35.25" height="5.5" rx="2.75"/><path d="M394.5 204.18a5.19 5.19 0 01.48-7.31 5.1 5.1 0 001.7-3.81v-.72h-43v.72a5.14 5.14 0 005.14 5.14h1.32v-5.45h28.36v3.56l-.94.09.1 13.3 19.34-.8c-5.55-.38-9.84-1.85-12.5-4.72z" fill="#191919" opacity=".03"/></g><g fill="#D5E0E5"><path d="M463.5 285.66a8.48 8.48 0 00-6-2.48H454v-30.93h3.5a8.5 8.5 0 000-17h-17.38a31.45 31.45 0 10-38.14-49.07 35.09 35.09 0 00-29.28 0 31.43 31.43 0 00-53 12.75h-34.45c-18.943.086-35.016 13.921-37.92 32.64a6.68 6.68 0 00.74 4.17 8.5 8.5 0 002.76 16.53h2.83v30.91h-2.83a8.5 8.5 0 000 17h206.38a9 9 0 006.36-2.69 8.28 8.28 0 002.42-6 8.51 8.51 0 00-2.49-5.83zm-38.71-105.33c14.944-.004 27.148 11.944 27.46 26.885.314 14.941-11.38 27.39-26.31 28.011-14.932.622-27.62-10.81-28.55-25.726v-.09c0-.54-.05-1.07-.05-1.62.017-15.155 12.295-27.438 27.45-27.46zm-45.2 17.12a19 19 0 0115.49 0 31.31 31.31 0 00-1.76 10.35v1a38.26 38.26 0 00-12.23 22.74 6.67 6.67 0 00.52 3.7h-16.4c13.348-7.431 19.416-23.387 14.38-37.81v.02zm6.12 36.85a2.66 2.66 0 01-.63-2.16 34.23 34.23 0 018.84-18.28 31.19 31.19 0 001.92 6.26 29.11 29.11 0 00-5.25 12.7 2.8 2.8 0 01-2.79 2.44 2.75 2.75 0 01-2.09-.97v.01zm8.83-.88a25.08 25.08 0 013.39-9.25 31.69 31.69 0 0011.57 11.08h-15.49a7.1 7.1 0 00.49-1.84l.04.01zm4.76-44a31.49 31.49 0 00-2.67 4.39 23.06 23.06 0 00-18.61 0 31.49 31.49 0 00-2.67-4.39 30.58 30.58 0 0123.96-.05l-.01.05zm-49.42-9c14.879.004 27.047 11.858 27.442 26.731.395 14.874-11.128 27.356-25.985 28.15-14.858.794-27.645-10.39-28.837-25.221v-.05c-.06-.74-.1-1.48-.1-2.23 0-2.16.255-4.31.76-6.41v-.11c3.022-12.306 14.058-20.956 26.73-20.95l-.01.09zm-15.33 54.92h-74.33a7.1 7.1 0 00.54-1.84c1.957-12.245 12.49-21.275 24.89-21.34h33.08a31.52 31.52 0 0015.83 23.09l-.01.09zm-83.26-3.16c2.602-16.78 17.02-29.175 34-29.23h33.56a31.57 31.57 0 00-.38 4.88v.28h-32.82c-14.375.075-26.584 10.544-28.85 24.74a2.8 2.8 0 01-2.79 2.44 2.75 2.75 0 01-2.09-1 2.66 2.66 0 01-.63-2.11zm-5 11.61a4.5 4.5 0 014.5-4.5H457.5a4.5 4.5 0 010 9H250.83a4.5 4.5 0 01-4.5-4.54l-.04.04zm11.33 34.17h9.33a2 2 0 000-4h-9.33v-8.67h19.67a2 2 0 000-4h-19.63v-9H450v4h-11.34a2 2 0 000 4H450v22.89h-15.34v-13.47h5.67a2 2 0 000-4H400a2 2 0 000 4h3.67v13.47h-146l-.05-5.22zm150-8.2h23v18.59l-10.58-5.49a2 2 0 00-1.84 0l-10.58 5.49v-18.59zm53.05 25a4.94 4.94 0 01-3.5 1.49H250.83a4.5 4.5 0 010-9h152.83v4.5a2 2 0 002.92 1.78l12.58-6.52 12.58 6.52a2 2 0 002.92-1.78v-4.57h22.84a4.48 4.48 0 014.5 4.41 4.3 4.3 0 01-1.28 3.1l-.05.07zM204.79 296.58c-16.18-12.19-30.42-19.91-44.64-23.84a31.34 31.34 0 01-8.24-13.33 18.49 18.49 0 001.18-14.36c-2.85-8-10.61-10.65-10.94-10.75a2 2 0 00-2.32.83c-.19.29-4.52 7.27-1.67 15.25a18.49 18.49 0 0010 10.38 39.68 39.68 0 005.27 10.42 86.88 86.88 0 00-12.17-1.47 17 17 0 00-3.08-5.83 15.54 15.54 0 00-4.25-11.29c-5-5.06-11.9-4.31-12.19-4.27a2 2 0 00-1.75 1.74c0 .29-.84 7.16 4.19 12.22a15.49 15.49 0 0010.94 4.33h.09a12.64 12.64 0 011.75 3c-2.607 0-5.25.097-7.93.29a92.84 92.84 0 01-16.39-15.4 9.52 9.52 0 001.25-.58c.22-.13.44-.26.66-.41a9 9 0 003.91-7 9.6 9.6 0 00-3.24-7.76 49.39 49.39 0 00-5-3.8h1.79a61.42 61.42 0 0011.11-1 11.52 11.52 0 008.1-6 10.76 10.76 0 00-.19-10.38 11.31 11.31 0 00-6.88-5.35 11.49 11.49 0 00-2.06-.37 11.39 11.39 0 00-.83-11.39 10.76 10.76 0 00-8.33-4.67 11.47 11.47 0 00-9.31 3.88 61.5 61.5 0 00-6.62 9.2 70.15 70.15 0 00-1-16.27 12.84 12.84 0 00-6.71-9 12 12 0 00-10.63-.27c-.31.15-.62.3-.92.48a12.62 12.62 0 00-6 7.67 12.85 12.85 0 00-.44 2.71 12.71 12.71 0 00-13.08.75 12 12 0 00-5.2 9.28 12.84 12.84 0 004.33 10.38 70.11 70.11 0 0013.32 9.15 58.54 58.54 0 00-10 1 11.06 11.06 0 00-7.77 5.78 10.34 10.34 0 00.18 9.96 10.86 10.86 0 006.61 5.14c.6.165 1.212.278 1.83.34a11 11 0 00-.64 1.75 10.86 10.86 0 001.47 9.06 10.34 10.34 0 008 4.49H71a11.06 11.06 0 008.29-3.75 58.79 58.79 0 007.09-10.13 49.42 49.42 0 00.76 7.35 9.61 9.61 0 005 6.75 9.18 9.18 0 004.22 1 8.9 8.9 0 004.45-1.2 9.53 9.53 0 004.71-6.9 9.57 9.57 0 002.42.63 95.4 95.4 0 0015.27 15.42c-2.113.267-4.27.6-6.47 1-6.22-3.06-10.28-4.45-18.84-5.67a15.45 15.45 0 00-11.4-4.04 15.64 15.64 0 00-11 6.58 2 2 0 00.21 2.45 15.82 15.82 0 0010.79 4.64c.39 0 .79 0 1.2-.05a15.38 15.38 0 0010.22-5.53 50.85 50.85 0 0112.21 3 201.15 201.15 0 00-23.63 7.12c-2.7-2.47-10.83-8.82-22-7.84-13.55 1.17-20.83 12.15-21.14 12.62a2 2 0 00.14 2.46c.36.38 8.42 8.89 20.69 8.89.753 0 1.523-.033 2.31-.1 12-1 19-9.7 20.74-12a197.57 197.57 0 0124.06-7.27l-1.42 1.73a15 15 0 00-10.38 5.01 15.24 15.24 0 00-3 12.13 2 2 0 001.89 1.58h.19a15.2 15.2 0 0011.23-5.1 15 15 0 003.21-11.12l4.48-5.55a98.838 98.838 0 0110.32-1.4c1.193.853 2.4 1.68 3.62 2.48a14.48 14.48 0 00-4.34 3.48c-4.73 5.63-3.32 12.62-3.26 12.91a2 2 0 001.89 1.58h.2a16.19 16.19 0 0012-5.43 14.81 14.81 0 003.2-6.88c16.79 8.86 37.18 14.77 62.21 18h.26a2 2 0 001.2-3.6l-.01.06zm-62.88-47.55a14.33 14.33 0 01.53-10.23 13.37 13.37 0 016.35 17.82 14.32 14.32 0 01-6.87-7.59h-.01zm-18 3.26a10.54 10.54 0 0110.19 10.26 10.54 10.54 0 01-10.19-10.26zm-17.31-50a7.45 7.45 0 016.06-2.52 6.79 6.79 0 015.26 2.93 7.4 7.4 0 01-2.42 10.62 2.007 2.007 0 002 3.48 7.39 7.39 0 0110.35 3.31 6.79 6.79 0 01-.17 6 7.49 7.49 0 01-5.26 3.92 59.26 59.26 0 01-21.83-.16c-.92-.37-1.86-.72-2.81-1a41 41 0 006.54-4 2.001 2.001 0 10-2.39-3.21 38.43 38.43 0 01-7.81 4.49c.22-.767.427-1.533.62-2.3a59.87 59.87 0 0111.91-21.53l-.05-.03zm-49.64 2.13a8 8 0 013.46-6.21c.2-.13.4-.26.61-.38a8.71 8.71 0 0111.87 3.26 2.007 2.007 0 003.48-2 8.7 8.7 0 013.26-11.86c.207-.12.417-.23.63-.33a8 8 0 017.11.2 8.82 8.82 0 014.61 6.19 68.86 68.86 0 01-1.21 29.62 61.444 61.444 0 00-1 3.58c-1.79-.54-3.57-1-5.36-1.37a68.45 68.45 0 01-24.48-13.59 8.82 8.82 0 01-2.93-7.08l-.05-.03zm19.28 50.41a7 7 0 01-5.64 2.35 6.37 6.37 0 01-4.94-2.75 3.88 3.88 0 01-.3-.48 6.94 6.94 0 012.6-9.46 2.007 2.007 0 00-2-3.48 6.93 6.93 0 01-9.72-3.11 6.37 6.37 0 01.16-5.65 7 7 0 014.94-3.68 56.64 56.64 0 0122 .43c1.7.54 3.433 1.027 5.2 1.46-.39 1.33-.74 2.67-1 4a56.86 56.86 0 01-11.25 20.4l-.05-.03zm28.12-6.51a2.007 2.007 0 00-3.48 2 5.5 5.5 0 01-2.07 7.5l-.4.21a5 5 0 01-4.46-.13 5.58 5.58 0 01-2.92-3.92 47.23 47.23 0 01.42-18.65c.34-1.1.673-2.213 1-3.34 2.327.7 4.66 1.277 7 1.73a46.58 46.58 0 0113.16 8 5.58 5.58 0 011.88 4.51 5 5 0 01-2.19 3.95l-.39.24a5.51 5.51 0 01-7.5-2.07l-.05-.03zm-17.09 23a11.14 11.14 0 01-7.38-2.21 10.47 10.47 0 0114.28-1.22 11.09 11.09 0 01-6.85 3.47l-.05-.04zm19.4 18.12a10.76 10.76 0 01-6.48 3.52 10.09 10.09 0 018.84-10.5c.09 2.54-.73 5.03-2.31 7.02l-.05-.04zm-40.53 2.49c-9 .77-15.82-4.11-18.5-6.4 2.25-2.71 8.17-8.71 17.12-9.49 7.52-.64 13.54 2.68 16.87 5.12a70.64 70.64 0 01-20.76 1.28 2.008 2.008 0 10-.35 4c2.14.187 4.29.28 6.45.28a75.14 75.14 0 0013.34-1.21 24.53 24.53 0 01-14.12 6.46l-.05-.04zm68.25-18.36c1.66-.04 3.303-.04 4.93 0-.35.29-.68.6-1 .91a17.07 17.07 0 00-2 .25 139.36 139.36 0 01-1.88-1.12l-.05-.04zm.43 12.83a11.77 11.77 0 01-7.22 3.86 11.77 11.77 0 012.56-7.77 11.78 11.78 0 017.22-3.86 11.77 11.77 0 01-2.52 7.8l-.04-.03zm6.52-8.71v-.47a13.86 13.86 0 015.23-3.09c16.13 1.89 31.58 8.5 49.29 20.87-21.71-3.44-39.6-9.14-54.48-17.28l-.04-.03z"/><path d="M349.89 229.41c11.94 0 21.62-9.68 21.62-21.62 0-11.94-9.68-21.62-21.62-21.62-11.94 0-21.62 9.68-21.62 21.62.011 11.936 9.684 21.609 21.62 21.62zm0-39.24c9.731 0 17.62 7.889 17.62 17.62 0 9.731-7.889 17.62-17.62 17.62-9.731 0-17.62-7.889-17.62-17.62.017-9.723 7.897-17.599 17.62-17.61v-.01zM404.1 214.05a2 2 0 00.09.29 21.62 21.62 0 1040.85-14.16l-.05-.13c-4.118-10.937-16.18-16.622-27.237-12.837C406.697 191 400.65 202.885 404.1 214.05zm38.31-6.26v.28h-23a29.21 29.21 0 00-12 2.6 16.27 16.27 0 010-5.73 34 34 0 0111.61-2h22.67a17.54 17.54 0 01.72 4.85zm-17.62 17.62a17.64 17.64 0 01-16.29-10.86 25.2 25.2 0 0110.91-2.49h22.42a17.64 17.64 0 01-17.04 13.35zm0-35.24a17.61 17.61 0 0115.19 8.74h-20.94a38.16 38.16 0 00-10.17 1.37 17.63 17.63 0 0115.92-10.1v-.01zM84.57 221.18a2 2 0 102.84-2.81 39.64 39.64 0 01-7.53-11 2 2 0 00-3.61 1.72 43.67 43.67 0 008.3 12.09zM79.71 236.46a2 2 0 00-2.75-.64 35 35 0 01-5.57 2.84 2 2 0 101.47 3.72 39 39 0 006.21-3.16 2 2 0 00.64-2.76zM98.34 237.78a2 2 0 00-3.8 1.25 18.6 18.6 0 002.33 4.83 2 2 0 003.34-2.19 14.85 14.85 0 01-1.87-3.89zM108.5 221.66a2 2 0 001.84-1.23 2 2 0 00.15-.77 2.08 2.08 0 00-.33-1.11 3.71 3.71 0 00-.25-.3 2.07 2.07 0 00-2.83 0 1.82 1.82 0 00-.43.65c-.05.12-.09.244-.12.37-.01.13-.01.26 0 .39a2 2 0 002 2h-.03zM387.34 261.25h-42.67a2 2 0 000 4h42.67a2 2 0 000-4zM340.1 273.92h-19.67a2 2 0 000 4h19.67a2 2 0 000-4zM83.5 125.18a27.72 27.72 0 0013-3.32 16.27 16.27 0 002.4 7.83c1.75 2.7 4.16 4.18 6.79 4.18 5.09 0 9.09-5.6 9.22-12.81h.4a5.47 5.47 0 005.46-5.9c7.21-.13 12.81-4.13 12.81-9.22 0-2.63-1.49-5-4.18-6.79a16.27 16.27 0 00-7.83-2.4 27.13 27.13 0 002.37-6c2.73-10.23-.61-19.71-7.61-21.59-7-1.88-14.64 4.67-17.38 14.89a26.23 26.23 0 00-.82 9.24 11.69 11.69 0 01-3-9.41 2.01 2.01 0 10-4-.39 15.75 15.75 0 002.24 10.12 15.73 15.73 0 00-10.12-2.24 2.01 2.01 0 10.39 4 11.69 11.69 0 019.4 3c-3.1-.277-6.226 0-9.23.82-10.23 2.74-16.77 10.37-14.89 17.38 1.41 5.36 7.28 8.61 14.58 8.61zm19.3-40c2.09-7.79 7.81-13.32 12.48-12.07 4.67 1.25 6.86 8.9 4.78 16.69a21.77 21.77 0 01-3.89 7.91 2 2 0 00-.12.19l-.08.15a2 2 0 00-.08.2c0 .06 0 .11-.06.17-.06.06 0 .13 0 .19v.37a2 2 0 000 .22v.11a2 2 0 00.06.22l.07.16c.027.065.057.128.09.19l.11.16.12.15.15.15.09.09.18.12.16.09.17.07.2.07h.79a14.38 14.38 0 012.34-.18 12.84 12.84 0 016.8 1.79c.88.57 2.36 1.77 2.36 3.43 0 2.79-4.28 5.23-9.17 5.23a14.84 14.84 0 01-1.84-.13l-15.77-15.77c-.12-.12-.25-.2-.37-.3a21.38 21.38 0 01.38-9.67h.05zm-17.93 17.93a21.37 21.37 0 019.83-.39c.1.12.19.26.3.37l15.77 15.77c.081.61.125 1.225.13 1.84 0 4.88-2.45 9.17-5.23 9.17-1.66 0-2.86-1.48-3.43-2.36a12.85 12.85 0 01-1.79-6.81 14.45 14.45 0 01.18-2.34v-.05a2 2 0 000-.21v-.18-.2-.19c0-.06 0-.12-.06-.18s0-.12-.07-.18l-.09-.15a2 2 0 00-.12-.18l-.09-.09-.15-.16-.15-.12-.16-.11-.18-.09-.17-.07-.22-.06h-1.06l-.15.05-.22.09-.1.06-.24.15a21.74 21.74 0 01-7.91 3.89c-7.79 2.08-15.44-.1-16.69-4.78-1.25-4.68 4.23-10.42 12.02-12.53l.05.04zM380.91 141.52a4 4 0 003.88 3.88c0 6.06 3.39 10.81 7.71 10.81a6.94 6.94 0 005.71-3.5 13 13 0 001.9-5.75 22.18 22.18 0 009.87 2.38c5.92 0 10.73-2.66 11.91-7.07 1.54-5.75-3.76-12-12.05-14.23a21.48 21.48 0 00-6.07-.74 8.86 8.86 0 016.05-1.44 2 2 0 10.4-3.98 13.06 13.06 0 00-7 1.13 13.07 13.07 0 001.13-7 2.01 2.01 0 00-4 .39 8.87 8.87 0 01-1.44 6.05 21.48 21.48 0 00-.74-6.07c-2.22-8.3-8.46-13.59-14.23-12.05-5.77 1.54-8.52 9.26-6.3 17.55a21.93 21.93 0 001.62 4.23 12 12 0 00-7.24 3.1 6.33 6.33 0 00-2 4.51c.07 4.46 4.82 7.8 10.89 7.8zm27.93-9.57c5.93 1.59 10.15 5.86 9.23 9.33-.92 3.47-6.73 5.06-12.66 3.47a16.74 16.74 0 01-6.09-3l-.18-.12-.16-.09-.16-.06-.21-.07h-.9l-.23.06-.16.07-.19.1-.16.11-.16.12-.15.16-.09.09a2 2 0 00-.12.19l-.09.15a2 2 0 00-.07.19c0 .06 0 .11-.06.17-.06.06 0 .13 0 .19v.38a2 2 0 000 .21v.05a11 11 0 01.14 1.78 9.71 9.71 0 01-1.35 5.14 3.19 3.19 0 01-2.35 1.67c-1.75 0-3.71-2.8-3.71-6.81 0-.862.102-1.721.3-2.56l10.85-10.85a15.51 15.51 0 018.72-.07h.01zm-33.92.18a8.72 8.72 0 016-2 10.8 10.8 0 011.77.14h.92l.24-.09.1-.06.24-.15.06-.06.19-.19.1-.13.13-.18.08-.17a2 2 0 00.08-.18 2 2 0 00.06-.21v-.12-.05a2 2 0 000-.22v-.18-.2-.19c0-.06 0-.12-.06-.18s0-.13-.07-.19l-.09-.15a2 2 0 00-.12-.18 16.75 16.75 0 01-3-6.09c-1.58-5.93 0-11.73 3.47-12.66 3.47-.93 7.74 3.3 9.33 9.22a15.5 15.5 0 01-.07 8.86l-10.78 10.66a11.17 11.17 0 01-2.55.3c-4 0-6.81-2-6.81-3.71a2.41 2.41 0 01.78-1.59v-.05z"/></g><g opacity=".5"><path d="M442.56 207.79c0 .53 0 1.06-.06 1.58l-.06.49a17.76 17.76 0 01-16 15.63c-.53.05-1.06.07-1.6.07a17.73 17.73 0 01-15-8.18 18 18 0 01-2-4.33 17.17 17.17 0 01-.7-3.55 16.06 16.06 0 01-.09-1.71 17.44 17.44 0 01.44-3.92 17.76 17.76 0 0117.33-13.85 16 16 0 011.71.09 17.76 17.76 0 0114.94 11.45l.06.18a17.86 17.86 0 011.03 6.05zM367.66 207.79c0 .53 0 1.06-.06 1.58l-.06.49c-.05.41-.11.81-.19 1.21a17.75 17.75 0 01-17.46 14.49 17.63 17.63 0 01-8.6-2.22 16 16 0 01-2.44-1.63 17.61 17.61 0 01-3.92-4.33 16.87 16.87 0 01-1.38-2.63 14.51 14.51 0 01-.64-1.7 17.19 17.19 0 01-.7-3.55 16.06 16.06 0 01-.09-1.71 17.44 17.44 0 01.44-3.92c0-.16.07-.32.12-.48a17.76 17.76 0 0117.21-13.37 16 16 0 011.71.09 17.12 17.12 0 015.25 1.34c.917.378 1.798.84 2.63 1.38a17.77 17.77 0 014.34 3.91 18.46 18.46 0 011.62 2.44c.425.765.792 1.56 1.1 2.38l.06.18a17.85 17.85 0 011.06 6.05z" fill="#F2F4FF"/><path d="M434.38 192.83l-24.55 24.55a18 18 0 01-2-4.33 17.17 17.17 0 01-.7-3.55l19.37-19.39a17.55 17.55 0 017.88 2.72zM442.56 207.79c0 .53 0 1.06-.06 1.58l-16.11 16.12c-.53.05-1.06.07-1.6.07a17.63 17.63 0 01-6.06-1.06l22.77-22.76a17.86 17.86 0 011.06 6.05zM356.85 191.45l-23.3 23.3a14.51 14.51 0 01-.64-1.7 17.19 17.19 0 01-.7-3.55 16.06 16.06 0 01-.09-1.71 17.44 17.44 0 01.44-3.92c0-.16.07-.32.12-.48l12.82-12.82a17.66 17.66 0 014.39-.55 16 16 0 011.71.09 17.12 17.12 0 015.25 1.34zM365.44 199.18l-24.15 24.16a16 16 0 01-2.44-1.63l25-25a18.46 18.46 0 011.59 2.47zM367.35 211.07a17.75 17.75 0 01-14.19 14.19c4.26-4.27 10.02-10.02 14.19-14.19z" fill="#FFF"/></g><g><path d="M222.5 14.5c0-6.35 14.33-11.5 32-11.5s32 5.15 32 11.5l-6.23 57.14c-1.422 13.16-12.533 23.135-25.77 23.135s-24.348-9.974-25.77-23.135L222.5 14.5z" fill="#F0A860"/><path d="M279.67 7.4l-15-4.4-17.54.31-12.53 2.94-9.1 3.35-3 4.9 4.65 42.6 1.79 16 4.23 12.65 18.3 8.29c-18.68-13-14.67-15-20.8-75.48a3.68 3.68 0 013.66-4.06 3.68 3.68 0 013.67 3.68 10.91 10.91 0 0010.91 10.91h1.52c6.022-.006 10.9-4.888 10.9-10.91V14.5h24.33l-5.99-7.1z" fill="#FFF" opacity=".3"/><path d="M229.75 77.08c27.51 1.13 41.64-20.11 43.09-62.58h13.66l-7.07 61.44-8.21 14.45-17.45 5-13.49-3.46-7.52-7.46-3.01-7.39z" fill="#000" opacity=".1"/><path d="M246.63 55.84c-.06-5.47 2.81-7.32 6.44-7l-3.9-3.22-3.5.95S244 50.12 244 50.04c0-.08 2.63 5.8 2.63 5.8zM249.42 92.67c.68-2.58 3.61-3.35 7-3.75l-4.5-2.17s-4.5.5-4.75 1-2.29 3.31-2.29 3.31l4.54 1.61z" fill="#000" opacity=".1"/><g fill="#495385"><path d="M254.5 0c-17.39 0-35 5-35 14.5v.14a3 3 0 00.07.63l6.18 56.7c1.598 14.673 13.99 25.789 28.75 25.789s27.152-11.116 28.75-25.789l6.25-57.15a3 3 0 000-.33c0-9.51-17.61-14.49-35-14.49zm-7.28 90.55a5.06 5.06 0 019 1.12c-.58 0-1.15.08-1.74.08a22.93 22.93 0 01-7.26-1.2zm30.07-19.23a22.87 22.87 0 01-18 19.92 8.08 8.08 0 00-14.87-1.83 22.87 22.87 0 01-12.68-18.09l-6-55.32H238a1.5 1.5 0 000-3h-11.77c2.64-3 12.4-7 28.27-7s25.63 4 28.27 7h-15.68a1.5 1.5 0 000 3h16.23l-6.03 55.32z"/><path d="M262.83 14.5a1.5 1.5 0 00-.44-1.06l-.22-.19-.26-.14-.28-.08a1.5 1.5 0 00-1.8 1.47c0 .196.04.39.12.57.072.184.18.35.32.49.282.28.663.437 1.06.44a1.5 1.5 0 001.06-.44 1.62 1.62 0 00.33-.49 1.56 1.56 0 00.11-.57zM243.5 29.62a3.36 3.36 0 00.78-.08 3.76 3.76 0 001.44-.59 3.61 3.61 0 00.61-.5 4.32 4.32 0 00.5-.61 3.54 3.54 0 00.36-.69 3.36 3.36 0 00.23-.74 4.24 4.24 0 00.08-.79 4.06 4.06 0 00-1.17-2.83 3.6 3.6 0 00-.61-.49 3.49 3.49 0 00-.69-.37 3.79 3.79 0 00-.75-.23 4.11 4.11 0 00-1.56 0 4 4 0 00-1.44.6 3.91 3.91 0 00-1.78 3.32c.002.265.029.53.08.79a4 4 0 00.23.74c.098.243.222.474.37.69.141.22.305.425.49.61.187.186.391.353.61.5.219.143.45.267.69.37a4 4 0 00.75.22c.256.056.518.083.78.08zM239.31 63.18a2.27 2.27 0 00-.23-.44 3.64 3.64 0 00-.31-.38 2.86 2.86 0 00-.38-.31 3.63 3.63 0 00-.43-.23 2.55 2.55 0 00-.47-.14 2.3 2.3 0 00-1 0 2.5 2.5 0 00-.47.14 3.64 3.64 0 00-.43.23 2.93 2.93 0 00-.38.31 2.71 2.71 0 00-.31.38 2.33 2.33 0 00-.23.44 2.48 2.48 0 00-.14.46 2.68 2.68 0 000 .49 2.61 2.61 0 000 .49c.032.16.079.318.14.47.063.15.14.294.23.43.092.135.196.262.31.38.12.112.246.215.38.31.136.09.28.167.43.23.152.061.31.108.47.14.33.069.67.069 1 0 .16-.033.318-.08.47-.14.15-.063.294-.14.43-.23a3.63 3.63 0 00.38-.31 2.54 2.54 0 00.54-.81 2.5 2.5 0 00.14-.47 2.69 2.69 0 000-.49 2.77 2.77 0 000-.49 2.41 2.41 0 00-.14-.46zM273.5 52.65a2.32 2.32 0 00-.18-.35 2.4 2.4 0 00-.25-.3 2.54 2.54 0 00-.3-.25 2.37 2.37 0 00-.72-.3 2.05 2.05 0 00-.78 0c-.13.03-.257.07-.38.12a1.9 1.9 0 00-.34.18 2.66 2.66 0 00-.31.25 3.71 3.71 0 00-.25.3 2.32 2.32 0 00-.18.35 1.72 1.72 0 00-.11.37 1.79 1.79 0 000 .4 2 2 0 104 0 2.77 2.77 0 000-.4 2.72 2.72 0 00-.2-.37zM265.78 79.09a1.7 1.7 0 00-.35-.19 1.62 1.62 0 00-.37-.11 2 2 0 00-2.39 2 1.71 1.71 0 000 .39c.021.127.058.252.11.37a1.76 1.76 0 00.43.65 2 2 0 002.18.44 2 2 0 00.65-.44 1.81 1.81 0 00.25-.3 2.42 2.42 0 00.19-.35c0-.12.08-.24.11-.37.01-.13.01-.26 0-.39a2 2 0 00-.59-1.41 1.4 1.4 0 00-.22-.29zM235 23.96a1.78 1.78 0 00.71-.3 2 2 0 00.9-1.66 1.64 1.64 0 00-.11-.82 2.22 2.22 0 00-.18-.34 3.86 3.86 0 00-.25-.31 2.66 2.66 0 00-.31-.25 2.26 2.26 0 00-.34-.18 1.7 1.7 0 00-.38-.11 2.06 2.06 0 00-1.15.11 2.32 2.32 0 00-.35.18 2.55 2.55 0 00-.3.25 2.49 2.49 0 00-.25.31 2.21 2.21 0 00-.3.72c-.01.13-.01.26 0 .39-.002.26.05.52.15.76.1.245.25.466.44.65a2 2 0 001.41.59c.103.012.207.016.31.01zM248.66 44.13a6.61 6.61 0 100 13.22 6.61 6.61 0 000-13.22zm0 10.21a3.61 3.61 0 110-7.22 3.61 3.61 0 010 7.22zM270.71 21.92a5.12 5.12 0 100 10.24 5.12 5.12 0 000-10.24zm0 7.23a2.12 2.12 0 112.12-2.12 2.12 2.12 0 01-2.12 2.15v-.03z"/></g></g><g><g transform="translate(167 36)"><path d="M174.28 189.55a5.47 5.47 0 01.32 1.86 5.56 5.56 0 01-1 3.21l.68-5.07z" fill="#A9FFD6"/><path d="M174.28 189.55l-.69 5.07a5.66 5.66 0 11.69-5.07z" fill="#F96A53"/><path d="M138.5 12.83v11.35c0 6.672-5.408 12.08-12.08 12.08H48.58c-6.672 0-12.08-5.408-12.08-12.08V12.83C36.5 6.158 41.908.75 48.58.75h77.84c6.672 0 12.08 5.408 12.08 12.08z" fill="#F2F4FF" opacity=".5"/><path d="M129.06 223.67a3.58 3.58 0 11-.02 7.16 3.58 3.58 0 01.02-7.16z" fill="#FFA788"/><circle fill="#FFD684" cx="69.58" cy="144.42" r="3.59"/><ellipse fill="#FFD684" cx="42.17" cy="205.48" rx="5.66" ry="5.67"/><path d="M43.01 114.87a5.67 5.67 0 11-9-.51 65.31 65.31 0 019 .51z" fill="#FFD684"/><path d="M177.33 150c-3.81-17.88-42.6-15.6-69.68.06-19-14.93-39.69-32-64.64-35.19a65.31 65.31 0 00-9-.51 69.8 69.8 0 00-23.57 4.58 64.54 64.54 0 0125.39-20l.69-.3c7.5-3 15.08-7.12 17.13-15.36a16.48 16.48 0 00.44-3.28 144.94 144.94 0 00-4.07-43.69h75A144.94 144.94 0 00120.95 80a16.48 16.48 0 00.44 3.28c2.05 8.24 9.63 12.39 17.13 15.36l.69.3A65 65 0 01177.33 150z" fill="#F2F4FF" opacity=".5"/><path d="M173.83 170.35l-1.95 14.53a7.16 7.16 0 10-2.95 13.69 7 7 0 001.12-.09l-5 37.19a26.79 26.79 0 01-2.4 8s-6.47 3-5.64 3h4a27.22 27.22 0 01-22.86 12.51H36.85a27.22 27.22 0 01-22.81-12.48l-1.68-3a26.79 26.79 0 01-2.4-8L.69 166.81a62.46 62.46 0 0111.68-45.34 66.87 66.87 0 0118.79-3.92v.51a7.162 7.162 0 1014.32.34c21.82 3.78 40.43 18.38 57.49 31.78 17.06 13.4 33.59 26.42 50.84 26.42a36.34 36.34 0 0020.02-6.25z" fill="url(#a)"/><path d="M110.5 147.59c18.52 25.54 39.22 31.16 66.76 19.59 3.51-5.94 2.28-11.66 0-17.18.07 0-8.51-25.61-66.76-2.41z" fill="url(#b)"/></g><path d="M42.04 9.55c3.39 17.84 84.39 21.73 96.79 2.53v20.6l-5.67 3.17H43.64l-1.6-26.3z" fill="url(#c)" opacity=".12" transform="translate(164 36)"/><path d="M116.9 33.18v2.8l20.23-1.11 4.26-3.61-3.27-21.89c-.01 16.59-6.92 22.42-21.22 23.81z" fill="url(#d)" opacity=".8" transform="translate(164 36)"/><path d="M130.82 3.47V1.75l-84.55.24-7.43 14.76 5.2 18.5c0-7.54.9-13.42 2.73-18 2.541-6.105 9.448-9.115 15.65-6.82 23.29 8.58 48.44 5.92 68.4-6.96z" fill="url(#e)" opacity=".88" transform="translate(164 36)"/><path d="M222.27 36.75c0 14.89 64.23 14.89 64.23 0h-64.23z" fill="#000" opacity=".12"/><path d="M180.87 144.42l-.58 22.76-10 70.22-2.52 10.63-10.27 11.15-11.79 3.38H33.31l-5.81-1.31-10.31-7.5-6.26-9.41-2.18-11.8-1.25-14.65c56.39 15 148.88-3.64 165.86-90.79l7.51 17.32z" fill="url(#f)" opacity=".03" transform="translate(164 36)"/><path d="M174.29 211.72c-32.79 43.71-115.65 40.29-174.17-43l10.8 76.41h159l4.37-33.41z" fill="url(#g)" opacity=".38" transform="translate(164 36)"/><path d="M228.42 289.82a34.09 34.09 0 01-.84-8.72h-30a26.15 26.15 0 004 8.72 23.2 23.2 0 0010.74 8.72h24.5c-4.92-2.09-7.32-4.67-8.4-8.72z" fill="#FFF" opacity=".1"/><path d="M14.38 245.1h19.17a26.15 26.15 0 004 8.72H23.1a8.72 8.72 0 01-8.72-8.72z" fill="url(#h)" opacity=".1" transform="translate(164 36)"/><path d="M167.73 245.1a8.74 8.74 0 01-8.72 8.72H64.42a34.09 34.09 0 01-.84-8.72h104.15z" fill="url(#i)" opacity=".1" transform="translate(164 36)"/><path d="M50.5 34.9h-8.46V3.27h8.46a63.05 63.05 0 000 31.63z" fill="url(#j)" opacity=".8" transform="translate(164 36)"/><path d="M163.79 114.97l3.62 3.05a75.417 75.417 0 00-3.62-3.05z" fill="url(#k)" opacity=".08" transform="translate(164 36)"/><path d="M156.43 105.58l-13.59-6.57-9.68-5.68-5.88-4.08L122.94 73l4.75-30.57-1.44.41 1.54-5.73H53.21l3 10.64H91.5a21.94 21.94 0 0122 22v.45c.033 12.094-9.726 21.934-21.82 22-17.69.07-35.65-2.19-35.65-6.78-12.7 18.17-48.41 15.17-55.64 68.17 1-1.44 29-47.54 138.18-47.21a41 41 0 0125.11 8.55l.18.14-7.43-9.49z" fill="url(#l)" opacity=".08" transform="translate(164 36)"/><path d="M283.85 72.25a163.79 163.79 0 00-3.78 42.25 27 27 0 0015 23.16c22.43 11.08 36.22 25.41 40.13 46.52a62.75 62.75 0 01.38 19.56l-8.83 67.59a37.37 37.37 0 01-16.48 26.45l-.23.15 13.64-5.44 8-8.94 4.68-12 9.17-73.72-3.48-24.35-7.14-14.71-9.37-12.47-13.43-8.75-13.43-6.5-9-9.67-2.55-14 5.67-36.47-8.95 1.34z" fill="#FFF" opacity=".15"/><g fill="#495385"><path d="M12.5 295.18H3a3 3 0 000 6h9.5a3 3 0 000-6zM494.85 295.18H324.1a33.13 33.13 0 0013.89-22.71l9.27-68.89c.16-1.17.27-2.35.37-3.52a67.77 67.77 0 000-11v-.08a17.2 17.2 0 00-.47-4 68.28 68.28 0 00-39.76-52.8l-.79-.34c-6.59-2.61-13.57-6.23-15.32-13.3a14.19 14.19 0 01-.36-2.71 143.75 143.75 0 013.46-40.65c7.914-.515 14.08-7.069 14.11-15V48.83c-.011-8.324-6.756-15.069-15.08-15.08h-77.84c-8.324.011-15.069 6.756-15.08 15.08v11.35c.03 7.931 6.196 14.485 14.11 15a143.74 143.74 0 013.46 40.58 14.21 14.21 0 01-.36 2.72c-1.75 7.07-8.73 10.69-15.4 13.33l-.71.31a67.26 67.26 0 00-26.16 20.56 3 3 0 00-.73 1 68.49 68.49 0 00-13 49.92l9.27 68.89a33.13 33.13 0 0013.92 22.69H25a3 3 0 000 6h469.85a3 3 0 000-6zM341.28 186.12a61.87 61.87 0 01.46 12.16c-21.06 17-39.48 5.41-61.64-11.77 19.83-10.09 44.62-13.22 56-6.67a10.29 10.29 0 015.18 6.28zm-3.78 45.15a4.17 4.17 0 111-7.17l-1 7.17zm-131-171.09V48.83a9.09 9.09 0 019.08-9.08h77.83a9.09 9.09 0 019.08 9.08v11.35a9.09 9.09 0 01-9.08 9.08h-77.83a9.09 9.09 0 01-9.08-9.08zm-2.47 77.46l.58-.25c7.54-3 16.51-7.66 18.94-17.43a20 20 0 00.53-3.86c.774-13.7-.33-27.44-3.28-40.84h67.42a150.47 150.47 0 00-3.28 40.84 19.93 19.93 0 00.53 3.85c2.42 9.76 11.39 14.44 18.86 17.39l.66.29a62 62 0 0133.5 36.7c-13.83-7.43-41.73-3.82-63.54 8.14l-1.25-1c-24.2-19-51.35-40.38-86.84-32.47a61 61 0 0117.17-11.37v.01zm5.45 16.4a4.17 4.17 0 11-8.29-.6 62.27 62.27 0 018.28.49s.03.06.03.1l-.02.01zm-5.63 141.14a27.21 27.21 0 01-22.81-12.48h10.46a1.5 1.5 0 000-3h-12.14a26.87 26.87 0 01-2.4-8l-9.27-68.89a62.47 62.47 0 0111.68-45.34 66.75 66.75 0 0118.79-3.92v.51a7.17 7.17 0 0014.32.34c21.82 3.78 40.43 18.38 57.49 31.78 17.06 13.4 33.59 26.42 50.84 26.42a36.38 36.38 0 0020-6.27l-2 14.53a7.18 7.18 0 10-1.83 13.6l-5 37.19a26.87 26.87 0 01-2.4 8H324a1.5 1.5 0 000 3h4a27.21 27.21 0 01-22.85 12.53h-101.3zM508.12 296.06a3 3 0 00-1.53-.82 3.13 3.13 0 00-1.18 0 2.94 2.94 0 00-1.08.45 3 3 0 00-1.1 3.64 2.6 2.6 0 00.28.52c.103.165.228.317.37.45.138.14.289.267.45.38.164.108.338.198.52.27.178.081.367.138.56.17a2.94 2.94 0 001.18 0 2.21 2.21 0 00.56-.17c.18-.07.351-.16.51-.27.166-.11.32-.238.46-.38a2.71 2.71 0 00.37-.45 3.28 3.28 0 00.28-.52 2.76 2.76 0 00.17-.56 3 3 0 00-.82-2.71z"/><path d="M209.17 234.31a7.17 7.17 0 100 14.34 7.17 7.17 0 000-14.34zm0 11.33a4.17 4.17 0 114.17-4.17 4.17 4.17 0 01-4.17 4.18v-.01zM296.06 258.18a5.08 5.08 0 105.08 5.08 5.09 5.09 0 00-5.08-5.08zm0 7.16a2.08 2.08 0 112.08-2.08 2.08 2.08 0 01-2.08 2.07v.01zM236.58 185.5a5.08 5.08 0 10-5.08-5.08 5.09 5.09 0 005.08 5.08zm0-7.17a2.08 2.08 0 11-2.08 2.08 2.09 2.09 0 012.08-2.08zM286.83 279.7H228a1.5 1.5 0 000 3h58.83a1.5 1.5 0 000-3zM198.93 280.62a1.61 1.61 0 00-.14-.25 1.8 1.8 0 00-.41-.42l-.26-.14-.28-.08a1.52 1.52 0 00-1.52.68 1.61 1.61 0 00-.14.25 1.68 1.68 0 00-.09.29 1.39 1.39 0 000 .29 1.5 1.5 0 001.5 1.5 1.52 1.52 0 001.51-1.5 2.42 2.42 0 000-.29 1.6 1.6 0 00-.17-.33zM317.96 192.32l-.28.08-.26.14a2.17 2.17 0 00-.23.19 1.45 1.45 0 00-.19.23c-.053.08-.1.163-.14.25 0 .1-.06.19-.08.29a1.33 1.33 0 000 .29c.001.195.038.388.11.57.08.182.191.348.33.49.136.138.3.247.48.32a1.49 1.49 0 001.64-.32 1.62 1.62 0 00.33-.49 1.5 1.5 0 00-1.68-2.04h-.03zM265.43 260.73c.142.137.308.245.49.32a1.43 1.43 0 001.15 0 1.42 1.42 0 00.81-.81c.08-.18.12-.374.12-.57v-.3a1.47 1.47 0 00-.09-.28 1.7 1.7 0 00-.14-.26 1.51 1.51 0 00-1.54-.63 1.49 1.49 0 00-.28.08l-.26.14a1.35 1.35 0 00-.23.19 1.22 1.22 0 00-.18.22 1.62 1.62 0 00-.23.54v.3c-.004.196.034.39.11.57.057.18.149.346.27.49zM194.39 194.42a1.92 1.92 0 00-.14-.25 1.45 1.45 0 00-.19-.23 1.55 1.55 0 00-2.12 0 1.45 1.45 0 00-.19.23c-.053.08-.1.163-.14.25 0 .1-.06.19-.08.28-.01.1-.01.2 0 .3.001.195.038.388.11.57.08.182.191.348.33.49.138.141.305.25.49.32.363.16.777.16 1.14 0a1.35 1.35 0 00.49-.32 1.62 1.62 0 00.33-.49 1.56 1.56 0 00.11-.57c.01-.1.01-.2 0-.3-.03-.09-.11-.18-.14-.28zM335.63 186.18a1.27 1.27 0 00-.13-.26 1.41 1.41 0 00-.19-.22 1.35 1.35 0 00-.23-.19 1.27 1.27 0 00-.26-.14 1.33 1.33 0 00-.28-.09 1.54 1.54 0 00-1.35.42 1.4 1.4 0 00-.19.22c-.053.083-.1.17-.14.26 0 .09-.06.19-.08.28a1.5 1.5 0 102.97.29c0-.196-.041-.39-.12-.57zM312.42 187.84a3.39 3.39 0 00-.65-.97 2.79 2.79 0 00-.46-.37 3.32 3.32 0 00-.52-.28 3 3 0 00-3.27.65 2.83 2.83 0 00-.37.46 3.18 3.18 0 00-.28.51 3.71 3.71 0 00-.17.57 3.76 3.76 0 00-.05.58c.002.198.018.395.05.59.04.192.1.38.18.56.072.182.163.356.27.52.22.327.503.61.83.83a3.16 3.16 0 001.67.5 3 3 0 002.94-2.41 2.94 2.94 0 000-1.17 3.71 3.71 0 00-.17-.57zM188.77 204.1a3.83 3.83 0 00-.28-.52 3.23 3.23 0 00-.37-.45 3.1 3.1 0 00-4.24 0 3.24 3.24 0 00-.38.45 3.66 3.66 0 00-.27.52 3 3 0 00-.23 1.15c.004.394.082.784.23 1.15.073.18.167.351.28.51.103.168.228.323.37.46.14.14.294.264.46.37.161.109.332.203.51.28a3 3 0 001.15.23 3 3 0 001.67-.51 3 3 0 001.27-3.08 3.59 3.59 0 00-.17-.56zM309.98 230.9c.073.18.167.351.28.51.103.168.228.323.37.46a3 3 0 004.24 0c.14-.14.263-.294.37-.46a3.22 3.22 0 00.28-.51 3.18 3.18 0 00.23-1.15 3 3 0 00-.51-1.67 3.25 3.25 0 00-.82-.83 3.71 3.71 0 00-.52-.27 2.76 2.76 0 00-.56-.17 2.93 2.93 0 00-1.18 0 2.79 2.79 0 00-.56.17 3.75 3.75 0 00-.52.27 3.19 3.19 0 00-.45.38 2.29 2.29 0 00-.37.45 2.63 2.63 0 00-.28.52 3 3 0 00-.23 1.15c.004.394.082.784.23 1.15zM282.83 133.92a1.5 1.5 0 001.14-2.47c-3.41-4-5-11.13-5-21.69a1.5 1.5 0 00-1.49-1.51 1.5 1.5 0 00-1.5 1.49c-.06 11.3 1.8 19 5.69 23.64a1.49 1.49 0 001.16.54zM274.67 134.92a1.5 1.5 0 001.34-2.17 20.63 20.63 0 01-1.85-7.62 1.48 1.48 0 00-1.61-1.38 1.5 1.5 0 00-1.38 1.61 23.48 23.48 0 002.15 8.72 1.5 1.5 0 001.35.84zM180.73 238.77a1.51 1.51 0 00-3 .34l2 17a1.5 1.5 0 001.49 1.33h.17a1.5 1.5 0 001.32-1.66l-1.98-17.01zM178.55 233.02a1.5 1.5 0 001.32-1.66l-1-8.28a1.51 1.51 0 00-3 .34l1 8.28a1.5 1.5 0 001.49 1.33l.19-.01z"/></g><g transform="translate(118 2)"><circle fill="url(#m)" cx="66.12" cy="152.03" r="65.35"/><circle fill="url(#n)" cx="83.59" cy="50.8" r="50"/><path fill="#FFF" d="M66.12 165.18l-.01-.01v.01zM57.34 152.03h.01zM74.88 152.03l-6.86-1.72-1.9-11.44h-.01l-1.9 11.44-6.86 1.72 6.86 1.71 1.9 11.43 1.91-11.43z"/><circle fill="url(#o)" cx="66.12" cy="152.03" r="19"/><path fill="#FFF" d="M93.54 193l-3.8-.95-1.05-6.33-1.06 6.33-3.8.95 3.8.95 1.06 6.33 1.05-6.33z"/><circle fill="url(#p)" cx="88.69" cy="193" r="10.52"/><path fill="#FFF" d="M111.75 49.16v-.01zM116.6 41.87l-3.8-.95-1.05-6.33-1.06 6.33-3.8.95 3.8.95 1.06 6.33 1.05-6.33z"/><circle fill="url(#q)" cx="111.75" cy="41.87" r="10.52"/><ellipse fill="url(#r)" opacity=".9" transform="rotate(-47.49 88.692 168.032)" cx="88.692" cy="168.032" rx="29.9" ry="24.97"/><ellipse fill="url(#s)" opacity=".9" cx="69.53" cy="207.13" rx="9.92" ry="11.88"/><path d="M201.58 161.18l.23.23a39.63 39.63 0 0111 32.67l-6.82 58.1c-.907 7.875-7.563 13.826-15.49 13.85a15.64 15.64 0 01-15.54-17.4l6.73-59.28a31.6 31.6 0 00-1.5-14.17l-.17-.46a12.61 12.61 0 0111.76-17.06h1.06a12.41 12.41 0 018.74 3.52z" fill="url(#t)" opacity=".65"/></g></g></g></svg>